SplineFontDB: 3.2
FontName: Kilroy1-Bold
FullName: Kilroy1 Bold
FamilyName: Kilroy1
Weight: Bold
Copyright: Copyright 2020 The Roboto Serif Project Authors (https://github.com/googlefonts/RobotoSerif) OFL
Version: 1.008
ItalicAngle: 0
UnderlinePosition: -200
UnderlineWidth: 100
Ascent: 800
Descent: 200
InvalidEm: 0
sfntRevision: 0x0001020c
LayerCount: 2
Layer: 0 1 "Back" 1
Layer: 1 1 "Fore" 0
XUID: [1021 1018 -1064020043 11107]
StyleMap: 0x0020
FSType: 0
OS2Version: 4
OS2_WeightWidthSlopeOnly: 0
OS2_UseTypoMetrics: 1
CreationTime: 1586430965
ModificationTime: 1751681813
PfmFamily: 81
TTFWeight: 700
TTFWidth: 5
LineGap: 0
VLineGap: 0
Panose: 0 0 0 0 0 0 0 0 0 0
OS2TypoAscent: 927
OS2TypoAOffset: 0
OS2TypoDescent: -244
OS2TypoDOffset: 0
OS2TypoLinegap: 0
OS2WinAscent: 1048
OS2WinAOffset: 0
OS2WinDescent: 251
OS2WinDOffset: 0
HheadAscent: 927
HheadAOffset: 0
HheadDescent: -244
HheadDOffset: 0
OS2SubXSize: 650
OS2SubYSize: 600
OS2SubXOff: 0
OS2SubYOff: 75
OS2SupXSize: 650
OS2SupYSize: 600
OS2SupXOff: 0
OS2SupYOff: 350
OS2StrikeYSize: 100
OS2StrikeYPos: 311
OS2CapHeight: 710
OS2XHeight: 518
OS2Vendor: 'COMM'
OS2CodePages: 20000193.00000000
OS2UnicodeRanges: a10000ef.4000267a.00000000.00000000
Lookup: 5 0 0 "'locl' Localized Forms in Latin lookup 0" { "'locl' Localized Forms in Latin lookup 0 subtable"  } ['locl' ('latn' <'AZE ' 'CRT ' 'TRK ' > ) ]
Lookup: 1 0 0 "Single Substitution lookup 1" { "Single Substitution lookup 1 subtable"  } []
Lookup: 5 0 0 "'locl' Localized Forms in Latin lookup 2" { "'locl' Localized Forms in Latin lookup 2 subtable"  } ['locl' ('latn' <'PLK ' > ) ]
Lookup: 1 0 0 "Single Substitution lookup 3" { "Single Substitution lookup 3 subtable"  } []
Lookup: 6 0 0 "'locl' Localized Forms in Latin lookup 4" { "'locl' Localized Forms in Latin lookup 4 subtable"  } ['locl' ('latn' <'CAT ' > ) ]
Lookup: 4 0 0 "Ligature Substitution lookup 5" { "Ligature Substitution lookup 5 subtable"  } []

StartChar: .notdef
Encoding: 65536 -1 0
Width: 400
GlyphClass: 1
Flags: W
LayerCount: 2
Fore
SplineSet
0 0 m 1,0,-1
 0 700 l 1,1,-1
 400 700 l 1,2,-1
 400 0 l 1,3,-1
 0 0 l 1,0,-1
50 650 m 1,4,-1
 50 50 l 1,5,-1
 350 50 l 1,6,-1
 350 650 l 1,7,-1
 50 650 l 1,4,-1
EndSplineSet
EndChar

StartChar: A
Encoding: 65 65 6
Width: 747
GlyphClass: 2
Flags: W
AnchorPoint: "Anchor-2" 591 0 basechar 0
AnchorPoint: "Anchor-1" 373 0 basechar 0
AnchorPoint: "Anchor-0" 373 721 basechar 0
LayerCount: 2
Fore
SplineSet
183 299 m 1,0,-1
 458 299 l 1,1,-1
 464 224 l 1,2,-1
 177 224 l 1,3,-1
 183 299 l 1,0,-1
306 654 m 1,4,-1
 331 628 l 1,5,-1
 163 96 l 2,6,7
 163 90 163 90 171.5 85 c 128,-1,8
 180 80 180 80 195 77.5 c 128,-1,9
 210 75 210 75 229 75 c 2,10,-1
 240 75 l 1,11,-1
 240 0 l 1,12,-1
 17 0 l 1,13,-1
 17 75 l 1,14,-1
 22 75 l 2,15,16
 46 75 46 75 61 86 c 128,-1,17
 76 97 76 97 86 129 c 2,18,-1
 273 714 l 1,19,-1
 472 714 l 1,20,-1
 662 121 l 2,21,22
 671 94 671 94 686.5 84.5 c 128,-1,23
 702 75 702 75 725 75 c 2,24,-1
 730 75 l 1,25,-1
 730 0 l 1,26,-1
 403 0 l 1,27,-1
 403 75 l 1,28,-1
 416 75 l 2,29,30
 436 75 436 75 451 76.5 c 128,-1,31
 466 78 466 78 474.5 80.5 c 128,-1,32
 483 83 483 83 483 86 c 2,33,-1
 306 654 l 1,4,-1
EndSplineSet
EndChar

StartChar: Aogonek
Encoding: 260 260 15
Width: 747
GlyphClass: 1
Flags: W
LayerCount: 2
Fore
SplineSet
185 299 m 1,0,-1
 457 299 l 1,1,-1
 464 224 l 1,2,-1
 174 224 l 1,3,-1
 185 299 l 1,0,-1
563 54 m 1,4,-1
 593 10 l 1,5,6
 541 -21 541 -21 514.5 -43.5 c 128,-1,7
 488 -66 488 -66 479 -85 c 128,-1,8
 470 -104 470 -104 470 -124 c 0,9,10
 470 -147 470 -147 481.5 -158.5 c 128,-1,11
 493 -170 493 -170 515 -170 c 0,12,13
 539 -170 539 -170 556 -157.5 c 128,-1,14
 573 -145 573 -145 584 -133 c 1,15,-1
 625 -178 l 1,16,17
 599 -209 599 -209 563 -228 c 128,-1,18
 527 -247 527 -247 467 -247 c 0,19,20
 403 -247 403 -247 363 -222.5 c 128,-1,21
 323 -198 323 -198 323 -145 c 0,22,23
 323 -115 323 -115 336 -90.5 c 128,-1,24
 349 -66 349 -66 377.5 -44 c 128,-1,25
 406 -22 406 -22 452 1.5 c 128,-1,26
 498 25 498 25 563 54 c 1,4,-1
730 0 m 1,27,-1
 508 0 l 1,28,-1
 305 656 l 1,29,-1
 334 644 l 1,30,-1
 162 96 l 2,31,32
 162 90 162 90 170.5 85 c 128,-1,33
 179 80 179 80 194 77.5 c 128,-1,34
 209 75 209 75 228 75 c 2,35,-1
 239 75 l 1,36,-1
 239 0 l 1,37,-1
 17 0 l 1,38,-1
 17 75 l 1,39,-1
 22 75 l 2,40,41
 46 75 46 75 61 86 c 128,-1,42
 76 97 76 97 86 129 c 2,43,-1
 272 716 l 1,44,-1
 471 716 l 1,45,-1
 661 121 l 2,46,47
 670 94 670 94 686 84.5 c 128,-1,48
 702 75 702 75 725 75 c 2,49,-1
 730 75 l 1,50,-1
 730 0 l 1,27,-1
EndSplineSet
EndChar

StartChar: Acaron
Encoding: 461 461 16
Width: 747
GlyphClass: 1
Flags: W
LayerCount: 2
Fore
SplineSet
303 772 m 1,0,-1
 434 772 l 1,1,-1
 562 924 l 1,2,-1
 562 953 l 1,3,-1
 490 953 l 1,4,-1
 332 851 l 1,5,-1
 415 852 l 1,6,-1
 256 953 l 1,7,-1
 176 953 l 1,8,-1
 176 924 l 1,9,-1
 303 772 l 1,0,-1
183 299 m 1,10,-1
 458 299 l 1,11,-1
 464 224 l 1,12,-1
 177 224 l 1,13,-1
 183 299 l 1,10,-1
306 654 m 1,14,-1
 331 628 l 1,15,-1
 163 96 l 2,16,17
 163 90 163 90 171.5 85 c 128,-1,18
 180 80 180 80 195 77.5 c 128,-1,19
 210 75 210 75 229 75 c 2,20,-1
 240 75 l 1,21,-1
 240 0 l 1,22,-1
 17 0 l 1,23,-1
 17 75 l 1,24,-1
 22 75 l 2,25,26
 46 75 46 75 61 86 c 128,-1,27
 76 97 76 97 86 129 c 2,28,-1
 273 714 l 1,29,-1
 472 714 l 1,30,-1
 662 121 l 2,31,32
 671 94 671 94 686.5 84.5 c 128,-1,33
 702 75 702 75 725 75 c 2,34,-1
 730 75 l 1,35,-1
 730 0 l 1,36,-1
 403 0 l 1,37,-1
 403 75 l 1,38,-1
 416 75 l 2,39,40
 436 75 436 75 451 76.5 c 128,-1,41
 466 78 466 78 474.5 80.5 c 128,-1,42
 483 83 483 83 483 86 c 2,43,-1
 306 654 l 1,14,-1
EndSplineSet
EndChar

StartChar: Adblgrave
Encoding: 512 512 18
Width: 747
GlyphClass: 1
Flags: W
LayerCount: 2
Fore
SplineSet
499 888 m 2,0,-1
 526 796 l 1,1,-1
 526 765 l 1,2,-1
 473 765 l 1,3,-1
 408 816 l 2,4,5
 378 842 378 842 361 863 c 128,-1,6
 344 884 344 884 344 912 c 0,7,8
 344 938 344 938 362 955.5 c 128,-1,9
 380 973 380 973 414 973 c 0,10,11
 438 973 438 973 454.5 963 c 128,-1,12
 471 953 471 953 482 934 c 128,-1,13
 493 915 493 915 499 888 c 2,0,-1
289 888 m 2,14,-1
 316 796 l 1,15,-1
 316 765 l 1,16,-1
 263 765 l 1,17,-1
 198 816 l 2,18,19
 168 842 168 842 151 863 c 128,-1,20
 134 884 134 884 134 912 c 0,21,22
 134 938 134 938 152 955.5 c 128,-1,23
 170 973 170 973 203 973 c 0,24,25
 228 973 228 973 244.5 963 c 128,-1,26
 261 953 261 953 272 934 c 128,-1,27
 283 915 283 915 289 888 c 2,14,-1
183 299 m 1,28,-1
 458 299 l 1,29,-1
 464 224 l 1,30,-1
 177 224 l 1,31,-1
 183 299 l 1,28,-1
306 654 m 1,32,-1
 331 628 l 1,33,-1
 163 96 l 2,34,35
 163 90 163 90 171.5 85 c 128,-1,36
 180 80 180 80 195 77.5 c 128,-1,37
 210 75 210 75 229 75 c 2,38,-1
 240 75 l 1,39,-1
 240 0 l 1,40,-1
 17 0 l 1,41,-1
 17 75 l 1,42,-1
 22 75 l 2,43,44
 46 75 46 75 61 86 c 128,-1,45
 76 97 76 97 86 129 c 2,46,-1
 273 714 l 1,47,-1
 472 714 l 1,48,-1
 662 121 l 2,49,50
 671 94 671 94 686.5 84.5 c 128,-1,51
 702 75 702 75 725 75 c 2,52,-1
 730 75 l 1,53,-1
 730 0 l 1,54,-1
 403 0 l 1,55,-1
 403 75 l 1,56,-1
 416 75 l 2,57,58
 436 75 436 75 451 76.5 c 128,-1,59
 466 78 466 78 474.5 80.5 c 128,-1,60
 483 83 483 83 483 86 c 2,61,-1
 306 654 l 1,32,-1
EndSplineSet
EndChar

StartChar: Ainvertedbreve
Encoding: 514 514 19
Width: 747
GlyphClass: 1
Flags: W
LayerCount: 2
Fore
SplineSet
370 941 m 256,0,1
 313 941 313 941 273 922.5 c 128,-1,2
 233 904 233 904 212 864.5 c 128,-1,3
 191 825 191 825 189 762 c 1,4,-1
 276 762 l 1,5,6
 278 790 278 790 287.5 805 c 128,-1,7
 297 820 297 820 316 826 c 128,-1,8
 335 832 335 832 368 832 c 0,9,10
 400 832 400 832 419.5 826 c 128,-1,11
 439 820 439 820 448.5 805 c 128,-1,12
 458 790 458 790 460 762 c 1,13,-1
 552 762 l 1,14,15
 550 825 550 825 528.5 864.5 c 128,-1,16
 507 904 507 904 467 922.5 c 128,-1,17
 427 941 427 941 370 941 c 256,0,1
183 299 m 1,18,-1
 458 299 l 1,19,-1
 464 224 l 1,20,-1
 177 224 l 1,21,-1
 183 299 l 1,18,-1
306 654 m 1,22,-1
 331 628 l 1,23,-1
 163 96 l 2,24,25
 163 90 163 90 171.5 85 c 128,-1,26
 180 80 180 80 195 77.5 c 128,-1,27
 210 75 210 75 229 75 c 2,28,-1
 240 75 l 1,29,-1
 240 0 l 1,30,-1
 17 0 l 1,31,-1
 17 75 l 1,32,-1
 22 75 l 2,33,34
 46 75 46 75 61 86 c 128,-1,35
 76 97 76 97 86 129 c 2,36,-1
 273 714 l 1,37,-1
 472 714 l 1,38,-1
 662 121 l 2,39,40
 671 94 671 94 686.5 84.5 c 128,-1,41
 702 75 702 75 725 75 c 2,42,-1
 730 75 l 1,43,-1
 730 0 l 1,44,-1
 403 0 l 1,45,-1
 403 75 l 1,46,-1
 416 75 l 2,47,48
 436 75 436 75 451 76.5 c 128,-1,49
 466 78 466 78 474.5 80.5 c 128,-1,50
 483 83 483 83 483 86 c 2,51,-1
 306 654 l 1,22,-1
EndSplineSet
EndChar

StartChar: B
Encoding: 66 66 32
Width: 744
GlyphClass: 2
Flags: W
AnchorPoint: "Anchor-0" 319 741 basechar 0
LayerCount: 2
Fore
SplineSet
423 710 m 2,0,1
 484 710 484 710 530.5 699.5 c 128,-1,2
 577 689 577 689 608 667.5 c 128,-1,3
 639 646 639 646 655 613.5 c 128,-1,4
 671 581 671 581 671 538 c 0,5,6
 671 485 671 485 645 449 c 128,-1,7
 619 413 619 413 571 395 c 128,-1,8
 523 377 523 377 456 373 c 1,9,-1
 481 398 l 1,10,-1
 481 347 l 1,11,-1
 460 376 l 1,12,13
 534 372 534 372 587.5 351.5 c 128,-1,14
 641 331 641 331 670.5 293.5 c 128,-1,15
 700 256 700 256 700 198 c 0,16,17
 700 149 700 149 682.5 112 c 128,-1,18
 665 75 665 75 630.5 50 c 128,-1,19
 596 25 596 25 546 12.5 c 128,-1,20
 496 0 496 0 431 0 c 2,21,-1
 38 0 l 1,22,-1
 38 75 l 1,23,-1
 49 75 l 2,24,25
 76 75 76 75 93.5 82 c 128,-1,26
 111 89 111 89 111 111 c 2,27,-1
 111 599 l 2,28,29
 111 621 111 621 93.5 628 c 128,-1,30
 76 635 76 635 49 635 c 2,31,-1
 38 635 l 1,32,-1
 38 710 l 1,33,-1
 423 710 l 2,0,1
254 408 m 1,34,-1
 382 408 l 2,35,36
 418 408 418 408 441 420.5 c 128,-1,37
 464 433 464 433 474.5 459.5 c 128,-1,38
 485 486 485 486 485 527 c 0,39,40
 485 560 485 560 474 583.5 c 128,-1,41
 463 607 463 607 440.5 619.5 c 128,-1,42
 418 632 418 632 385 632 c 2,43,-1
 296 632 l 1,44,-1
 296 78 l 1,45,-1
 390 78 l 2,46,47
 430 78 430 78 456.5 92.5 c 128,-1,48
 483 107 483 107 496.5 135.5 c 128,-1,49
 510 164 510 164 510 207 c 0,50,51
 510 248 510 248 496.5 276.5 c 128,-1,52
 483 305 483 305 455 319.5 c 128,-1,53
 427 334 427 334 383 334 c 2,54,-1
 254 334 l 1,55,-1
 254 408 l 1,34,-1
EndSplineSet
EndChar

StartChar: C
Encoding: 67 67 33
Width: 740
GlyphClass: 2
Flags: W
AnchorPoint: "Anchor-1" 391 0 basechar 0
AnchorPoint: "Anchor-0" 391 741 basechar 0
LayerCount: 2
Fore
SplineSet
412 642 m 0,0,1
 369 642 369 642 336 624 c 128,-1,2
 303 606 303 606 281 570.5 c 128,-1,3
 259 535 259 535 248 481 c 128,-1,4
 237 427 237 427 237 355 c 0,5,6
 237 281 237 281 248.5 227 c 128,-1,7
 260 173 260 173 283 138 c 128,-1,8
 306 103 306 103 341 85.5 c 128,-1,9
 376 68 376 68 423 68 c 0,10,11
 481 68 481 68 520.5 92 c 128,-1,12
 560 116 560 116 585 158.5 c 128,-1,13
 610 201 610 201 624 257 c 1,14,-1
 700 224 l 1,15,16
 681 150 681 150 643 95.5 c 128,-1,17
 605 41 605 41 545.5 12 c 128,-1,18
 486 -17 486 -17 401 -17 c 0,19,20
 321 -17 321 -17 255.5 7.5 c 128,-1,21
 190 32 190 32 142 80 c 128,-1,22
 94 128 94 128 68.5 197 c 128,-1,23
 43 266 43 266 43 355 c 0,24,25
 43 445 43 445 69.5 514.5 c 128,-1,26
 96 584 96 584 143.5 631 c 128,-1,27
 191 678 191 678 254 703 c 128,-1,28
 317 728 317 728 389 728 c 0,29,30
 462 728 462 728 510.5 701 c 128,-1,31
 559 674 559 674 588 625 c 128,-1,32
 617 576 617 576 630 509 c 1,33,-1
 587 539 l 1,34,-1
 606 715 l 1,35,-1
 689 715 l 1,36,-1
 689 473 l 1,37,-1
 591 473 l 1,38,39
 577 524 577 524 553 562 c 128,-1,40
 529 600 529 600 494.5 621 c 128,-1,41
 460 642 460 642 412 642 c 0,0,1
EndSplineSet
EndChar

StartChar: Ccaron
Encoding: 268 268 38
Width: 740
GlyphClass: 1
Flags: W
LayerCount: 2
Fore
SplineSet
321 772 m 1,0,-1
 452 772 l 1,1,-1
 579 924 l 1,2,-1
 579 953 l 1,3,-1
 507 953 l 1,4,-1
 350 851 l 1,5,-1
 432 852 l 1,6,-1
 273 953 l 1,7,-1
 193 953 l 1,8,-1
 193 924 l 1,9,-1
 321 772 l 1,0,-1
412 642 m 0,10,11
 369 642 369 642 336 624 c 128,-1,12
 303 606 303 606 281 570.5 c 128,-1,13
 259 535 259 535 248 481 c 128,-1,14
 237 427 237 427 237 355 c 0,15,16
 237 281 237 281 248.5 227 c 128,-1,17
 260 173 260 173 283 138 c 128,-1,18
 306 103 306 103 341 85.5 c 128,-1,19
 376 68 376 68 423 68 c 0,20,21
 481 68 481 68 520.5 92 c 128,-1,22
 560 116 560 116 585 158.5 c 128,-1,23
 610 201 610 201 624 257 c 1,24,-1
 700 224 l 1,25,26
 681 150 681 150 643 95.5 c 128,-1,27
 605 41 605 41 545.5 12 c 128,-1,28
 486 -17 486 -17 401 -17 c 0,29,30
 321 -17 321 -17 255.5 7.5 c 128,-1,31
 190 32 190 32 142 80 c 128,-1,32
 94 128 94 128 68.5 197 c 128,-1,33
 43 266 43 266 43 355 c 0,34,35
 43 445 43 445 69.5 514.5 c 128,-1,36
 96 584 96 584 143.5 631 c 128,-1,37
 191 678 191 678 254 703 c 128,-1,38
 317 728 317 728 389 728 c 0,39,40
 462 728 462 728 510.5 701 c 128,-1,41
 559 674 559 674 588 625 c 128,-1,42
 617 576 617 576 630 509 c 1,43,-1
 587 539 l 1,44,-1
 606 715 l 1,45,-1
 689 715 l 1,46,-1
 689 473 l 1,47,-1
 591 473 l 1,48,49
 577 524 577 524 553 562 c 128,-1,50
 529 600 529 600 494.5 621 c 128,-1,51
 460 642 460 642 412 642 c 0,10,11
EndSplineSet
EndChar

StartChar: D
Encoding: 68 68 40
Width: 820
GlyphClass: 2
Flags: W
AnchorPoint: "Anchor-1" 412 0 basechar 0
AnchorPoint: "Anchor-0" 412 741 basechar 0
LayerCount: 2
Fore
SplineSet
38 635 m 1,0,-1
 38 710 l 1,1,-1
 397 710 l 2,2,3
 482 710 482 710 551.5 688 c 128,-1,4
 621 666 621 666 671.5 621.5 c 128,-1,5
 722 577 722 577 749.5 511 c 128,-1,6
 777 445 777 445 777 358 c 256,7,8
 777 271 777 271 749.5 204.5 c 128,-1,9
 722 138 722 138 671.5 92.5 c 128,-1,10
 621 47 621 47 551.5 23.5 c 128,-1,11
 482 0 482 0 397 0 c 2,12,-1
 38 0 l 1,13,-1
 38 75 l 1,14,-1
 50 75 l 2,15,16
 76 75 76 75 93.5 82 c 128,-1,17
 111 89 111 89 111 111 c 2,18,-1
 111 599 l 2,19,20
 111 620 111 620 93.5 627.5 c 128,-1,21
 76 635 76 635 50 635 c 2,22,-1
 38 635 l 1,0,-1
383 629 m 2,23,-1
 296 629 l 1,24,-1
 296 81 l 1,25,-1
 383 81 l 2,26,27
 431 81 431 81 468 98 c 128,-1,28
 505 115 505 115 530.5 150 c 128,-1,29
 556 185 556 185 569.5 237 c 128,-1,30
 583 289 583 289 583 358 c 256,31,32
 583 427 583 427 569.5 478 c 128,-1,33
 556 529 556 529 530.5 562.5 c 128,-1,34
 505 596 505 596 468 612.5 c 128,-1,35
 431 629 431 629 383 629 c 2,23,-1
EndSplineSet
EndChar

StartChar: Dcaron
Encoding: 270 270 41
Width: 820
GlyphClass: 1
Flags: W
LayerCount: 2
Fore
SplineSet
326 772 m 1,0,-1
 457 772 l 1,1,-1
 585 924 l 1,2,-1
 585 953 l 1,3,-1
 513 953 l 1,4,-1
 355 851 l 1,5,-1
 438 852 l 1,6,-1
 279 953 l 1,7,-1
 199 953 l 1,8,-1
 199 924 l 1,9,-1
 326 772 l 1,0,-1
38 635 m 1,10,-1
 38 710 l 1,11,-1
 397 710 l 2,12,13
 482 710 482 710 551.5 688 c 128,-1,14
 621 666 621 666 671.5 621.5 c 128,-1,15
 722 577 722 577 749.5 511 c 128,-1,16
 777 445 777 445 777 358 c 256,17,18
 777 271 777 271 749.5 204.5 c 128,-1,19
 722 138 722 138 671.5 92.5 c 128,-1,20
 621 47 621 47 551.5 23.5 c 128,-1,21
 482 0 482 0 397 0 c 2,22,-1
 38 0 l 1,23,-1
 38 75 l 1,24,-1
 50 75 l 2,25,26
 76 75 76 75 93.5 82 c 128,-1,27
 111 89 111 89 111 111 c 2,28,-1
 111 599 l 2,29,30
 111 620 111 620 93.5 627.5 c 128,-1,31
 76 635 76 635 50 635 c 2,32,-1
 38 635 l 1,10,-1
383 629 m 2,33,-1
 296 629 l 1,34,-1
 296 81 l 1,35,-1
 383 81 l 2,36,37
 431 81 431 81 468 98 c 128,-1,38
 505 115 505 115 530.5 150 c 128,-1,39
 556 185 556 185 569.5 237 c 128,-1,40
 583 289 583 289 583 358 c 256,41,42
 583 427 583 427 569.5 478 c 128,-1,43
 556 529 556 529 530.5 562.5 c 128,-1,44
 505 596 505 596 468 612.5 c 128,-1,45
 431 629 431 629 383 629 c 2,33,-1
EndSplineSet
EndChar

StartChar: E
Encoding: 69 69 44
Width: 686
GlyphClass: 2
Flags: W
AnchorPoint: "Anchor-2" 474 0 basechar 0
AnchorPoint: "Anchor-1" 405 0 basechar 0
AnchorPoint: "Anchor-0" 395 741 basechar 0
LayerCount: 2
Fore
SplineSet
637 226 m 1,0,-1
 637 0 l 1,1,-1
 38 0 l 1,2,-1
 38 75 l 1,3,-1
 49 75 l 2,4,5
 76 75 76 75 93.5 82 c 128,-1,6
 111 89 111 89 111 111 c 2,7,-1
 111 599 l 2,8,9
 111 621 111 621 93.5 628 c 128,-1,10
 76 635 76 635 49 635 c 2,11,-1
 38 635 l 1,12,-1
 38 710 l 1,13,-1
 614 710 l 1,14,-1
 614 509 l 1,15,-1
 527 509 l 1,16,-1
 518 586 l 2,17,18
 516 604 516 604 503.5 613.5 c 128,-1,19
 491 623 491 623 468.5 626.5 c 128,-1,20
 446 630 446 630 413 630 c 2,21,-1
 296 630 l 1,22,-1
 296 80 l 1,23,-1
 418 80 l 2,24,25
 448 80 448 80 469.5 82 c 128,-1,26
 491 84 491 84 504.5 89 c 128,-1,27
 518 94 518 94 525 102.5 c 128,-1,28
 532 111 532 111 534 124 c 2,29,-1
 547 226 l 1,30,-1
 637 226 l 1,0,-1
274 400 m 1,31,32
 316 403 316 403 357.5 405.5 c 128,-1,33
 399 408 399 408 440.5 411 c 128,-1,34
 482 414 482 414 523 416 c 1,35,-1
 523 313 l 1,36,37
 482 316 482 316 440.5 318.5 c 128,-1,38
 399 321 399 321 357.5 323.5 c 128,-1,39
 316 326 316 326 274 329 c 1,40,-1
 274 400 l 1,31,32
EndSplineSet
Substitution2: "'ss01' Style Set 1 lookup 61 subtable" E.alt
EndChar

StartChar: Ecaron
Encoding: 282 282 53
Width: 686
GlyphClass: 1
Flags: W
LayerCount: 2
Fore
SplineSet
274 772 m 1,0,-1
 405 772 l 1,1,-1
 533 924 l 1,2,-1
 533 953 l 1,3,-1
 461 953 l 1,4,-1
 303 851 l 1,5,-1
 385 852 l 1,6,-1
 227 953 l 1,7,-1
 147 953 l 1,8,-1
 147 924 l 1,9,-1
 274 772 l 1,0,-1
637 226 m 1,10,-1
 637 0 l 1,11,-1
 38 0 l 1,12,-1
 38 75 l 1,13,-1
 49 75 l 2,14,15
 76 75 76 75 93.5 82 c 128,-1,16
 111 89 111 89 111 111 c 2,17,-1
 111 599 l 2,18,19
 111 621 111 621 93.5 628 c 128,-1,20
 76 635 76 635 49 635 c 2,21,-1
 38 635 l 1,22,-1
 38 710 l 1,23,-1
 614 710 l 1,24,-1
 614 509 l 1,25,-1
 527 509 l 1,26,-1
 518 586 l 2,27,28
 516 604 516 604 503.5 613.5 c 128,-1,29
 491 623 491 623 468.5 626.5 c 128,-1,30
 446 630 446 630 413 630 c 2,31,-1
 296 630 l 1,32,-1
 296 80 l 1,33,-1
 418 80 l 2,34,35
 448 80 448 80 469.5 82 c 128,-1,36
 491 84 491 84 504.5 89 c 128,-1,37
 518 94 518 94 525 102.5 c 128,-1,38
 532 111 532 111 534 124 c 2,39,-1
 547 226 l 1,40,-1
 637 226 l 1,10,-1
274 400 m 1,41,42
 316 403 316 403 357.5 405.5 c 128,-1,43
 399 408 399 408 440.5 411 c 128,-1,44
 482 414 482 414 523 416 c 1,45,-1
 523 313 l 1,46,47
 482 316 482 316 440.5 318.5 c 128,-1,48
 399 321 399 321 357.5 323.5 c 128,-1,49
 316 326 316 326 274 329 c 1,50,-1
 274 400 l 1,41,42
EndSplineSet
Substitution2: "'ss01' Style Set 1 lookup 61 subtable" Ecaron.alt
EndChar

StartChar: Edblgrave
Encoding: 516 516 54
Width: 686
GlyphClass: 1
Flags: W
LayerCount: 2
Fore
SplineSet
483 888 m 2,0,-1
 510 796 l 1,1,-1
 510 765 l 1,2,-1
 457 765 l 1,3,-1
 392 816 l 2,4,5
 362 842 362 842 345.5 863 c 128,-1,6
 329 884 329 884 329 912 c 0,7,8
 329 938 329 938 346.5 955.5 c 128,-1,9
 364 973 364 973 398 973 c 0,10,11
 422 973 422 973 439 963 c 128,-1,12
 456 953 456 953 466.5 934 c 128,-1,13
 477 915 477 915 483 888 c 2,0,-1
274 888 m 2,14,-1
 300 796 l 1,15,-1
 300 765 l 1,16,-1
 247 765 l 1,17,-1
 182 816 l 2,18,19
 152 842 152 842 135 863 c 128,-1,20
 118 884 118 884 118 912 c 0,21,22
 118 938 118 938 136 955.5 c 128,-1,23
 154 973 154 973 188 973 c 0,24,25
 212 973 212 973 229 963 c 128,-1,26
 246 953 246 953 257 934 c 128,-1,27
 268 915 268 915 274 888 c 2,14,-1
637 226 m 1,28,-1
 637 0 l 1,29,-1
 38 0 l 1,30,-1
 38 75 l 1,31,-1
 49 75 l 2,32,33
 76 75 76 75 93.5 82 c 128,-1,34
 111 89 111 89 111 111 c 2,35,-1
 111 599 l 2,36,37
 111 621 111 621 93.5 628 c 128,-1,38
 76 635 76 635 49 635 c 2,39,-1
 38 635 l 1,40,-1
 38 710 l 1,41,-1
 614 710 l 1,42,-1
 614 509 l 1,43,-1
 527 509 l 1,44,-1
 518 586 l 2,45,46
 516 604 516 604 503.5 613.5 c 128,-1,47
 491 623 491 623 468.5 626.5 c 128,-1,48
 446 630 446 630 413 630 c 2,49,-1
 296 630 l 1,50,-1
 296 80 l 1,51,-1
 418 80 l 2,52,53
 448 80 448 80 469.5 82 c 128,-1,54
 491 84 491 84 504.5 89 c 128,-1,55
 518 94 518 94 525 102.5 c 128,-1,56
 532 111 532 111 534 124 c 2,57,-1
 547 226 l 1,58,-1
 637 226 l 1,28,-1
274 400 m 1,59,60
 316 403 316 403 357.5 405.5 c 128,-1,61
 399 408 399 408 440.5 410.5 c 128,-1,62
 482 413 482 413 523 416 c 1,63,-1
 523 313 l 1,64,65
 482 316 482 316 440.5 318.5 c 128,-1,66
 399 321 399 321 357.5 323.5 c 128,-1,67
 316 326 316 326 274 329 c 1,68,-1
 274 400 l 1,59,60
EndSplineSet
Substitution2: "'ss01' Style Set 1 lookup 61 subtable" Edblgrave.alt
EndChar

StartChar: Einvertedbreve
Encoding: 518 518 55
Width: 686
GlyphClass: 1
Flags: W
LayerCount: 2
Fore
SplineSet
340 941 m 256,0,1
 283 941 283 941 243 922.5 c 128,-1,2
 203 904 203 904 182 864.5 c 128,-1,3
 161 825 161 825 159 762 c 1,4,-1
 246 762 l 1,5,6
 248 790 248 790 257.5 805 c 128,-1,7
 267 820 267 820 286 826 c 128,-1,8
 305 832 305 832 338 832 c 0,9,10
 370 832 370 832 389.5 826 c 128,-1,11
 409 820 409 820 418.5 805 c 128,-1,12
 428 790 428 790 430 762 c 1,13,-1
 522 762 l 1,14,15
 520 825 520 825 498.5 864.5 c 128,-1,16
 477 904 477 904 437 922.5 c 128,-1,17
 397 941 397 941 340 941 c 256,0,1
637 226 m 1,18,-1
 637 0 l 1,19,-1
 38 0 l 1,20,-1
 38 75 l 1,21,-1
 49 75 l 2,22,23
 76 75 76 75 93.5 82 c 128,-1,24
 111 89 111 89 111 111 c 2,25,-1
 111 599 l 2,26,27
 111 621 111 621 93.5 628 c 128,-1,28
 76 635 76 635 49 635 c 2,29,-1
 38 635 l 1,30,-1
 38 710 l 1,31,-1
 614 710 l 1,32,-1
 614 509 l 1,33,-1
 527 509 l 1,34,-1
 518 586 l 2,35,36
 516 604 516 604 503.5 613.5 c 128,-1,37
 491 623 491 623 468.5 626.5 c 128,-1,38
 446 630 446 630 413 630 c 2,39,-1
 296 630 l 1,40,-1
 296 80 l 1,41,-1
 418 80 l 2,42,43
 448 80 448 80 469.5 82 c 128,-1,44
 491 84 491 84 504.5 89 c 128,-1,45
 518 94 518 94 525 102.5 c 128,-1,46
 532 111 532 111 534 124 c 2,47,-1
 547 226 l 1,48,-1
 637 226 l 1,18,-1
274 400 m 1,49,50
 316 403 316 403 357.5 405.5 c 128,-1,51
 399 408 399 408 440.5 410.5 c 128,-1,52
 482 413 482 413 523 416 c 1,53,-1
 523 313 l 1,54,55
 482 316 482 316 440.5 318.5 c 128,-1,56
 399 321 399 321 357.5 323.5 c 128,-1,57
 316 326 316 326 274 329 c 1,58,-1
 274 400 l 1,49,50
EndSplineSet
Substitution2: "'ss01' Style Set 1 lookup 61 subtable" Einvertedbreve.alt
EndChar

StartChar: F
Encoding: 70 70 67
Width: 660
GlyphClass: 2
Flags: W
AnchorPoint: "Anchor-0" 312 741 basechar 0
LayerCount: 2
Fore
SplineSet
296 630 m 1,0,-1
 296 98 l 2,1,2
 296 91 296 91 302.5 86 c 128,-1,3
 309 81 309 81 319.5 79 c 128,-1,4
 330 77 330 77 343 76 c 128,-1,5
 356 75 356 75 370 75 c 2,6,-1
 388 75 l 1,7,-1
 388 0 l 1,8,-1
 38 0 l 1,9,-1
 38 75 l 1,10,-1
 49 75 l 2,11,12
 76 75 76 75 93.5 82 c 128,-1,13
 111 89 111 89 111 111 c 2,14,-1
 111 599 l 2,15,16
 111 621 111 621 93.5 628 c 128,-1,17
 76 635 76 635 49 635 c 2,18,-1
 38 635 l 1,19,-1
 38 710 l 1,20,-1
 617 710 l 1,21,-1
 617 508 l 1,22,-1
 529 508 l 1,23,-1
 520 586 l 2,24,25
 518 604 518 604 506 613.5 c 128,-1,26
 494 623 494 623 471.5 626.5 c 128,-1,27
 449 630 449 630 416 630 c 2,28,-1
 296 630 l 1,0,-1
274 389 m 1,29,30
 317 392 317 392 359 394.5 c 128,-1,31
 401 397 401 397 443 399.5 c 128,-1,32
 485 402 485 402 527 405 c 1,33,-1
 527 302 l 1,34,35
 485 305 485 305 443 307.5 c 128,-1,36
 401 310 401 310 359 312.5 c 128,-1,37
 317 315 317 315 274 318 c 1,38,-1
 274 389 l 1,29,30
EndSplineSet
Substitution2: "'ss01' Style Set 1 lookup 61 subtable" F.alt
EndChar

StartChar: G
Encoding: 71 71 68
Width: 806
GlyphClass: 2
Flags: W
AnchorPoint: "Anchor-1" 410 0 basechar 0
AnchorPoint: "Anchor-0" 410 741 basechar 0
LayerCount: 2
Fore
SplineSet
711 242 m 2,0,-1
 711 100 l 1,1,2
 696 82 696 82 667.5 61.5 c 128,-1,3
 639 41 639 41 599 23 c 128,-1,4
 559 5 559 5 510.5 -6 c 128,-1,5
 462 -17 462 -17 408 -17 c 0,6,7
 325 -17 325 -17 258 7.5 c 128,-1,8
 191 32 191 32 143 80 c 128,-1,9
 95 128 95 128 69 197 c 128,-1,10
 43 266 43 266 43 355 c 0,11,12
 43 443 43 443 69.5 512 c 128,-1,13
 96 581 96 581 145 629.5 c 128,-1,14
 194 678 194 678 258.5 703 c 128,-1,15
 323 728 323 728 400 728 c 0,16,17
 473 728 473 728 522 702 c 128,-1,18
 571 676 571 676 600.5 629.5 c 128,-1,19
 630 583 630 583 644 520 c 1,20,-1
 600 551 l 1,21,-1
 617 715 l 1,22,-1
 702 715 l 1,23,-1
 702 484 l 1,24,-1
 606 484 l 1,25,26
 591 531 591 531 566 566.5 c 128,-1,27
 541 602 541 602 505 622 c 128,-1,28
 469 642 469 642 421 642 c 0,29,30
 375 642 375 642 341 623.5 c 128,-1,31
 307 605 307 605 283.5 569.5 c 128,-1,32
 260 534 260 534 248.5 480.5 c 128,-1,33
 237 427 237 427 237 355 c 0,34,35
 237 279 237 279 249 224.5 c 128,-1,36
 261 170 261 170 284.5 135.5 c 128,-1,37
 308 101 308 101 342 84.5 c 128,-1,38
 376 68 376 68 420 68 c 0,39,40
 454 68 454 68 477.5 75.5 c 128,-1,41
 501 83 501 83 517 93.5 c 128,-1,42
 533 104 533 104 542 112 c 1,43,-1
 542 242 l 2,44,45
 542 265 542 265 523 272.5 c 128,-1,46
 504 280 504 280 475 280 c 2,47,-1
 455 280 l 1,48,-1
 455 355 l 1,49,-1
 778 355 l 1,50,-1
 778 280 l 1,51,-1
 763 280 l 2,52,53
 739 280 739 280 725 272.5 c 128,-1,54
 711 265 711 265 711 242 c 2,0,-1
EndSplineSet
EndChar

StartChar: Gcaron
Encoding: 486 486 73
Width: 806
GlyphClass: 1
Flags: W
LayerCount: 2
Fore
SplineSet
339 772 m 1,0,-1
 470 772 l 1,1,-1
 598 924 l 1,2,-1
 598 953 l 1,3,-1
 526 953 l 1,4,-1
 368 851 l 1,5,-1
 450 852 l 1,6,-1
 292 953 l 1,7,-1
 212 953 l 1,8,-1
 212 924 l 1,9,-1
 339 772 l 1,0,-1
711 242 m 2,10,-1
 711 100 l 1,11,12
 696 82 696 82 667.5 61.5 c 128,-1,13
 639 41 639 41 599 23 c 128,-1,14
 559 5 559 5 510.5 -6 c 128,-1,15
 462 -17 462 -17 408 -17 c 0,16,17
 325 -17 325 -17 258 7.5 c 128,-1,18
 191 32 191 32 143 80 c 128,-1,19
 95 128 95 128 69 197 c 128,-1,20
 43 266 43 266 43 355 c 0,21,22
 43 443 43 443 69.5 512 c 128,-1,23
 96 581 96 581 145 629.5 c 128,-1,24
 194 678 194 678 258.5 703 c 128,-1,25
 323 728 323 728 400 728 c 0,26,27
 473 728 473 728 522 702 c 128,-1,28
 571 676 571 676 600.5 629.5 c 128,-1,29
 630 583 630 583 644 520 c 1,30,-1
 600 551 l 1,31,-1
 617 715 l 1,32,-1
 702 715 l 1,33,-1
 702 484 l 1,34,-1
 606 484 l 1,35,36
 591 531 591 531 566 566.5 c 128,-1,37
 541 602 541 602 505 622 c 128,-1,38
 469 642 469 642 421 642 c 0,39,40
 375 642 375 642 341 623.5 c 128,-1,41
 307 605 307 605 283.5 569.5 c 128,-1,42
 260 534 260 534 248.5 480.5 c 128,-1,43
 237 427 237 427 237 355 c 0,44,45
 237 279 237 279 249 224.5 c 128,-1,46
 261 170 261 170 284.5 135.5 c 128,-1,47
 308 101 308 101 342 84.5 c 128,-1,48
 376 68 376 68 420 68 c 0,49,50
 454 68 454 68 477.5 75.5 c 128,-1,51
 501 83 501 83 517 93.5 c 128,-1,52
 533 104 533 104 542 112 c 1,53,-1
 542 242 l 2,54,55
 542 265 542 265 523 272.5 c 128,-1,56
 504 280 504 280 475 280 c 2,57,-1
 455 280 l 1,58,-1
 455 355 l 1,59,-1
 778 355 l 1,60,-1
 778 280 l 1,61,-1
 763 280 l 2,62,63
 739 280 739 280 725 272.5 c 128,-1,64
 711 265 711 265 711 242 c 2,10,-1
EndSplineSet
EndChar

StartChar: H
Encoding: 72 72 75
Width: 845
GlyphClass: 2
Flags: W
AnchorPoint: "Anchor-1" 423 0 basechar 0
AnchorPoint: "Anchor-0" 423 741 basechar 0
LayerCount: 2
Fore
SplineSet
197 406 m 1,0,-1
 620 406 l 1,1,-1
 620 325 l 1,2,-1
 197 325 l 1,3,-1
 197 406 l 1,0,-1
38 0 m 1,4,-1
 38 75 l 1,5,-1
 49 75 l 2,6,7
 76 75 76 75 93.5 82 c 128,-1,8
 111 89 111 89 111 111 c 2,9,-1
 111 599 l 2,10,11
 111 621 111 621 93.5 628 c 128,-1,12
 76 635 76 635 49 635 c 2,13,-1
 38 635 l 1,14,-1
 38 710 l 1,15,-1
 366 710 l 1,16,-1
 366 635 l 1,17,-1
 358 635 l 2,18,19
 348 635 348 635 337 634.5 c 128,-1,20
 326 634 326 634 317 632.5 c 128,-1,21
 308 631 308 631 302 629.5 c 128,-1,22
 296 628 296 628 296 625 c 2,23,-1
 296 85 l 2,24,25
 296 82 296 82 302 80.5 c 128,-1,26
 308 79 308 79 317 77.5 c 128,-1,27
 326 76 326 76 337 75.5 c 128,-1,28
 348 75 348 75 358 75 c 2,29,-1
 366 75 l 1,30,-1
 366 0 l 1,31,-1
 38 0 l 1,4,-1
479 0 m 1,32,-1
 479 75 l 1,33,-1
 487 75 l 2,34,35
 497 75 497 75 508 75.5 c 128,-1,36
 519 76 519 76 528 77.5 c 128,-1,37
 537 79 537 79 542.5 80.5 c 128,-1,38
 548 82 548 82 548 85 c 2,39,-1
 548 625 l 2,40,41
 548 628 548 628 542.5 629.5 c 128,-1,42
 537 631 537 631 528 632.5 c 128,-1,43
 519 634 519 634 508 634.5 c 128,-1,44
 497 635 497 635 487 635 c 2,45,-1
 479 635 l 1,46,-1
 479 710 l 1,47,-1
 806 710 l 1,48,-1
 806 635 l 1,49,-1
 796 635 l 2,50,51
 769 635 769 635 751.5 628 c 128,-1,52
 734 621 734 621 734 599 c 2,53,-1
 734 111 l 2,54,55
 734 89 734 89 751.5 82 c 128,-1,56
 769 75 769 75 796 75 c 2,57,-1
 806 75 l 1,58,-1
 806 0 l 1,59,-1
 479 0 l 1,32,-1
EndSplineSet
EndChar

StartChar: I
Encoding: 73 73 79
Width: 416
GlyphClass: 2
Flags: W
AnchorPoint: "Anchor-2" 274 0 basechar 0
AnchorPoint: "Anchor-1" 209 0 basechar 0
AnchorPoint: "Anchor-0" 209 741 basechar 0
LayerCount: 2
Fore
SplineSet
115 111 m 2,0,-1
 115 599 l 2,1,2
 115 621 115 621 97.5 628 c 128,-1,3
 80 635 80 635 54 635 c 2,4,-1
 38 635 l 1,5,-1
 38 710 l 1,6,-1
 378 710 l 1,7,-1
 378 635 l 1,8,-1
 363 635 l 2,9,10
 336 635 336 635 318.5 628 c 128,-1,11
 301 621 301 621 301 599 c 2,12,-1
 301 111 l 2,13,14
 301 89 301 89 318.5 82 c 128,-1,15
 336 75 336 75 363 75 c 2,16,-1
 378 75 l 1,17,-1
 378 0 l 1,18,-1
 38 0 l 1,19,-1
 38 75 l 1,20,-1
 54 75 l 2,21,22
 80 75 80 75 97.5 82 c 128,-1,23
 115 89 115 89 115 111 c 2,0,-1
EndSplineSet
EndChar

StartChar: Icaron
Encoding: 463 463 89
Width: 416
GlyphClass: 1
Flags: W
LayerCount: 2
Fore
SplineSet
142 772 m 1,0,-1
 273 772 l 1,1,-1
 401 924 l 1,2,-1
 401 953 l 1,3,-1
 329 953 l 1,4,-1
 171 851 l 1,5,-1
 254 852 l 1,6,-1
 95 953 l 1,7,-1
 15 953 l 1,8,-1
 15 924 l 1,9,-1
 142 772 l 1,0,-1
115 111 m 2,10,-1
 115 599 l 2,11,12
 115 621 115 621 97.5 628 c 128,-1,13
 80 635 80 635 54 635 c 2,14,-1
 38 635 l 1,15,-1
 38 710 l 1,16,-1
 378 710 l 1,17,-1
 378 635 l 1,18,-1
 363 635 l 2,19,20
 336 635 336 635 318.5 628 c 128,-1,21
 301 621 301 621 301 599 c 2,22,-1
 301 111 l 2,23,24
 301 89 301 89 318.5 82 c 128,-1,25
 336 75 336 75 363 75 c 2,26,-1
 378 75 l 1,27,-1
 378 0 l 1,28,-1
 38 0 l 1,29,-1
 38 75 l 1,30,-1
 54 75 l 2,31,32
 80 75 80 75 97.5 82 c 128,-1,33
 115 89 115 89 115 111 c 2,10,-1
EndSplineSet
EndChar

StartChar: Idblgrave
Encoding: 520 520 90
Width: 416
GlyphClass: 1
Flags: W
LayerCount: 2
Fore
SplineSet
340 888 m 2,0,-1
 368 796 l 1,1,-1
 368 765 l 1,2,-1
 314 765 l 1,3,-1
 250 816 l 2,4,5
 219 842 219 842 202.5 863 c 128,-1,6
 186 884 186 884 186 912 c 0,7,8
 186 938 186 938 203.5 955.5 c 128,-1,9
 221 973 221 973 255 973 c 0,10,11
 279 973 279 973 296 963 c 128,-1,12
 313 953 313 953 323.5 934 c 128,-1,13
 334 915 334 915 340 888 c 2,0,-1
131 888 m 2,14,-1
 157 796 l 1,15,-1
 157 765 l 1,16,-1
 104 765 l 1,17,-1
 39 816 l 2,18,19
 9 842 9 842 -8 863 c 128,-1,20
 -25 884 -25 884 -25 912 c 0,21,22
 -25 938 -25 938 -7 955.5 c 128,-1,23
 11 973 11 973 45 973 c 0,24,25
 69 973 69 973 86 963 c 128,-1,26
 103 953 103 953 114 934 c 128,-1,27
 125 915 125 915 131 888 c 2,14,-1
115 111 m 2,28,-1
 115 599 l 2,29,30
 115 621 115 621 97.5 628 c 128,-1,31
 80 635 80 635 54 635 c 2,32,-1
 38 635 l 1,33,-1
 38 710 l 1,34,-1
 378 710 l 1,35,-1
 378 635 l 1,36,-1
 362 635 l 2,37,38
 336 635 336 635 318.5 628 c 128,-1,39
 301 621 301 621 301 599 c 2,40,-1
 301 111 l 2,41,42
 301 89 301 89 318.5 82 c 128,-1,43
 336 75 336 75 362 75 c 2,44,-1
 378 75 l 1,45,-1
 378 0 l 1,46,-1
 38 0 l 1,47,-1
 38 75 l 1,48,-1
 54 75 l 2,49,50
 80 75 80 75 97.5 82 c 128,-1,51
 115 89 115 89 115 111 c 2,28,-1
EndSplineSet
EndChar

StartChar: Iinvertedbreve
Encoding: 522 522 91
Width: 416
GlyphClass: 1
Flags: W
LayerCount: 2
Fore
SplineSet
208 941 m 256,0,1
 151 941 151 941 111 922.5 c 128,-1,2
 71 904 71 904 50 864.5 c 128,-1,3
 29 825 29 825 27 762 c 1,4,-1
 114 762 l 1,5,6
 116 790 116 790 125 805 c 128,-1,7
 134 820 134 820 153.5 826 c 128,-1,8
 173 832 173 832 206 832 c 0,9,10
 238 832 238 832 257.5 826 c 128,-1,11
 277 820 277 820 286 805 c 128,-1,12
 295 790 295 790 298 762 c 1,13,-1
 390 762 l 1,14,15
 388 825 388 825 366.5 864.5 c 128,-1,16
 345 904 345 904 305 922.5 c 128,-1,17
 265 941 265 941 208 941 c 256,0,1
115 111 m 2,18,-1
 115 599 l 2,19,20
 115 621 115 621 97.5 628 c 128,-1,21
 80 635 80 635 54 635 c 2,22,-1
 38 635 l 1,23,-1
 38 710 l 1,24,-1
 378 710 l 1,25,-1
 378 635 l 1,26,-1
 362 635 l 2,27,28
 336 635 336 635 318.5 628 c 128,-1,29
 301 621 301 621 301 599 c 2,30,-1
 301 111 l 2,31,32
 301 89 301 89 318.5 82 c 128,-1,33
 336 75 336 75 362 75 c 2,34,-1
 378 75 l 1,35,-1
 378 0 l 1,36,-1
 38 0 l 1,37,-1
 38 75 l 1,38,-1
 54 75 l 2,39,40
 80 75 80 75 97.5 82 c 128,-1,41
 115 89 115 89 115 111 c 2,18,-1
EndSplineSet
EndChar

StartChar: J
Encoding: 74 74 94
Width: 653
GlyphClass: 2
Flags: W
AnchorPoint: "Anchor-0" 439 741 basechar 0
LayerCount: 2
Fore
SplineSet
266 710 m 1,0,-1
 618 710 l 1,1,-1
 618 635 l 1,2,-1
 603 635 l 2,3,4
 576 635 576 635 559 628 c 128,-1,5
 542 621 542 621 542 599 c 2,6,-1
 542 234 l 2,7,8
 542 164 542 164 522 116 c 128,-1,9
 502 68 502 68 465.5 38.5 c 128,-1,10
 429 9 429 9 378 -4 c 128,-1,11
 327 -17 327 -17 265 -17 c 0,12,13
 206 -17 206 -17 160 -5.5 c 128,-1,14
 114 6 114 6 82 23 c 128,-1,15
 50 40 50 40 32 55 c 1,16,-1
 32 232 l 1,17,-1
 177 232 l 1,18,-1
 177 61 l 1,19,20
 159 66 159 66 145.5 76.5 c 128,-1,21
 132 87 132 87 124.5 98 c 128,-1,22
 117 109 117 109 118 115.5 c 128,-1,23
 119 122 119 122 131 119 c 1,24,25
 142 108 142 108 159 95.5 c 128,-1,26
 176 83 176 83 198.5 75 c 128,-1,27
 221 67 221 67 250 67 c 0,28,29
 285 67 285 67 308.5 81 c 128,-1,30
 332 95 332 95 344.5 130 c 128,-1,31
 357 165 357 165 357 229 c 2,32,-1
 357 599 l 2,33,34
 357 614 357 614 348 621.5 c 128,-1,35
 339 629 339 629 323.5 632 c 128,-1,36
 308 635 308 635 290 635 c 2,37,-1
 266 635 l 1,38,-1
 266 710 l 1,0,-1
EndSplineSet
EndChar

StartChar: K
Encoding: 75 75 96
Width: 816
GlyphClass: 2
Flags: W
AnchorPoint: "Anchor-1" 420 0 basechar 0
AnchorPoint: "Anchor-0" 420 741 basechar 0
LayerCount: 2
Fore
SplineSet
38 0 m 1,0,-1
 38 75 l 1,1,-1
 49 75 l 2,2,3
 76 75 76 75 93.5 82 c 128,-1,4
 111 89 111 89 111 111 c 2,5,-1
 111 599 l 2,6,7
 111 621 111 621 93.5 628 c 128,-1,8
 76 635 76 635 49 635 c 2,9,-1
 38 635 l 1,10,-1
 38 710 l 1,11,-1
 375 710 l 1,12,-1
 375 635 l 1,13,-1
 364 635 l 2,14,15
 352 635 352 635 339.5 634.5 c 128,-1,16
 327 634 327 634 317.5 632.5 c 128,-1,17
 308 631 308 631 302 629.5 c 128,-1,18
 296 628 296 628 296 625 c 2,19,-1
 296 85 l 2,20,21
 296 82 296 82 301.5 80.5 c 128,-1,22
 307 79 307 79 315 77.5 c 128,-1,23
 323 76 323 76 333 75.5 c 128,-1,24
 343 75 343 75 352 75 c 2,25,-1
 360 75 l 1,26,-1
 360 0 l 1,27,-1
 38 0 l 1,0,-1
449 0 m 1,28,-1
 449 75 l 1,29,-1
 457 75 l 2,30,31
 472 75 472 75 485.5 76 c 128,-1,32
 499 77 499 77 508 79.5 c 128,-1,33
 517 82 517 82 517 85 c 2,34,-1
 327 342 l 1,35,-1
 327 368 l 1,36,-1
 574 625 l 2,37,38
 574 629 574 629 562 630.5 c 128,-1,39
 550 632 550 632 532.5 633.5 c 128,-1,40
 515 635 515 635 498 635 c 2,41,-1
 485 635 l 1,42,-1
 485 710 l 1,43,-1
 760 710 l 1,44,-1
 760 635 l 1,45,-1
 738 635 l 2,46,47
 722 635 722 635 709 632 c 128,-1,48
 696 629 696 629 684.5 622.5 c 128,-1,49
 673 616 673 616 661 603 c 2,50,-1
 420 353 l 1,51,-1
 467 450 l 1,52,-1
 724 102 l 2,53,54
 732 92 732 92 740.5 86 c 128,-1,55
 749 80 749 80 759.5 77.5 c 128,-1,56
 770 75 770 75 783 75 c 2,57,-1
 795 75 l 1,58,-1
 795 0 l 1,59,-1
 449 0 l 1,28,-1
EndSplineSet
EndChar

StartChar: L
Encoding: 76 76 98
Width: 667
GlyphClass: 2
Flags: W
AnchorPoint: "Anchor-2" 507 710 basechar 0
AnchorPoint: "Anchor-1" 409 0 basechar 0
AnchorPoint: "Anchor-0" 409 741 basechar 0
LayerCount: 2
Fore
SplineSet
380 710 m 1,0,-1
 38 710 l 1,1,-1
 38 635 l 1,2,-1
 49 635 l 2,3,4
 76 635 76 635 93.5 628 c 128,-1,5
 111 621 111 621 111 599 c 2,6,-1
 111 111 l 2,7,8
 111 89 111 89 93.5 82 c 128,-1,9
 76 75 76 75 49 75 c 2,10,-1
 38 75 l 1,11,-1
 38 0 l 1,12,-1
 630 0 l 1,13,-1
 630 250 l 1,14,-1
 539 250 l 1,15,-1
 526 124 l 2,16,17
 525 106 525 106 512.5 96.5 c 128,-1,18
 500 87 500 87 475 83.5 c 128,-1,19
 450 80 450 80 410 80 c 2,20,-1
 296 80 l 1,21,-1
 296 599 l 2,22,23
 296 621 296 621 315 628 c 128,-1,24
 334 635 334 635 364 635 c 2,25,-1
 380 635 l 1,26,-1
 380 710 l 1,0,-1
EndSplineSet
EndChar

StartChar: M
Encoding: 77 77 104
Width: 996
GlyphClass: 2
Flags: W
AnchorPoint: "Anchor-1" 486 0 basechar 0
LayerCount: 2
Fore
SplineSet
39 0 m 1,0,-1
 39 75 l 1,1,-1
 49 75 l 2,2,3
 68 75 68 75 81.5 78 c 128,-1,4
 95 81 95 81 103 89 c 128,-1,5
 111 97 111 97 111 111 c 2,6,-1
 111 599 l 2,7,8
 111 614 111 614 103 621.5 c 128,-1,9
 95 629 95 629 81 632 c 128,-1,10
 67 635 67 635 49 635 c 2,11,-1
 39 635 l 1,12,-1
 39 710 l 1,13,-1
 370 710 l 1,14,-1
 522 186 l 1,15,-1
 487 237 l 1,16,-1
 634 710 l 1,17,-1
 958 710 l 1,18,-1
 958 635 l 1,19,-1
 947 635 l 2,20,21
 920 635 920 635 902.5 628 c 128,-1,22
 885 621 885 621 885 599 c 2,23,-1
 885 111 l 2,24,25
 885 89 885 89 902.5 82 c 128,-1,26
 920 75 920 75 947 75 c 2,27,-1
 958 75 l 1,28,-1
 958 0 l 1,29,-1
 632 0 l 1,30,-1
 632 75 l 1,31,-1
 641 75 l 2,32,33
 653 75 653 75 666.5 76 c 128,-1,34
 680 77 680 77 690 79.5 c 128,-1,35
 700 82 700 82 700 85 c 2,36,-1
 700 687 l 1,37,-1
 712 688 l 1,38,-1
 496 -4 l 1,39,-1
 401 -4 l 1,40,-1
 185 688 l 1,41,-1
 198 691 l 1,42,-1
 198 85 l 2,43,44
 198 82 198 82 207.5 79.5 c 128,-1,45
 217 77 217 77 230.5 76 c 128,-1,46
 244 75 244 75 254 75 c 2,47,-1
 261 75 l 1,48,-1
 261 0 l 1,49,-1
 39 0 l 1,0,-1
EndSplineSet
EndChar

StartChar: N
Encoding: 78 78 106
Width: 802
GlyphClass: 2
Flags: W
AnchorPoint: "Anchor-1" 410 0 basechar 0
AnchorPoint: "Anchor-0" 410 741 basechar 0
LayerCount: 2
Fore
SplineSet
39 0 m 1,0,-1
 39 75 l 1,1,-1
 49 75 l 2,2,3
 68 75 68 75 81.5 78.5 c 128,-1,4
 95 82 95 82 103 91 c 128,-1,5
 111 100 111 100 111 114 c 2,6,-1
 111 599 l 2,7,8
 111 614 111 614 103 621.5 c 128,-1,9
 95 629 95 629 81 632 c 128,-1,10
 67 635 67 635 49 635 c 2,11,-1
 39 635 l 1,12,-1
 39 710 l 1,13,-1
 349 710 l 1,14,-1
 630 150 l 1,15,-1
 609 157 l 1,16,-1
 609 622 l 2,17,18
 609 626 609 626 599 628.5 c 128,-1,19
 589 631 589 631 574 633 c 128,-1,20
 559 635 559 635 545 635 c 2,21,-1
 532 635 l 1,22,-1
 532 710 l 1,23,-1
 767 710 l 1,24,-1
 767 635 l 1,25,-1
 757 635 l 2,26,27
 740 635 740 635 725.5 631.5 c 128,-1,28
 711 628 711 628 703 621 c 128,-1,29
 695 614 695 614 695 599 c 2,30,-1
 695 0 l 1,31,-1
 510 0 l 1,32,-1
 172 668 l 1,33,-1
 198 660 l 1,34,-1
 198 88 l 2,35,36
 198 85 198 85 208 82 c 128,-1,37
 218 79 218 79 233 77 c 128,-1,38
 248 75 248 75 262 75 c 2,39,-1
 275 75 l 1,40,-1
 275 0 l 1,41,-1
 39 0 l 1,0,-1
EndSplineSet
EndChar

StartChar: Ncaron
Encoding: 327 327 110
Width: 802
GlyphClass: 1
Flags: W
LayerCount: 2
Fore
SplineSet
346 772 m 1,0,-1
 477 772 l 1,1,-1
 605 924 l 1,2,-1
 605 953 l 1,3,-1
 533 953 l 1,4,-1
 375 851 l 1,5,-1
 458 852 l 1,6,-1
 299 953 l 1,7,-1
 219 953 l 1,8,-1
 219 924 l 1,9,-1
 346 772 l 1,0,-1
39 0 m 1,10,-1
 39 75 l 1,11,-1
 49 75 l 2,12,13
 68 75 68 75 81.5 78.5 c 128,-1,14
 95 82 95 82 103 91 c 128,-1,15
 111 100 111 100 111 114 c 2,16,-1
 111 599 l 2,17,18
 111 614 111 614 103 621.5 c 128,-1,19
 95 629 95 629 81 632 c 128,-1,20
 67 635 67 635 49 635 c 2,21,-1
 39 635 l 1,22,-1
 39 710 l 1,23,-1
 349 710 l 1,24,-1
 630 150 l 1,25,-1
 609 157 l 1,26,-1
 609 622 l 2,27,28
 609 626 609 626 599 628.5 c 128,-1,29
 589 631 589 631 574 633 c 128,-1,30
 559 635 559 635 545 635 c 2,31,-1
 532 635 l 1,32,-1
 532 710 l 1,33,-1
 767 710 l 1,34,-1
 767 635 l 1,35,-1
 757 635 l 2,36,37
 740 635 740 635 725.5 631.5 c 128,-1,38
 711 628 711 628 703 621 c 128,-1,39
 695 614 695 614 695 599 c 2,40,-1
 695 0 l 1,41,-1
 510 0 l 1,42,-1
 172 668 l 1,43,-1
 198 660 l 1,44,-1
 198 88 l 2,45,46
 198 85 198 85 208 82 c 128,-1,47
 218 79 218 79 233 77 c 128,-1,48
 248 75 248 75 262 75 c 2,49,-1
 275 75 l 1,50,-1
 275 0 l 1,51,-1
 39 0 l 1,10,-1
EndSplineSet
EndChar

StartChar: O
Encoding: 79 79 114
Width: 822
GlyphClass: 2
Flags: W
AnchorPoint: "Anchor-2" 452 0 basechar 0
AnchorPoint: "Anchor-1" 411 0 basechar 0
AnchorPoint: "Anchor-0" 411 741 basechar 0
LayerCount: 2
Fore
SplineSet
411 -17 m 256,0,1
 329 -17 329 -17 261.5 7.5 c 128,-1,2
 194 32 194 32 145 80 c 128,-1,3
 96 128 96 128 69.5 197.5 c 128,-1,4
 43 267 43 267 43 355 c 256,5,6
 43 443 43 443 69.5 512.5 c 128,-1,7
 96 582 96 582 145 629.5 c 128,-1,8
 194 677 194 677 261.5 702.5 c 128,-1,9
 329 728 329 728 411 728 c 256,10,11
 493 728 493 728 560.5 702.5 c 128,-1,12
 628 677 628 677 677 629.5 c 128,-1,13
 726 582 726 582 752.5 512.5 c 128,-1,14
 779 443 779 443 779 355 c 256,15,16
 779 267 779 267 752.5 197.5 c 128,-1,17
 726 128 726 128 677 80 c 128,-1,18
 628 32 628 32 560.5 7.5 c 128,-1,19
 493 -17 493 -17 411 -17 c 256,0,1
411 68 m 256,20,21
 453 68 453 68 485.5 85 c 128,-1,22
 518 102 518 102 540 137.5 c 128,-1,23
 562 173 562 173 573.5 227 c 128,-1,24
 585 281 585 281 585 355 c 256,25,26
 585 429 585 429 573.5 483 c 128,-1,27
 562 537 562 537 540 572.5 c 128,-1,28
 518 608 518 608 485.5 625 c 128,-1,29
 453 642 453 642 411 642 c 256,30,31
 369 642 369 642 336.5 625 c 128,-1,32
 304 608 304 608 282 572.5 c 128,-1,33
 260 537 260 537 248.5 483 c 128,-1,34
 237 429 237 429 237 355 c 256,35,36
 237 281 237 281 248.5 227 c 128,-1,37
 260 173 260 173 282 137.5 c 128,-1,38
 304 102 304 102 336.5 85 c 128,-1,39
 369 68 369 68 411 68 c 256,20,21
EndSplineSet
EndChar

StartChar: Ohorn
Encoding: 416 416 123
Width: 874
GlyphClass: 2
Flags: W
AnchorPoint: "Anchor-1" 433 -35 basechar 0
AnchorPoint: "Anchor-0" 433 742 basechar 0
LayerCount: 2
Fore
SplineSet
411 68 m 256,0,1
 453 68 453 68 485.5 85 c 128,-1,2
 518 102 518 102 540 137.5 c 128,-1,3
 562 173 562 173 573.5 227 c 128,-1,4
 585 281 585 281 585 355 c 256,5,6
 585 429 585 429 573.5 483 c 128,-1,7
 562 537 562 537 540 572.5 c 128,-1,8
 518 608 518 608 485.5 625 c 128,-1,9
 453 642 453 642 411 642 c 256,10,11
 369 642 369 642 336.5 625 c 128,-1,12
 304 608 304 608 282 572.5 c 128,-1,13
 260 537 260 537 248.5 483 c 128,-1,14
 237 429 237 429 237 355 c 256,15,16
 237 281 237 281 248.5 227 c 128,-1,17
 260 173 260 173 282 137.5 c 128,-1,18
 304 102 304 102 336.5 85 c 128,-1,19
 369 68 369 68 411 68 c 256,0,1
631 601 m 1,20,-1
 582 649 l 1,21,22
 626 629 626 629 662 601.5 c 128,-1,23
 698 574 698 574 724 538 c 128,-1,24
 750 502 750 502 764.5 456 c 128,-1,25
 779 410 779 410 779 352 c 0,26,27
 779 266 779 266 752 197 c 128,-1,28
 725 128 725 128 676.5 80 c 128,-1,29
 628 32 628 32 560.5 7.5 c 128,-1,30
 493 -17 493 -17 411 -17 c 256,31,32
 329 -17 329 -17 261.5 7.5 c 128,-1,33
 194 32 194 32 145 80 c 128,-1,34
 96 128 96 128 69.5 197.5 c 128,-1,35
 43 267 43 267 43 355 c 256,36,37
 43 443 43 443 69.5 512.5 c 128,-1,38
 96 582 96 582 145 629.5 c 128,-1,39
 194 677 194 677 261.5 702.5 c 128,-1,40
 329 728 329 728 411 728 c 0,41,42
 448 728 448 728 478 723.5 c 128,-1,43
 508 719 508 719 533.5 713.5 c 128,-1,44
 559 708 559 708 581 703.5 c 128,-1,45
 603 699 603 699 623 699 c 0,46,47
 654 699 654 699 674.5 711.5 c 128,-1,48
 695 724 695 724 708 748 c 128,-1,49
 721 772 721 772 728 806.5 c 128,-1,50
 735 841 735 841 738 885 c 1,51,-1
 872 885 l 1,52,53
 870 814 870 814 857 763.5 c 128,-1,54
 844 713 844 713 821 679.5 c 128,-1,55
 798 646 798 646 766.5 630.5 c 128,-1,56
 735 615 735 615 696 615 c 0,57,58
 681 615 681 615 663 618 c 128,-1,59
 645 621 645 621 626 626.5 c 128,-1,60
 607 632 607 632 590 638.5 c 128,-1,61
 573 645 573 645 560 651 c 1,62,-1
 631 640 l 1,63,-1
 631 601 l 1,20,-1
EndSplineSet
EndChar

StartChar: Ocaron
Encoding: 465 465 124
Width: 819
GlyphClass: 1
Flags: W
LayerCount: 2
Fore
SplineSet
344 772 m 1,0,-1
 475 772 l 1,1,-1
 603 924 l 1,2,-1
 603 953 l 1,3,-1
 530 953 l 1,4,-1
 373 851 l 1,5,-1
 455 852 l 1,6,-1
 296 953 l 1,7,-1
 217 953 l 1,8,-1
 217 924 l 1,9,-1
 344 772 l 1,0,-1
411 -17 m 256,10,11
 329 -17 329 -17 261.5 7.5 c 128,-1,12
 194 32 194 32 145 80 c 128,-1,13
 96 128 96 128 69.5 197.5 c 128,-1,14
 43 267 43 267 43 355 c 256,15,16
 43 443 43 443 69.5 512.5 c 128,-1,17
 96 582 96 582 145 629.5 c 128,-1,18
 194 677 194 677 261.5 702.5 c 128,-1,19
 329 728 329 728 411 728 c 256,20,21
 493 728 493 728 560 702.5 c 128,-1,22
 627 677 627 677 676 629.5 c 128,-1,23
 725 582 725 582 752 512.5 c 128,-1,24
 779 443 779 443 779 355 c 256,25,26
 779 267 779 267 752 197.5 c 128,-1,27
 725 128 725 128 676 80 c 128,-1,28
 627 32 627 32 560 7.5 c 128,-1,29
 493 -17 493 -17 411 -17 c 256,10,11
411 68 m 256,30,31
 453 68 453 68 485 85 c 128,-1,32
 517 102 517 102 539.5 137.5 c 128,-1,33
 562 173 562 173 573.5 227 c 128,-1,34
 585 281 585 281 585 355 c 256,35,36
 585 429 585 429 573.5 483 c 128,-1,37
 562 537 562 537 539.5 572.5 c 128,-1,38
 517 608 517 608 485 625 c 128,-1,39
 453 642 453 642 411 642 c 256,40,41
 369 642 369 642 336.5 625 c 128,-1,42
 304 608 304 608 282 572.5 c 128,-1,43
 260 537 260 537 248.5 483 c 128,-1,44
 237 429 237 429 237 355 c 256,45,46
 237 281 237 281 248.5 227 c 128,-1,47
 260 173 260 173 282 137.5 c 128,-1,48
 304 102 304 102 336.5 85 c 128,-1,49
 369 68 369 68 411 68 c 256,30,31
EndSplineSet
EndChar

StartChar: Oogonek
Encoding: 490 490 125
Width: 822
GlyphClass: 1
Flags: W
LayerCount: 2
Fore
SplineSet
411 68 m 256,0,1
 453 68 453 68 485.5 85 c 128,-1,2
 518 102 518 102 540 137.5 c 128,-1,3
 562 173 562 173 573.5 227 c 128,-1,4
 585 281 585 281 585 355 c 256,5,6
 585 429 585 429 573.5 483 c 128,-1,7
 562 537 562 537 540 572.5 c 128,-1,8
 518 608 518 608 485.5 625 c 128,-1,9
 453 642 453 642 411 642 c 256,10,11
 369 642 369 642 336.5 625 c 128,-1,12
 304 608 304 608 282 572.5 c 128,-1,13
 260 537 260 537 248.5 483 c 128,-1,14
 237 429 237 429 237 355 c 256,15,16
 237 281 237 281 248.5 227 c 128,-1,17
 260 173 260 173 282 137.5 c 128,-1,18
 304 102 304 102 336.5 85 c 128,-1,19
 369 68 369 68 411 68 c 256,0,1
676 79 m 0,20,21
 650 53 650 53 620 32.5 c 128,-1,22
 590 12 590 12 562 -6.5 c 128,-1,23
 534 -25 534 -25 510.5 -42.5 c 128,-1,24
 487 -60 487 -60 473.5 -80 c 128,-1,25
 460 -100 460 -100 460 -125 c 0,26,27
 460 -148 460 -148 472 -159 c 128,-1,28
 484 -170 484 -170 506 -170 c 0,29,30
 529 -170 529 -170 546 -157.5 c 128,-1,31
 563 -145 563 -145 573 -134 c 1,32,-1
 615 -179 l 1,33,34
 598 -199 598 -199 576.5 -214.5 c 128,-1,35
 555 -230 555 -230 526 -238.5 c 128,-1,36
 497 -247 497 -247 456 -247 c 0,37,38
 414 -247 414 -247 381.5 -236.5 c 128,-1,39
 349 -226 349 -226 331 -204 c 128,-1,40
 313 -182 313 -182 313 -148 c 0,41,42
 313 -120 313 -120 327 -97.5 c 128,-1,43
 341 -75 341 -75 371.5 -55.5 c 128,-1,44
 402 -36 402 -36 449.5 -15 c 128,-1,45
 497 6 497 6 564 32 c 1,46,-1
 543 1 l 1,47,48
 523 -5 523 -5 501.5 -9 c 128,-1,49
 480 -13 480 -13 457.5 -15 c 128,-1,50
 435 -17 435 -17 411 -17 c 0,51,52
 329 -17 329 -17 261.5 7.5 c 128,-1,53
 194 32 194 32 145 80 c 128,-1,54
 96 128 96 128 69.5 197.5 c 128,-1,55
 43 267 43 267 43 355 c 256,56,57
 43 443 43 443 69.5 512.5 c 128,-1,58
 96 582 96 582 145 629.5 c 128,-1,59
 194 677 194 677 261.5 702.5 c 128,-1,60
 329 728 329 728 411 728 c 256,61,62
 493 728 493 728 560.5 702.5 c 128,-1,63
 628 677 628 677 677 629.5 c 128,-1,64
 726 582 726 582 752.5 512.5 c 128,-1,65
 779 443 779 443 779 355 c 0,66,67
 779 297 779 297 767 246.5 c 128,-1,68
 755 196 755 196 732 154 c 128,-1,69
 709 112 709 112 676 79 c 0,20,21
EndSplineSet
EndChar

StartChar: Odblgrave
Encoding: 524 524 126
Width: 822
GlyphClass: 1
Flags: W
LayerCount: 2
Fore
SplineSet
547 888 m 2,0,-1
 574 796 l 1,1,-1
 574 765 l 1,2,-1
 520 765 l 1,3,-1
 456 816 l 2,4,5
 426 842 426 842 409 863 c 128,-1,6
 392 884 392 884 392 912 c 0,7,8
 392 938 392 938 410 955.5 c 128,-1,9
 428 973 428 973 461 973 c 0,10,11
 486 973 486 973 502.5 963 c 128,-1,12
 519 953 519 953 529.5 934 c 128,-1,13
 540 915 540 915 547 888 c 2,0,-1
337 888 m 2,14,-1
 363 796 l 1,15,-1
 363 765 l 1,16,-1
 310 765 l 1,17,-1
 246 816 l 2,18,19
 215 842 215 842 198.5 863 c 128,-1,20
 182 884 182 884 182 912 c 0,21,22
 182 938 182 938 199.5 955.5 c 128,-1,23
 217 973 217 973 251 973 c 0,24,25
 276 973 276 973 292.5 963 c 128,-1,26
 309 953 309 953 320 934 c 128,-1,27
 331 915 331 915 337 888 c 2,14,-1
411 -17 m 256,28,29
 329 -17 329 -17 261.5 7.5 c 128,-1,30
 194 32 194 32 145 80 c 128,-1,31
 96 128 96 128 69.5 197.5 c 128,-1,32
 43 267 43 267 43 355 c 256,33,34
 43 443 43 443 69.5 512.5 c 128,-1,35
 96 582 96 582 145 629.5 c 128,-1,36
 194 677 194 677 261.5 702.5 c 128,-1,37
 329 728 329 728 411 728 c 256,38,39
 493 728 493 728 560.5 702.5 c 128,-1,40
 628 677 628 677 677 629.5 c 128,-1,41
 726 582 726 582 752.5 512.5 c 128,-1,42
 779 443 779 443 779 355 c 256,43,44
 779 267 779 267 752.5 197.5 c 128,-1,45
 726 128 726 128 677 80 c 128,-1,46
 628 32 628 32 560.5 7.5 c 128,-1,47
 493 -17 493 -17 411 -17 c 256,28,29
411 68 m 256,48,49
 453 68 453 68 485.5 85 c 128,-1,50
 518 102 518 102 540 137.5 c 128,-1,51
 562 173 562 173 573.5 227 c 128,-1,52
 585 281 585 281 585 355 c 256,53,54
 585 429 585 429 573.5 483 c 128,-1,55
 562 537 562 537 540 572.5 c 128,-1,56
 518 608 518 608 485.5 625 c 128,-1,57
 453 642 453 642 411 642 c 256,58,59
 369 642 369 642 336.5 625 c 128,-1,60
 304 608 304 608 282 572.5 c 128,-1,61
 260 537 260 537 248.5 483 c 128,-1,62
 237 429 237 429 237 355 c 256,63,64
 237 281 237 281 248.5 227 c 128,-1,65
 260 173 260 173 282 137.5 c 128,-1,66
 304 102 304 102 336.5 85 c 128,-1,67
 369 68 369 68 411 68 c 256,48,49
EndSplineSet
EndChar

StartChar: Oinvertedbreve
Encoding: 526 526 127
Width: 822
GlyphClass: 1
Flags: W
LayerCount: 2
Fore
SplineSet
411 941 m 256,0,1
 354 941 354 941 314 922.5 c 128,-1,2
 274 904 274 904 252.5 864.5 c 128,-1,3
 231 825 231 825 230 762 c 1,4,-1
 316 762 l 1,5,6
 319 790 319 790 328 805 c 128,-1,7
 337 820 337 820 356.5 826 c 128,-1,8
 376 832 376 832 409 832 c 0,9,10
 441 832 441 832 460.5 826 c 128,-1,11
 480 820 480 820 489 805 c 128,-1,12
 498 790 498 790 501 762 c 1,13,-1
 593 762 l 1,14,15
 591 825 591 825 569.5 864.5 c 128,-1,16
 548 904 548 904 508 922.5 c 128,-1,17
 468 941 468 941 411 941 c 256,0,1
411 -17 m 256,18,19
 329 -17 329 -17 261.5 7.5 c 128,-1,20
 194 32 194 32 145 80 c 128,-1,21
 96 128 96 128 69.5 197.5 c 128,-1,22
 43 267 43 267 43 355 c 256,23,24
 43 443 43 443 69.5 512.5 c 128,-1,25
 96 582 96 582 145 629.5 c 128,-1,26
 194 677 194 677 261.5 702.5 c 128,-1,27
 329 728 329 728 411 728 c 256,28,29
 493 728 493 728 560.5 702.5 c 128,-1,30
 628 677 628 677 677 629.5 c 128,-1,31
 726 582 726 582 752.5 512.5 c 128,-1,32
 779 443 779 443 779 355 c 256,33,34
 779 267 779 267 752.5 197.5 c 128,-1,35
 726 128 726 128 677 80 c 128,-1,36
 628 32 628 32 560.5 7.5 c 128,-1,37
 493 -17 493 -17 411 -17 c 256,18,19
411 68 m 256,38,39
 453 68 453 68 485.5 85 c 128,-1,40
 518 102 518 102 540 137.5 c 128,-1,41
 562 173 562 173 573.5 227 c 128,-1,42
 585 281 585 281 585 355 c 256,43,44
 585 429 585 429 573.5 483 c 128,-1,45
 562 537 562 537 540 572.5 c 128,-1,46
 518 608 518 608 485.5 625 c 128,-1,47
 453 642 453 642 411 642 c 256,48,49
 369 642 369 642 336.5 625 c 128,-1,50
 304 608 304 608 282 572.5 c 128,-1,51
 260 537 260 537 248.5 483 c 128,-1,52
 237 429 237 429 237 355 c 256,53,54
 237 281 237 281 248.5 227 c 128,-1,55
 260 173 260 173 282 137.5 c 128,-1,56
 304 102 304 102 336.5 85 c 128,-1,57
 369 68 369 68 411 68 c 256,38,39
EndSplineSet
EndChar

StartChar: P
Encoding: 80 80 147
Width: 712
GlyphClass: 2
Flags: W
AnchorPoint: "Anchor-0" 319 741 basechar 0
LayerCount: 2
Fore
SplineSet
297 85 m 2,0,-1
 297 629 l 1,1,-1
 384 629 l 2,2,3
 421 629 421 629 447 614.5 c 128,-1,4
 473 600 473 600 486.5 570.5 c 128,-1,5
 500 541 500 541 500 494 c 256,6,7
 500 447 500 447 486 415.5 c 128,-1,8
 472 384 472 384 445.5 368.5 c 128,-1,9
 419 353 419 353 381 353 c 2,10,-1
 268 353 l 1,11,-1
 268 273 l 1,12,-1
 416 273 l 2,13,14
 497 273 497 273 557 299.5 c 128,-1,15
 617 326 617 326 650 376.5 c 128,-1,16
 683 427 683 427 683 497 c 0,17,18
 683 600 683 600 613.5 655 c 128,-1,19
 544 710 544 710 420 710 c 2,20,-1
 39 710 l 1,21,-1
 39 638 l 1,22,-1
 49 638 l 2,23,24
 76 638 76 638 93.5 631 c 128,-1,25
 111 624 111 624 111 602 c 2,26,-1
 111 108 l 2,27,28
 111 86 111 86 93.5 79 c 128,-1,29
 76 72 76 72 49 72 c 2,30,-1
 39 72 l 1,31,-1
 39 0 l 1,32,-1
 383 0 l 1,33,-1
 383 75 l 1,34,-1
 359 75 l 2,35,36
 347 75 347 75 336 75.5 c 128,-1,37
 325 76 325 76 316 77.5 c 128,-1,38
 307 79 307 79 302 80.5 c 128,-1,39
 297 82 297 82 297 85 c 2,0,-1
EndSplineSet
EndChar

StartChar: Q
Encoding: 81 81 148
Width: 822
GlyphClass: 1
Flags: W
LayerCount: 2
Fore
SplineSet
362 0 m 1,0,-1
 459 10 l 1,1,2
 459 -35 459 -35 473 -62 c 128,-1,3
 487 -89 487 -89 518 -100.5 c 128,-1,4
 549 -112 549 -112 597 -112 c 0,5,6
 632 -112 632 -112 662 -106.5 c 128,-1,7
 692 -101 692 -101 718 -93.5 c 128,-1,8
 744 -86 744 -86 764 -79 c 1,9,-1
 764 -219 l 1,10,11
 735 -229 735 -229 694 -235 c 128,-1,12
 653 -241 653 -241 611 -241 c 0,13,14
 529 -241 529 -241 473 -216.5 c 128,-1,15
 417 -192 417 -192 389 -139 c 128,-1,16
 361 -86 361 -86 362 0 c 1,0,-1
411 -17 m 256,17,18
 329 -17 329 -17 261.5 7.5 c 128,-1,19
 194 32 194 32 145 80 c 128,-1,20
 96 128 96 128 69.5 197.5 c 128,-1,21
 43 267 43 267 43 355 c 256,22,23
 43 443 43 443 69.5 512.5 c 128,-1,24
 96 582 96 582 145 629.5 c 128,-1,25
 194 677 194 677 261.5 702.5 c 128,-1,26
 329 728 329 728 411 728 c 256,27,28
 493 728 493 728 560.5 702.5 c 128,-1,29
 628 677 628 677 677 629.5 c 128,-1,30
 726 582 726 582 752.5 512.5 c 128,-1,31
 779 443 779 443 779 355 c 256,32,33
 779 267 779 267 752.5 197.5 c 128,-1,34
 726 128 726 128 677 80 c 128,-1,35
 628 32 628 32 560.5 7.5 c 128,-1,36
 493 -17 493 -17 411 -17 c 256,17,18
411 68 m 256,37,38
 453 68 453 68 485 85 c 128,-1,39
 517 102 517 102 539 137.5 c 128,-1,40
 561 173 561 173 573 227 c 128,-1,41
 585 281 585 281 585 355 c 256,42,43
 585 429 585 429 573.5 483 c 128,-1,44
 562 537 562 537 540 572.5 c 128,-1,45
 518 608 518 608 485.5 625 c 128,-1,46
 453 642 453 642 411 642 c 256,47,48
 369 642 369 642 336.5 625 c 128,-1,49
 304 608 304 608 282 572.5 c 128,-1,50
 260 537 260 537 248.5 483 c 128,-1,51
 237 429 237 429 237 355 c 256,52,53
 237 281 237 281 248.5 227 c 128,-1,54
 260 173 260 173 282 137.5 c 128,-1,55
 304 102 304 102 336.5 85 c 128,-1,56
 369 68 369 68 411 68 c 256,37,38
EndSplineSet
EndChar

StartChar: R
Encoding: 82 82 149
Width: 776
GlyphClass: 2
Flags: W
AnchorPoint: "Anchor-1" 434 0 basechar 0
AnchorPoint: "Anchor-0" 420 741 basechar 0
LayerCount: 2
Fore
SplineSet
378 320 m 1,0,-1
 527 0 l 1,1,-1
 750 0 l 1,2,-1
 750 75 l 1,3,-1
 741 75 l 2,4,5
 726 75 726 75 714 78.5 c 128,-1,6
 702 82 702 82 691.5 92 c 128,-1,7
 681 102 681 102 671 120 c 2,8,-1
 547 354 l 1,9,-1
 378 320 l 1,0,-1
296 85 m 2,10,-1
 296 632 l 1,11,-1
 392 632 l 2,12,13
 427 632 427 632 450.5 617.5 c 128,-1,14
 474 603 474 603 485.5 575 c 128,-1,15
 497 547 497 547 497 506 c 0,16,17
 497 463 497 463 485.5 431.5 c 128,-1,18
 474 400 474 400 449.5 383 c 128,-1,19
 425 366 425 366 386 366 c 2,20,-1
 272 366 l 1,21,-1
 272 289 l 1,22,-1
 426 289 l 2,23,24
 433 292 433 292 438 294.5 c 128,-1,25
 443 297 443 297 449 300 c 128,-1,26
 455 303 455 303 462 308 c 1,27,28
 535 317 535 317 585.5 343.5 c 128,-1,29
 636 370 636 370 662 413 c 128,-1,30
 688 456 688 456 688 513 c 0,31,32
 688 576 688 576 657 620 c 128,-1,33
 626 664 626 664 567 687 c 128,-1,34
 508 710 508 710 422 710 c 2,35,-1
 38 710 l 1,36,-1
 38 635 l 1,37,-1
 49 635 l 2,38,39
 76 635 76 635 93.5 628 c 128,-1,40
 111 621 111 621 111 599 c 2,41,-1
 111 111 l 2,42,43
 111 89 111 89 93.5 82 c 128,-1,44
 76 75 76 75 49 75 c 2,45,-1
 38 75 l 1,46,-1
 38 0 l 1,47,-1
 370 0 l 1,48,-1
 370 75 l 1,49,-1
 357 75 l 2,50,51
 346 75 346 75 335 75.5 c 128,-1,52
 324 76 324 76 315 77.5 c 128,-1,53
 306 79 306 79 301 80.5 c 128,-1,54
 296 82 296 82 296 85 c 2,10,-1
EndSplineSet
EndChar

StartChar: Rcaron
Encoding: 344 344 152
Width: 776
GlyphClass: 1
Flags: W
LayerCount: 2
Fore
SplineSet
310 772 m 1,0,-1
 441 772 l 1,1,-1
 568 924 l 1,2,-1
 568 953 l 1,3,-1
 496 953 l 1,4,-1
 339 851 l 1,5,-1
 421 852 l 1,6,-1
 262 953 l 1,7,-1
 182 953 l 1,8,-1
 182 924 l 1,9,-1
 310 772 l 1,0,-1
378 320 m 1,10,-1
 527 0 l 1,11,-1
 750 0 l 1,12,-1
 750 75 l 1,13,-1
 741 75 l 2,14,15
 726 75 726 75 714 78.5 c 128,-1,16
 702 82 702 82 691.5 92 c 128,-1,17
 681 102 681 102 671 120 c 2,18,-1
 547 354 l 1,19,-1
 378 320 l 1,10,-1
296 85 m 2,20,-1
 296 632 l 1,21,-1
 392 632 l 2,22,23
 427 632 427 632 450.5 617.5 c 128,-1,24
 474 603 474 603 485.5 575 c 128,-1,25
 497 547 497 547 497 506 c 0,26,27
 497 463 497 463 485.5 431.5 c 128,-1,28
 474 400 474 400 449.5 383 c 128,-1,29
 425 366 425 366 386 366 c 2,30,-1
 272 366 l 1,31,-1
 272 289 l 1,32,-1
 426 289 l 2,33,34
 433 292 433 292 438 294.5 c 128,-1,35
 443 297 443 297 449 300 c 128,-1,36
 455 303 455 303 462 308 c 1,37,38
 535 317 535 317 585.5 343.5 c 128,-1,39
 636 370 636 370 662 413 c 128,-1,40
 688 456 688 456 688 513 c 0,41,42
 688 576 688 576 657 620 c 128,-1,43
 626 664 626 664 567 687 c 128,-1,44
 508 710 508 710 422 710 c 2,45,-1
 38 710 l 1,46,-1
 38 635 l 1,47,-1
 49 635 l 2,48,49
 76 635 76 635 93.5 628 c 128,-1,50
 111 621 111 621 111 599 c 2,51,-1
 111 111 l 2,52,53
 111 89 111 89 93.5 82 c 128,-1,54
 76 75 76 75 49 75 c 2,55,-1
 38 75 l 1,56,-1
 38 0 l 1,57,-1
 370 0 l 1,58,-1
 370 75 l 1,59,-1
 357 75 l 2,60,61
 345 75 345 75 334.5 75.5 c 128,-1,62
 324 76 324 76 315 77.5 c 128,-1,63
 306 79 306 79 301 80.5 c 128,-1,64
 296 82 296 82 296 85 c 2,20,-1
EndSplineSet
EndChar

StartChar: Rdblgrave
Encoding: 528 528 153
Width: 776
GlyphClass: 1
Flags: W
LayerCount: 2
Fore
SplineSet
504 888 m 2,0,-1
 531 796 l 1,1,-1
 531 765 l 1,2,-1
 478 765 l 1,3,-1
 413 816 l 2,4,5
 383 842 383 842 366 863 c 128,-1,6
 349 884 349 884 349 912 c 0,7,8
 349 938 349 938 367 955.5 c 128,-1,9
 385 973 385 973 419 973 c 0,10,11
 443 973 443 973 460 963 c 128,-1,12
 477 953 477 953 487.5 934 c 128,-1,13
 498 915 498 915 504 888 c 2,0,-1
294 888 m 2,14,-1
 321 796 l 1,15,-1
 321 765 l 1,16,-1
 268 765 l 1,17,-1
 203 816 l 2,18,19
 173 842 173 842 156 863 c 128,-1,20
 139 884 139 884 139 912 c 0,21,22
 139 938 139 938 157 955.5 c 128,-1,23
 175 973 175 973 208 973 c 0,24,25
 233 973 233 973 249.5 963 c 128,-1,26
 266 953 266 953 277 934 c 128,-1,27
 288 915 288 915 294 888 c 2,14,-1
378 320 m 1,28,-1
 527 0 l 1,29,-1
 750 0 l 1,30,-1
 750 75 l 1,31,-1
 741 75 l 2,32,33
 726 75 726 75 714 78.5 c 128,-1,34
 702 82 702 82 691.5 92 c 128,-1,35
 681 102 681 102 671 120 c 2,36,-1
 547 354 l 1,37,-1
 378 320 l 1,28,-1
296 85 m 2,38,-1
 296 632 l 1,39,-1
 392 632 l 2,40,41
 427 632 427 632 450.5 617.5 c 128,-1,42
 474 603 474 603 485.5 575 c 128,-1,43
 497 547 497 547 497 506 c 0,44,45
 497 463 497 463 485.5 431.5 c 128,-1,46
 474 400 474 400 449.5 383 c 128,-1,47
 425 366 425 366 386 366 c 2,48,-1
 272 366 l 1,49,-1
 272 289 l 1,50,-1
 426 289 l 2,51,52
 433 292 433 292 438 294.5 c 128,-1,53
 443 297 443 297 449 300 c 128,-1,54
 455 303 455 303 462 308 c 1,55,56
 535 317 535 317 585.5 343.5 c 128,-1,57
 636 370 636 370 662 413 c 128,-1,58
 688 456 688 456 688 513 c 0,59,60
 688 576 688 576 657 620 c 128,-1,61
 626 664 626 664 567 687 c 128,-1,62
 508 710 508 710 422 710 c 2,63,-1
 38 710 l 1,64,-1
 38 635 l 1,65,-1
 49 635 l 2,66,67
 76 635 76 635 93.5 628 c 128,-1,68
 111 621 111 621 111 599 c 2,69,-1
 111 111 l 2,70,71
 111 89 111 89 93.5 82 c 128,-1,72
 76 75 76 75 49 75 c 2,73,-1
 38 75 l 1,74,-1
 38 0 l 1,75,-1
 370 0 l 1,76,-1
 370 75 l 1,77,-1
 357 75 l 2,78,79
 345 75 345 75 334.5 75.5 c 128,-1,80
 324 76 324 76 315 77.5 c 128,-1,81
 306 79 306 79 301 80.5 c 128,-1,82
 296 82 296 82 296 85 c 2,38,-1
EndSplineSet
EndChar

StartChar: Rinvertedbreve
Encoding: 530 530 154
Width: 776
GlyphClass: 1
Flags: W
LayerCount: 2
Fore
SplineSet
375 941 m 256,0,1
 318 941 318 941 278 922.5 c 128,-1,2
 238 904 238 904 217 864.5 c 128,-1,3
 196 825 196 825 194 762 c 1,4,-1
 281 762 l 1,5,6
 283 790 283 790 292.5 805 c 128,-1,7
 302 820 302 820 321 826 c 128,-1,8
 340 832 340 832 373 832 c 0,9,10
 405 832 405 832 424.5 826 c 128,-1,11
 444 820 444 820 453.5 805 c 128,-1,12
 463 790 463 790 465 762 c 1,13,-1
 557 762 l 1,14,15
 555 825 555 825 533.5 864.5 c 128,-1,16
 512 904 512 904 472 922.5 c 128,-1,17
 432 941 432 941 375 941 c 256,0,1
378 320 m 1,18,-1
 527 0 l 1,19,-1
 750 0 l 1,20,-1
 750 75 l 1,21,-1
 741 75 l 2,22,23
 726 75 726 75 714 78.5 c 128,-1,24
 702 82 702 82 691.5 92 c 128,-1,25
 681 102 681 102 671 120 c 2,26,-1
 547 354 l 1,27,-1
 378 320 l 1,18,-1
296 85 m 2,28,-1
 296 632 l 1,29,-1
 392 632 l 2,30,31
 427 632 427 632 450.5 617.5 c 128,-1,32
 474 603 474 603 485.5 575 c 128,-1,33
 497 547 497 547 497 506 c 0,34,35
 497 463 497 463 485.5 431.5 c 128,-1,36
 474 400 474 400 449.5 383 c 128,-1,37
 425 366 425 366 386 366 c 2,38,-1
 272 366 l 1,39,-1
 272 289 l 1,40,-1
 426 289 l 2,41,42
 433 292 433 292 438 294.5 c 128,-1,43
 443 297 443 297 449 300 c 128,-1,44
 455 303 455 303 462 308 c 1,45,46
 535 317 535 317 585.5 343.5 c 128,-1,47
 636 370 636 370 662 413 c 128,-1,48
 688 456 688 456 688 513 c 0,49,50
 688 576 688 576 657 620 c 128,-1,51
 626 664 626 664 567 687 c 128,-1,52
 508 710 508 710 422 710 c 2,53,-1
 38 710 l 1,54,-1
 38 635 l 1,55,-1
 49 635 l 2,56,57
 76 635 76 635 93.5 628 c 128,-1,58
 111 621 111 621 111 599 c 2,59,-1
 111 111 l 2,60,61
 111 89 111 89 93.5 82 c 128,-1,62
 76 75 76 75 49 75 c 2,63,-1
 38 75 l 1,64,-1
 38 0 l 1,65,-1
 370 0 l 1,66,-1
 370 75 l 1,67,-1
 357 75 l 2,68,69
 345 75 345 75 334.5 75.5 c 128,-1,70
 324 76 324 76 315 77.5 c 128,-1,71
 306 79 306 79 301 80.5 c 128,-1,72
 296 82 296 82 296 85 c 2,28,-1
EndSplineSet
EndChar

StartChar: S
Encoding: 83 83 157
Width: 661
GlyphClass: 2
Flags: W
AnchorPoint: "Anchor-1" 363 0 basechar 0
AnchorPoint: "Anchor-0" 363 741 basechar 0
LayerCount: 2
Fore
SplineSet
349 64 m 0,0,1
 390 64 390 64 416.5 73.5 c 128,-1,2
 443 83 443 83 456 104 c 128,-1,3
 469 125 469 125 469 158 c 0,4,5
 469 188 469 188 455 207.5 c 128,-1,6
 441 227 441 227 416 240 c 128,-1,7
 391 253 391 253 356 263.5 c 128,-1,8
 321 274 321 274 277 285 c 0,9,10
 234 297 234 297 194.5 312.5 c 128,-1,11
 155 328 155 328 124.5 353 c 128,-1,12
 94 378 94 378 76 417 c 128,-1,13
 58 456 58 456 58 514 c 0,14,15
 58 585 58 585 89 632 c 128,-1,16
 120 679 120 679 175.5 703.5 c 128,-1,17
 231 728 231 728 305 728 c 0,18,19
 369 728 369 728 412.5 709.5 c 128,-1,20
 456 691 456 691 483.5 651.5 c 128,-1,21
 511 612 511 612 525 546 c 1,22,-1
 487 580 l 1,23,-1
 506 715 l 1,24,-1
 583 715 l 1,25,-1
 583 512 l 1,26,-1
 493 512 l 1,27,28
 482 555 482 555 457.5 585.5 c 128,-1,29
 433 616 433 616 398.5 631.5 c 128,-1,30
 364 647 364 647 321 647 c 0,31,32
 283 647 283 647 259 637 c 128,-1,33
 235 627 235 627 224 608 c 128,-1,34
 213 589 213 589 213 561 c 256,35,36
 213 533 213 533 225.5 515 c 128,-1,37
 238 497 238 497 261.5 485.5 c 128,-1,38
 285 474 285 474 318 465.5 c 128,-1,39
 351 457 351 457 391 447 c 0,40,41
 437 436 437 436 479.5 421 c 128,-1,42
 522 406 522 406 555.5 381 c 128,-1,43
 589 356 589 356 608 317 c 128,-1,44
 627 278 627 278 627 220 c 0,45,46
 627 143 627 143 595.5 90 c 128,-1,47
 564 37 564 37 505 10 c 128,-1,48
 446 -17 446 -17 362 -17 c 0,49,50
 295 -17 295 -17 242 1.5 c 128,-1,51
 189 20 189 20 153 65 c 128,-1,52
 117 110 117 110 102 188 c 1,53,-1
 141 156 l 1,54,-1
 122 -2 l 1,55,-1
 41 -2 l 1,56,-1
 41 230 l 1,57,-1
 138 230 l 1,58,59
 154 173 154 173 185 136 c 128,-1,60
 216 99 216 99 258 81.5 c 128,-1,61
 300 64 300 64 349 64 c 0,0,1
EndSplineSet
EndChar

StartChar: Scaron
Encoding: 352 352 161
Width: 661
GlyphClass: 1
Flags: W
LayerCount: 2
Fore
SplineSet
261 772 m 1,0,-1
 392 772 l 1,1,-1
 520 924 l 1,2,-1
 520 953 l 1,3,-1
 448 953 l 1,4,-1
 290 851 l 1,5,-1
 373 852 l 1,6,-1
 214 953 l 1,7,-1
 134 953 l 1,8,-1
 134 924 l 1,9,-1
 261 772 l 1,0,-1
349 64 m 0,10,11
 390 64 390 64 416.5 73.5 c 128,-1,12
 443 83 443 83 456 104 c 128,-1,13
 469 125 469 125 469 158 c 0,14,15
 469 188 469 188 455 207.5 c 128,-1,16
 441 227 441 227 416 240 c 128,-1,17
 391 253 391 253 356 263.5 c 128,-1,18
 321 274 321 274 277 285 c 0,19,20
 234 297 234 297 194.5 312.5 c 128,-1,21
 155 328 155 328 124.5 353 c 128,-1,22
 94 378 94 378 76 417 c 128,-1,23
 58 456 58 456 58 514 c 0,24,25
 58 585 58 585 89 632 c 128,-1,26
 120 679 120 679 175.5 703.5 c 128,-1,27
 231 728 231 728 305 728 c 0,28,29
 369 728 369 728 412.5 709.5 c 128,-1,30
 456 691 456 691 483.5 651.5 c 128,-1,31
 511 612 511 612 525 546 c 1,32,-1
 487 580 l 1,33,-1
 506 715 l 1,34,-1
 583 715 l 1,35,-1
 583 512 l 1,36,-1
 493 512 l 1,37,38
 482 555 482 555 457.5 585.5 c 128,-1,39
 433 616 433 616 398.5 631.5 c 128,-1,40
 364 647 364 647 321 647 c 0,41,42
 283 647 283 647 259 637 c 128,-1,43
 235 627 235 627 224 608 c 128,-1,44
 213 589 213 589 213 561 c 256,45,46
 213 533 213 533 225.5 515 c 128,-1,47
 238 497 238 497 261.5 485.5 c 128,-1,48
 285 474 285 474 318 465.5 c 128,-1,49
 351 457 351 457 391 447 c 0,50,51
 437 436 437 436 479.5 421 c 128,-1,52
 522 406 522 406 555.5 381 c 128,-1,53
 589 356 589 356 608 317 c 128,-1,54
 627 278 627 278 627 220 c 0,55,56
 627 143 627 143 595.5 90 c 128,-1,57
 564 37 564 37 505 10 c 128,-1,58
 446 -17 446 -17 362 -17 c 0,59,60
 295 -17 295 -17 242 1.5 c 128,-1,61
 189 20 189 20 153 65 c 128,-1,62
 117 110 117 110 102 188 c 1,63,-1
 141 156 l 1,64,-1
 122 -2 l 1,65,-1
 41 -2 l 1,66,-1
 41 230 l 1,67,-1
 138 230 l 1,68,69
 154 173 154 173 185 136 c 128,-1,70
 216 99 216 99 258 81.5 c 128,-1,71
 300 64 300 64 349 64 c 0,10,11
EndSplineSet
EndChar

StartChar: Scarondotaccent
Encoding: 7782 7782 166
Width: 661
GlyphClass: 1
Flags: W
LayerCount: 2
Fore
SplineSet
257 772 m 1,0,-1
 388 772 l 1,1,-1
 516 924 l 1,2,-1
 516 953 l 1,3,-1
 444 953 l 1,4,-1
 286 851 l 1,5,-1
 368 852 l 1,6,-1
 210 953 l 1,7,-1
 130 953 l 1,8,-1
 130 924 l 1,9,-1
 257 772 l 1,0,-1
349 64 m 0,10,11
 390 64 390 64 416.5 73.5 c 128,-1,12
 443 83 443 83 456 104 c 128,-1,13
 469 125 469 125 469 158 c 0,14,15
 469 188 469 188 455 207.5 c 128,-1,16
 441 227 441 227 416 240 c 128,-1,17
 391 253 391 253 356 263.5 c 128,-1,18
 321 274 321 274 277 285 c 0,19,20
 234 297 234 297 194.5 312.5 c 128,-1,21
 155 328 155 328 124.5 353 c 128,-1,22
 94 378 94 378 76 417 c 128,-1,23
 58 456 58 456 58 514 c 0,24,25
 58 585 58 585 89 632 c 128,-1,26
 120 679 120 679 175.5 703.5 c 128,-1,27
 231 728 231 728 305 728 c 0,28,29
 369 728 369 728 412.5 709.5 c 128,-1,30
 456 691 456 691 483.5 651.5 c 128,-1,31
 511 612 511 612 525 546 c 1,32,-1
 487 580 l 1,33,-1
 506 715 l 1,34,-1
 583 715 l 1,35,-1
 583 512 l 1,36,-1
 493 512 l 1,37,38
 482 555 482 555 457.5 585.5 c 128,-1,39
 433 616 433 616 398.5 631.5 c 128,-1,40
 364 647 364 647 321 647 c 0,41,42
 283 647 283 647 259 637 c 128,-1,43
 235 627 235 627 224 608 c 128,-1,44
 213 589 213 589 213 561 c 256,45,46
 213 533 213 533 225.5 515 c 128,-1,47
 238 497 238 497 261.5 485.5 c 128,-1,48
 285 474 285 474 318 465.5 c 128,-1,49
 351 457 351 457 391 447 c 0,50,51
 437 436 437 436 479.5 421 c 128,-1,52
 522 406 522 406 555.5 381 c 128,-1,53
 589 356 589 356 608 317 c 128,-1,54
 627 278 627 278 627 220 c 0,55,56
 627 143 627 143 595.5 90 c 128,-1,57
 564 37 564 37 505 10 c 128,-1,58
 446 -17 446 -17 362 -17 c 0,59,60
 295 -17 295 -17 242 1.5 c 128,-1,61
 189 20 189 20 153 65 c 128,-1,62
 117 110 117 110 102 188 c 1,63,-1
 141 156 l 1,64,-1
 122 -2 l 1,65,-1
 41 -2 l 1,66,-1
 41 230 l 1,67,-1
 138 230 l 1,68,69
 154 173 154 173 185 136 c 128,-1,70
 216 99 216 99 258 81.5 c 128,-1,71
 300 64 300 64 349 64 c 0,10,11
323 968 m 0,72,73
 276 968 276 968 249.5 989.5 c 128,-1,74
 223 1011 223 1011 223 1054 c 0,75,76
 223 1095 223 1095 249.5 1117 c 128,-1,77
 276 1139 276 1139 323 1139 c 0,78,79
 369 1139 369 1139 395.5 1117 c 128,-1,80
 422 1095 422 1095 422 1054 c 0,81,82
 422 1012 422 1012 395.5 990 c 128,-1,83
 369 968 369 968 323 968 c 0,72,73
EndSplineSet
EndChar

StartChar: T
Encoding: 84 84 168
Width: 746
GlyphClass: 2
Flags: W
AnchorPoint: "Anchor-1" 378 0 basechar 0
AnchorPoint: "Anchor-0" 378 741 basechar 0
LayerCount: 2
Fore
SplineSet
280 111 m 2,0,-1
 280 629 l 1,1,-1
 250 629 l 2,2,3
 210 629 210 629 185.5 624.5 c 128,-1,4
 161 620 161 620 150 609.5 c 128,-1,5
 139 599 139 599 138 581 c 2,6,-1
 127 455 l 1,7,-1
 37 455 l 1,8,-1
 37 710 l 1,9,-1
 709 710 l 1,10,-1
 709 455 l 1,11,-1
 618 455 l 1,12,-1
 608 581 l 2,13,14
 607 599 607 599 595.5 609.5 c 128,-1,15
 584 620 584 620 560 624.5 c 128,-1,16
 536 629 536 629 496 629 c 2,17,-1
 466 629 l 1,18,-1
 466 111 l 2,19,20
 466 89 466 89 484 82 c 128,-1,21
 502 75 502 75 529 75 c 2,22,-1
 546 75 l 1,23,-1
 546 0 l 1,24,-1
 199 0 l 1,25,-1
 199 75 l 1,26,-1
 216 75 l 2,27,28
 243 75 243 75 261.5 82 c 128,-1,29
 280 89 280 89 280 111 c 2,0,-1
EndSplineSet
EndChar

StartChar: Tcaron
Encoding: 356 356 170
Width: 746
GlyphClass: 1
Flags: W
LayerCount: 2
Fore
SplineSet
304 772 m 1,0,-1
 435 772 l 1,1,-1
 563 924 l 1,2,-1
 563 953 l 1,3,-1
 491 953 l 1,4,-1
 333 851 l 1,5,-1
 416 852 l 1,6,-1
 257 953 l 1,7,-1
 177 953 l 1,8,-1
 177 924 l 1,9,-1
 304 772 l 1,0,-1
280 111 m 2,10,-1
 280 629 l 1,11,-1
 250 629 l 2,12,13
 210 629 210 629 185.5 624.5 c 128,-1,14
 161 620 161 620 150 609.5 c 128,-1,15
 139 599 139 599 138 581 c 2,16,-1
 127 455 l 1,17,-1
 37 455 l 1,18,-1
 37 710 l 1,19,-1
 709 710 l 1,20,-1
 709 455 l 1,21,-1
 618 455 l 1,22,-1
 608 581 l 2,23,24
 607 599 607 599 595.5 609.5 c 128,-1,25
 584 620 584 620 560 624.5 c 128,-1,26
 536 629 536 629 496 629 c 2,27,-1
 466 629 l 1,28,-1
 466 111 l 2,29,30
 466 89 466 89 484 82 c 128,-1,31
 502 75 502 75 529 75 c 2,32,-1
 546 75 l 1,33,-1
 546 0 l 1,34,-1
 199 0 l 1,35,-1
 199 75 l 1,36,-1
 216 75 l 2,37,38
 243 75 243 75 261.5 82 c 128,-1,39
 280 89 280 89 280 111 c 2,10,-1
EndSplineSet
EndChar

StartChar: U
Encoding: 85 85 174
Width: 784
GlyphClass: 2
Flags: W
AnchorPoint: "Anchor-2" 450 0 basechar 0
AnchorPoint: "Anchor-1" 397 0 basechar 0
AnchorPoint: "Anchor-0" 397 741 basechar 0
LayerCount: 2
Fore
SplineSet
292 269 m 2,0,1
 292 216 292 216 302 179.5 c 128,-1,2
 312 143 312 143 331.5 120.5 c 128,-1,3
 351 98 351 98 378.5 88 c 128,-1,4
 406 78 406 78 442 78 c 0,5,6
 476 78 476 78 504 88.5 c 128,-1,7
 532 99 532 99 552 121.5 c 128,-1,8
 572 144 572 144 582.5 180.5 c 128,-1,9
 593 217 593 217 593 269 c 2,10,-1
 593 615 l 2,11,12
 593 620 593 620 587.5 623.5 c 128,-1,13
 582 627 582 627 572 629.5 c 128,-1,14
 562 632 562 632 550.5 633.5 c 128,-1,15
 539 635 539 635 528 635 c 2,16,-1
 518 635 l 1,17,-1
 518 710 l 1,18,-1
 750 710 l 1,19,-1
 750 635 l 1,20,-1
 740 635 l 2,21,22
 722 635 722 635 708 631.5 c 128,-1,23
 694 628 694 628 686 619.5 c 128,-1,24
 678 611 678 611 678 595 c 2,25,-1
 678 269 l 2,26,27
 678 193 678 193 657 138.5 c 128,-1,28
 636 84 636 84 598 49.5 c 128,-1,29
 560 15 560 15 510 -1 c 128,-1,30
 460 -17 460 -17 401 -17 c 0,31,32
 335 -17 335 -17 281 -0.5 c 128,-1,33
 227 16 227 16 187.5 50 c 128,-1,34
 148 84 148 84 127.5 138.5 c 128,-1,35
 107 193 107 193 107 269 c 2,36,-1
 107 599 l 2,37,38
 107 621 107 621 89.5 628 c 128,-1,39
 72 635 72 635 45 635 c 2,40,-1
 34 635 l 1,41,-1
 34 710 l 1,42,-1
 365 710 l 1,43,-1
 365 635 l 1,44,-1
 355 635 l 2,45,46
 345 635 345 635 333.5 634.5 c 128,-1,47
 322 634 322 634 313 632.5 c 128,-1,48
 304 631 304 631 298 629.5 c 128,-1,49
 292 628 292 628 292 625 c 2,50,-1
 292 269 l 2,0,1
EndSplineSet
EndChar

StartChar: Uogonek
Encoding: 370 370 184
Width: 784
GlyphClass: 1
Flags: W
LayerCount: 2
Fore
SplineSet
546 44 m 1,0,-1
 527 5 l 1,1,2
 500 -6 500 -6 468 -11.5 c 128,-1,3
 436 -17 436 -17 401 -17 c 0,4,5
 335 -17 335 -17 281 -0.5 c 128,-1,6
 227 16 227 16 187.5 50 c 128,-1,7
 148 84 148 84 127.5 138.5 c 128,-1,8
 107 193 107 193 107 269 c 2,9,-1
 107 599 l 2,10,11
 107 621 107 621 89.5 628 c 128,-1,12
 72 635 72 635 45 635 c 2,13,-1
 34 635 l 1,14,-1
 34 710 l 1,15,-1
 365 710 l 1,16,-1
 365 635 l 1,17,-1
 355 635 l 2,18,19
 345 635 345 635 334 634.5 c 128,-1,20
 323 634 323 634 313.5 632.5 c 128,-1,21
 304 631 304 631 298 629.5 c 128,-1,22
 292 628 292 628 292 625 c 2,23,-1
 292 269 l 2,24,25
 292 216 292 216 302 179.5 c 128,-1,26
 312 143 312 143 331.5 120.5 c 128,-1,27
 351 98 351 98 378.5 88 c 128,-1,28
 406 78 406 78 443 78 c 0,29,30
 476 78 476 78 504 88.5 c 128,-1,31
 532 99 532 99 552 121.5 c 128,-1,32
 572 144 572 144 582.5 180.5 c 128,-1,33
 593 217 593 217 593 269 c 2,34,-1
 593 615 l 2,35,36
 593 620 593 620 587.5 623.5 c 128,-1,37
 582 627 582 627 572 629.5 c 128,-1,38
 562 632 562 632 550.5 633.5 c 128,-1,39
 539 635 539 635 528 635 c 2,40,-1
 518 635 l 1,41,-1
 518 710 l 1,42,-1
 750 710 l 1,43,-1
 750 635 l 1,44,-1
 740 635 l 2,45,46
 722 635 722 635 708 631.5 c 128,-1,47
 694 628 694 628 686 619.5 c 128,-1,48
 678 611 678 611 678 595 c 2,49,-1
 678 269 l 2,50,51
 678 220 678 220 669 180 c 128,-1,52
 660 140 660 140 643 108 c 128,-1,53
 626 76 626 76 600 52 c 0,54,55
 577 29 577 29 551.5 7 c 128,-1,56
 526 -15 526 -15 504.5 -36.5 c 128,-1,57
 483 -58 483 -58 469.5 -79.5 c 128,-1,58
 456 -101 456 -101 456 -125 c 0,59,60
 456 -147 456 -147 468 -158.5 c 128,-1,61
 480 -170 480 -170 502 -170 c 0,62,63
 526 -170 526 -170 542.5 -157.5 c 128,-1,64
 559 -145 559 -145 570 -134 c 1,65,-1
 611 -179 l 1,66,67
 585 -210 585 -210 549.5 -228.5 c 128,-1,68
 514 -247 514 -247 453 -247 c 0,69,70
 410 -247 410 -247 377.5 -236.5 c 128,-1,71
 345 -226 345 -226 327 -204 c 128,-1,72
 309 -182 309 -182 309 -148 c 0,73,74
 309 -120 309 -120 323 -97.5 c 128,-1,75
 337 -75 337 -75 365.5 -54 c 128,-1,76
 394 -33 394 -33 439 -9.5 c 128,-1,77
 484 14 484 14 546 44 c 1,0,-1
EndSplineSet
EndChar

StartChar: Uhorn
Encoding: 431 431 185
Width: 887
GlyphClass: 2
Flags: W
AnchorPoint: "Anchor-1" 447 -35 basechar 0
AnchorPoint: "Anchor-0" 447 663 basechar 0
LayerCount: 2
Fore
SplineSet
107 269 m 2,0,-1
 107 599 l 2,1,2
 107 621 107 621 89.5 628 c 128,-1,3
 72 635 72 635 45 635 c 2,4,-1
 34 635 l 1,5,-1
 34 710 l 1,6,-1
 365 710 l 1,7,-1
 365 635 l 1,8,-1
 355 635 l 2,9,10
 345 635 345 635 334 634.5 c 128,-1,11
 323 634 323 634 313.5 632.5 c 128,-1,12
 304 631 304 631 298 629.5 c 128,-1,13
 292 628 292 628 292 625 c 2,14,-1
 292 269 l 2,15,16
 292 216 292 216 302 179.5 c 128,-1,17
 312 143 312 143 331.5 120.5 c 128,-1,18
 351 98 351 98 378.5 88 c 128,-1,19
 406 78 406 78 442 78 c 0,20,21
 488 78 488 78 521.5 97 c 128,-1,22
 555 116 555 116 574 158 c 128,-1,23
 593 200 593 200 593 269 c 2,24,-1
 593 615 l 2,25,26
 593 620 593 620 587.5 623.5 c 128,-1,27
 582 627 582 627 572 629.5 c 128,-1,28
 562 632 562 632 550.5 633.5 c 128,-1,29
 539 635 539 635 528 635 c 2,30,-1
 518 635 l 1,31,-1
 518 710 l 1,32,-1
 634 710 l 2,33,34
 684 710 684 710 712.5 718.5 c 128,-1,35
 741 727 741 727 755.5 746.5 c 128,-1,36
 770 766 770 766 775.5 799.5 c 128,-1,37
 781 833 781 833 783 885 c 1,38,-1
 917 885 l 1,39,40
 916 831 916 831 907 791.5 c 128,-1,41
 898 752 898 752 881 724.5 c 128,-1,42
 864 697 864 697 841 679.5 c 128,-1,43
 818 662 818 662 790 652.5 c 128,-1,44
 762 643 762 643 729 638 c 0,45,46
 714 636 714 636 702 632 c 128,-1,47
 690 628 690 628 684 619.5 c 128,-1,48
 678 611 678 611 678 597 c 2,49,-1
 678 269 l 2,50,51
 678 193 678 193 657 138.5 c 128,-1,52
 636 84 636 84 598 49.5 c 128,-1,53
 560 15 560 15 510 -1 c 128,-1,54
 460 -17 460 -17 401 -17 c 0,55,56
 335 -17 335 -17 281 -0.5 c 128,-1,57
 227 16 227 16 187.5 50 c 128,-1,58
 148 84 148 84 127.5 138.5 c 128,-1,59
 107 193 107 193 107 269 c 2,0,-1
EndSplineSet
EndChar

StartChar: Ucaron
Encoding: 467 467 186
Width: 784
GlyphClass: 1
Flags: W
LayerCount: 2
Fore
SplineSet
371 772 m 1,0,-1
 502 772 l 1,1,-1
 630 924 l 1,2,-1
 630 953 l 1,3,-1
 558 953 l 1,4,-1
 400 851 l 1,5,-1
 483 852 l 1,6,-1
 324 953 l 1,7,-1
 244 953 l 1,8,-1
 244 924 l 1,9,-1
 371 772 l 1,0,-1
292 269 m 2,10,11
 292 216 292 216 302 179.5 c 128,-1,12
 312 143 312 143 331.5 120.5 c 128,-1,13
 351 98 351 98 378.5 88 c 128,-1,14
 406 78 406 78 443 78 c 0,15,16
 476 78 476 78 504 88.5 c 128,-1,17
 532 99 532 99 552 121.5 c 128,-1,18
 572 144 572 144 582.5 180.5 c 128,-1,19
 593 217 593 217 593 269 c 2,20,-1
 593 615 l 2,21,22
 593 620 593 620 587.5 623.5 c 128,-1,23
 582 627 582 627 572 629.5 c 128,-1,24
 562 632 562 632 550.5 633.5 c 128,-1,25
 539 635 539 635 528 635 c 2,26,-1
 518 635 l 1,27,-1
 518 710 l 1,28,-1
 750 710 l 1,29,-1
 750 635 l 1,30,-1
 740 635 l 2,31,32
 722 635 722 635 708 631.5 c 128,-1,33
 694 628 694 628 686 619.5 c 128,-1,34
 678 611 678 611 678 595 c 2,35,-1
 678 269 l 2,36,37
 678 193 678 193 657 138.5 c 128,-1,38
 636 84 636 84 598 49.5 c 128,-1,39
 560 15 560 15 510 -1 c 128,-1,40
 460 -17 460 -17 401 -17 c 0,41,42
 335 -17 335 -17 281 -0.5 c 128,-1,43
 227 16 227 16 187.5 50 c 128,-1,44
 148 84 148 84 127.5 138.5 c 128,-1,45
 107 193 107 193 107 269 c 2,46,-1
 107 599 l 2,47,48
 107 621 107 621 89.5 628 c 128,-1,49
 72 635 72 635 45 635 c 2,50,-1
 34 635 l 1,51,-1
 34 710 l 1,52,-1
 365 710 l 1,53,-1
 365 635 l 1,54,-1
 355 635 l 2,55,56
 345 635 345 635 334 634.5 c 128,-1,57
 323 634 323 634 313.5 632.5 c 128,-1,58
 304 631 304 631 298 629.5 c 128,-1,59
 292 628 292 628 292 625 c 2,60,-1
 292 269 l 2,10,11
EndSplineSet
EndChar

StartChar: Udieresiscaron
Encoding: 473 473 187
Width: 801
GlyphClass: 1
Flags: W
LayerCount: 2
Fore
SplineSet
357 987 m 1,0,-1
 488 987 l 1,1,-1
 616 1138 l 1,2,-1
 616 1168 l 1,3,-1
 544 1168 l 1,4,-1
 386 1065 l 1,5,-1
 468 1066 l 1,6,-1
 310 1168 l 1,7,-1
 230 1168 l 1,8,-1
 230 1138 l 1,9,-1
 357 987 l 1,0,-1
292 269 m 2,10,11
 292 216 292 216 302 179.5 c 128,-1,12
 312 143 312 143 331.5 120.5 c 128,-1,13
 351 98 351 98 378.5 88 c 128,-1,14
 406 78 406 78 442 78 c 0,15,16
 476 78 476 78 504 88.5 c 128,-1,17
 532 99 532 99 552 121.5 c 128,-1,18
 572 144 572 144 582.5 180.5 c 128,-1,19
 593 217 593 217 593 269 c 2,20,-1
 593 615 l 2,21,22
 593 620 593 620 587.5 623.5 c 128,-1,23
 582 627 582 627 572 629.5 c 128,-1,24
 562 632 562 632 550.5 633.5 c 128,-1,25
 539 635 539 635 528 635 c 2,26,-1
 518 635 l 1,27,-1
 518 710 l 1,28,-1
 750 710 l 1,29,-1
 750 635 l 1,30,-1
 740 635 l 2,31,32
 722 635 722 635 708 631.5 c 128,-1,33
 694 628 694 628 686 619.5 c 128,-1,34
 678 611 678 611 678 595 c 2,35,-1
 678 269 l 2,36,37
 678 193 678 193 657 138.5 c 128,-1,38
 636 84 636 84 598 49.5 c 128,-1,39
 560 15 560 15 510 -1 c 128,-1,40
 460 -17 460 -17 401 -17 c 0,41,42
 335 -17 335 -17 281 -0.5 c 128,-1,43
 227 16 227 16 187.5 50 c 128,-1,44
 148 84 148 84 127.5 138.5 c 128,-1,45
 107 193 107 193 107 269 c 2,46,-1
 107 599 l 2,47,48
 107 621 107 621 89.5 628 c 128,-1,49
 72 635 72 635 45 635 c 2,50,-1
 34 635 l 1,51,-1
 34 710 l 1,52,-1
 365 710 l 1,53,-1
 365 635 l 1,54,-1
 355 635 l 2,55,56
 345 635 345 635 334 634.5 c 128,-1,57
 323 634 323 634 313.5 632.5 c 128,-1,58
 304 631 304 631 298 629.5 c 128,-1,59
 292 628 292 628 292 625 c 2,60,-1
 292 269 l 2,10,11
387 873 m 256,61,62
 387 831 387 831 361 809.5 c 128,-1,63
 335 788 335 788 289 788 c 0,64,65
 244 788 244 788 218 809.5 c 128,-1,66
 192 831 192 831 192 873 c 256,67,68
 192 915 192 915 218 936.5 c 128,-1,69
 244 958 244 958 289 958 c 0,70,71
 335 958 335 958 361 936.5 c 128,-1,72
 387 915 387 915 387 873 c 256,61,62
652 873 m 256,73,74
 652 831 652 831 626 809.5 c 128,-1,75
 600 788 600 788 554 788 c 0,76,77
 510 788 510 788 483.5 809.5 c 128,-1,78
 457 831 457 831 457 873 c 256,79,80
 457 915 457 915 483.5 936.5 c 128,-1,81
 510 958 510 958 554 958 c 0,82,83
 600 958 600 958 626 936.5 c 128,-1,84
 652 915 652 915 652 873 c 256,73,74
EndSplineSet
EndChar

StartChar: Udblgrave
Encoding: 532 532 188
Width: 784
GlyphClass: 1
Flags: W
LayerCount: 2
Fore
SplineSet
559 888 m 2,0,-1
 586 796 l 1,1,-1
 586 765 l 1,2,-1
 533 765 l 1,3,-1
 468 816 l 2,4,5
 438 842 438 842 421 863 c 128,-1,6
 404 884 404 884 404 912 c 0,7,8
 404 938 404 938 422 955.5 c 128,-1,9
 440 973 440 973 474 973 c 0,10,11
 498 973 498 973 514.5 963 c 128,-1,12
 531 953 531 953 542 934 c 128,-1,13
 553 915 553 915 559 888 c 2,0,-1
349 888 m 2,14,-1
 376 796 l 1,15,-1
 376 765 l 1,16,-1
 322 765 l 1,17,-1
 258 816 l 2,18,19
 228 842 228 842 211 863 c 128,-1,20
 194 884 194 884 194 912 c 0,21,22
 194 938 194 938 212 955.5 c 128,-1,23
 230 973 230 973 263 973 c 0,24,25
 288 973 288 973 304.5 963 c 128,-1,26
 321 953 321 953 332 934 c 128,-1,27
 343 915 343 915 349 888 c 2,14,-1
292 269 m 2,28,29
 292 216 292 216 302 179.5 c 128,-1,30
 312 143 312 143 331.5 120.5 c 128,-1,31
 351 98 351 98 378.5 88 c 128,-1,32
 406 78 406 78 443 78 c 0,33,34
 476 78 476 78 504 88.5 c 128,-1,35
 532 99 532 99 552 121.5 c 128,-1,36
 572 144 572 144 582.5 180.5 c 128,-1,37
 593 217 593 217 593 269 c 2,38,-1
 593 615 l 2,39,40
 593 620 593 620 587.5 623.5 c 128,-1,41
 582 627 582 627 572 629.5 c 128,-1,42
 562 632 562 632 550.5 633.5 c 128,-1,43
 539 635 539 635 528 635 c 2,44,-1
 518 635 l 1,45,-1
 518 710 l 1,46,-1
 750 710 l 1,47,-1
 750 635 l 1,48,-1
 740 635 l 2,49,50
 722 635 722 635 708 631.5 c 128,-1,51
 694 628 694 628 686 619.5 c 128,-1,52
 678 611 678 611 678 595 c 2,53,-1
 678 269 l 2,54,55
 678 193 678 193 657 138.5 c 128,-1,56
 636 84 636 84 598 49.5 c 128,-1,57
 560 15 560 15 510 -1 c 128,-1,58
 460 -17 460 -17 401 -17 c 0,59,60
 335 -17 335 -17 281 -0.5 c 128,-1,61
 227 16 227 16 187.5 50 c 128,-1,62
 148 84 148 84 127.5 138.5 c 128,-1,63
 107 193 107 193 107 269 c 2,64,-1
 107 599 l 2,65,66
 107 621 107 621 89.5 628 c 128,-1,67
 72 635 72 635 45 635 c 2,68,-1
 34 635 l 1,69,-1
 34 710 l 1,70,-1
 365 710 l 1,71,-1
 365 635 l 1,72,-1
 355 635 l 2,73,74
 345 635 345 635 334 634.5 c 128,-1,75
 323 634 323 634 313.5 632.5 c 128,-1,76
 304 631 304 631 298 629.5 c 128,-1,77
 292 628 292 628 292 625 c 2,78,-1
 292 269 l 2,28,29
EndSplineSet
EndChar

StartChar: Uinvertedbreve
Encoding: 534 534 189
Width: 784
GlyphClass: 1
Flags: W
LayerCount: 2
Fore
SplineSet
432 941 m 256,0,1
 375 941 375 941 335 922.5 c 128,-1,2
 295 904 295 904 273.5 864.5 c 128,-1,3
 252 825 252 825 251 762 c 1,4,-1
 337 762 l 1,5,6
 340 790 340 790 349 805 c 128,-1,7
 358 820 358 820 377 826 c 128,-1,8
 396 832 396 832 429 832 c 256,9,10
 462 832 462 832 481 826 c 128,-1,11
 500 820 500 820 509.5 805 c 128,-1,12
 519 790 519 790 522 762 c 1,13,-1
 613 762 l 1,14,15
 612 825 612 825 590.5 864.5 c 128,-1,16
 569 904 569 904 529 922.5 c 128,-1,17
 489 941 489 941 432 941 c 256,0,1
292 269 m 2,18,19
 292 216 292 216 302 179.5 c 128,-1,20
 312 143 312 143 331.5 120.5 c 128,-1,21
 351 98 351 98 378.5 88 c 128,-1,22
 406 78 406 78 443 78 c 0,23,24
 476 78 476 78 504 88.5 c 128,-1,25
 532 99 532 99 552 121.5 c 128,-1,26
 572 144 572 144 582.5 180.5 c 128,-1,27
 593 217 593 217 593 269 c 2,28,-1
 593 615 l 2,29,30
 593 620 593 620 587.5 623.5 c 128,-1,31
 582 627 582 627 572 629.5 c 128,-1,32
 562 632 562 632 550.5 633.5 c 128,-1,33
 539 635 539 635 528 635 c 2,34,-1
 518 635 l 1,35,-1
 518 710 l 1,36,-1
 750 710 l 1,37,-1
 750 635 l 1,38,-1
 740 635 l 2,39,40
 722 635 722 635 708 631.5 c 128,-1,41
 694 628 694 628 686 619.5 c 128,-1,42
 678 611 678 611 678 595 c 2,43,-1
 678 269 l 2,44,45
 678 193 678 193 657 138.5 c 128,-1,46
 636 84 636 84 598 49.5 c 128,-1,47
 560 15 560 15 510 -1 c 128,-1,48
 460 -17 460 -17 401 -17 c 0,49,50
 335 -17 335 -17 281 -0.5 c 128,-1,51
 227 16 227 16 187.5 50 c 128,-1,52
 148 84 148 84 127.5 138.5 c 128,-1,53
 107 193 107 193 107 269 c 2,54,-1
 107 599 l 2,55,56
 107 621 107 621 89.5 628 c 128,-1,57
 72 635 72 635 45 635 c 2,58,-1
 34 635 l 1,59,-1
 34 710 l 1,60,-1
 365 710 l 1,61,-1
 365 635 l 1,62,-1
 355 635 l 2,63,64
 345 635 345 635 334 634.5 c 128,-1,65
 323 634 323 634 313.5 632.5 c 128,-1,66
 304 631 304 631 298 629.5 c 128,-1,67
 292 628 292 628 292 625 c 2,68,-1
 292 269 l 2,18,19
EndSplineSet
EndChar

StartChar: V
Encoding: 86 86 199
Width: 745
GlyphClass: 2
Flags: W
AnchorPoint: "Anchor-0" 360 741 basechar 0
LayerCount: 2
Fore
SplineSet
441 58 m 1,0,-1
 415 84 l 1,1,-1
 582 614 l 2,2,3
 582 621 582 621 574 625.5 c 128,-1,4
 566 630 566 630 551 632.5 c 128,-1,5
 536 635 536 635 518 635 c 2,6,-1
 506 635 l 1,7,-1
 506 710 l 1,8,-1
 729 710 l 1,9,-1
 729 635 l 1,10,-1
 724 635 l 2,11,12
 700 635 700 635 685 624 c 128,-1,13
 670 613 670 613 660 581 c 2,14,-1
 473 -2 l 1,15,-1
 276 -2 l 1,16,-1
 85 589 l 2,17,18
 76 617 76 617 60.5 626 c 128,-1,19
 45 635 45 635 21 635 c 2,20,-1
 16 635 l 1,21,-1
 16 710 l 1,22,-1
 343 710 l 1,23,-1
 343 635 l 1,24,-1
 329 635 l 2,25,26
 310 635 310 635 295.5 633.5 c 128,-1,27
 281 632 281 632 272.5 630 c 128,-1,28
 264 628 264 628 264 624 c 2,29,-1
 441 58 l 1,0,-1
EndSplineSet
EndChar

StartChar: W
Encoding: 87 87 200
Width: 1060
GlyphClass: 2
Flags: W
AnchorPoint: "Anchor-0" 544 741 basechar 0
LayerCount: 2
Fore
SplineSet
16 710 m 1,0,-1
 335 710 l 1,1,-1
 335 635 l 1,2,-1
 321 635 l 2,3,4
 307 635 307 635 294 633.5 c 128,-1,5
 281 632 281 632 272.5 630 c 128,-1,6
 264 628 264 628 264 624 c 2,7,-1
 370 115 l 1,8,-1
 358 120 l 1,9,-1
 496 710 l 1,10,-1
 675 710 l 1,11,-1
 809 119 l 1,12,-1
 794 114 l 1,13,-1
 904 615 l 2,14,15
 904 621 904 621 896 625.5 c 128,-1,16
 888 630 888 630 875.5 632.5 c 128,-1,17
 863 635 863 635 849 635 c 2,18,-1
 835 635 l 1,19,-1
 835 710 l 1,20,-1
 1044 710 l 1,21,-1
 1044 635 l 1,22,-1
 1037 635 l 2,23,24
 1015 635 1015 635 1001 625 c 128,-1,25
 987 615 987 615 982 591 c 2,26,-1
 850 0 l 1,27,-1
 663 0 l 1,28,-1
 532 588 l 1,29,-1
 546 587 l 1,30,-1
 411 0 l 1,31,-1
 216 0 l 1,32,-1
 77 605 l 2,33,34
 73 625 73 625 59 630 c 128,-1,35
 45 635 45 635 23 635 c 2,36,-1
 16 635 l 1,37,-1
 16 710 l 1,0,-1
EndSplineSet
EndChar

StartChar: X
Encoding: 88 88 205
Width: 755
GlyphClass: 2
Flags: W
AnchorPoint: "Anchor-1" 355 0 basechar 0
AnchorPoint: "Anchor-0" 378 741 basechar 0
LayerCount: 2
Fore
SplineSet
29 635 m 1,0,-1
 29 710 l 1,1,-1
 365 710 l 1,2,-1
 365 635 l 1,3,-1
 350 635 l 2,4,5
 337 635 337 635 323 634 c 128,-1,6
 309 633 309 633 300 631 c 128,-1,7
 291 629 291 629 291 625 c 2,8,-1
 446 401 l 1,9,-1
 456 396 l 1,10,-1
 659 110 l 2,11,12
 674 88 674 88 687 81.5 c 128,-1,13
 700 75 700 75 722 75 c 2,14,-1
 734 75 l 1,15,-1
 734 0 l 1,16,-1
 392 0 l 1,17,-1
 392 75 l 1,18,-1
 407 75 l 2,19,20
 420 75 420 75 433.5 76 c 128,-1,21
 447 77 447 77 456.5 79.5 c 128,-1,22
 466 82 466 82 466 85 c 2,23,-1
 294 331 l 1,24,-1
 284 336 l 1,25,-1
 98 601 l 2,26,27
 83 623 83 623 70 629 c 128,-1,28
 57 635 57 635 35 635 c 2,29,-1
 29 635 l 1,0,-1
22 0 m 1,30,-1
 22 75 l 1,31,-1
 33 75 l 2,32,33
 55 75 55 75 69.5 85 c 128,-1,34
 84 95 84 95 102 121 c 2,35,-1
 291 392 l 1,36,-1
 351 348 l 1,37,-1
 174 93 l 2,38,39
 174 88 174 88 183.5 84 c 128,-1,40
 193 80 193 80 207 77.5 c 128,-1,41
 221 75 221 75 234 75 c 2,42,-1
 249 75 l 1,43,-1
 249 0 l 1,44,-1
 22 0 l 1,30,-1
464 347 m 1,45,-1
 412 400 l 1,46,-1
 558 617 l 2,47,48
 558 623 558 623 548.5 627 c 128,-1,49
 539 631 539 631 525.5 633 c 128,-1,50
 512 635 512 635 498 635 c 2,51,-1
 485 635 l 1,52,-1
 485 710 l 1,53,-1
 708 710 l 1,54,-1
 708 635 l 1,55,-1
 702 635 l 2,56,57
 680 635 680 635 664.5 625.5 c 128,-1,58
 649 616 649 616 631 590 c 2,59,-1
 464 347 l 1,45,-1
EndSplineSet
EndChar

StartChar: Y
Encoding: 89 89 206
Width: 716
GlyphClass: 2
Flags: W
AnchorPoint: "Anchor-1" 362 0 basechar 0
AnchorPoint: "Anchor-0" 362 741 basechar 0
LayerCount: 2
Fore
SplineSet
268 308 m 1,0,-1
 281 263 l 1,1,-1
 88 596 l 2,2,3
 79 611 79 611 70 620 c 128,-1,4
 61 629 61 629 50 632 c 128,-1,5
 39 635 39 635 25 635 c 2,6,-1
 18 635 l 1,7,-1
 18 710 l 1,8,-1
 340 710 l 1,9,-1
 340 635 l 1,10,-1
 326 635 l 2,11,12
 309 635 309 635 295.5 633.5 c 128,-1,13
 282 632 282 632 273.5 630 c 128,-1,14
 265 628 265 628 265 624 c 2,15,-1
 432 323 l 1,16,-1
 385 313 l 1,17,-1
 549 614 l 2,18,19
 549 621 549 621 540.5 625.5 c 128,-1,20
 532 630 532 630 518 632.5 c 128,-1,21
 504 635 504 635 487 635 c 2,22,-1
 476 635 l 1,23,-1
 476 710 l 1,24,-1
 698 710 l 1,25,-1
 698 635 l 1,26,-1
 691 635 l 2,27,28
 677 635 677 635 665.5 630.5 c 128,-1,29
 654 626 654 626 644 615.5 c 128,-1,30
 634 605 634 605 624 585 c 2,31,-1
 440 259 l 1,32,-1
 454 308 l 1,33,-1
 454 111 l 2,34,35
 454 89 454 89 472 82 c 128,-1,36
 490 75 490 75 517 75 c 2,37,-1
 534 75 l 1,38,-1
 534 0 l 1,39,-1
 188 0 l 1,40,-1
 188 75 l 1,41,-1
 205 75 l 2,42,43
 232 75 232 75 250 82 c 128,-1,44
 268 89 268 89 268 111 c 2,45,-1
 268 308 l 1,0,-1
EndSplineSet
EndChar

StartChar: Z
Encoding: 90 90 216
Width: 666
GlyphClass: 2
Flags: W
AnchorPoint: "Anchor-1" 352 0 basechar 0
AnchorPoint: "Anchor-0" 352 741 basechar 0
LayerCount: 2
Fore
SplineSet
257 629 m 2,0,1
 232 629 232 629 213 627.5 c 128,-1,2
 194 626 194 626 181 621 c 128,-1,3
 168 616 168 616 161 608 c 128,-1,4
 154 600 154 600 152 586 c 2,5,-1
 143 490 l 1,6,-1
 55 490 l 1,7,-1
 55 710 l 1,8,-1
 611 710 l 1,9,-1
 611 600 l 1,10,-1
 179 26 l 1,11,-1
 149 81 l 1,12,-1
 406 81 l 2,13,14
 446 81 446 81 471 84.5 c 128,-1,15
 496 88 496 88 508 97 c 128,-1,16
 520 106 520 106 522 124 c 2,17,-1
 535 245 l 1,18,-1
 625 245 l 1,19,-1
 625 0 l 1,20,-1
 37 0 l 1,21,-1
 37 114 l 1,22,-1
 457 671 l 1,23,-1
 484 629 l 1,24,-1
 257 629 l 2,0,1
EndSplineSet
EndChar

StartChar: Zcaron
Encoding: 381 381 219
Width: 666
GlyphClass: 1
Flags: W
LayerCount: 2
Fore
SplineSet
275 772 m 1,0,-1
 406 772 l 1,1,-1
 534 924 l 1,2,-1
 534 953 l 1,3,-1
 462 953 l 1,4,-1
 304 851 l 1,5,-1
 387 852 l 1,6,-1
 228 953 l 1,7,-1
 148 953 l 1,8,-1
 148 924 l 1,9,-1
 275 772 l 1,0,-1
257 629 m 2,10,11
 232 629 232 629 213 627.5 c 128,-1,12
 194 626 194 626 181 621 c 128,-1,13
 168 616 168 616 161 608 c 128,-1,14
 154 600 154 600 152 586 c 2,15,-1
 143 490 l 1,16,-1
 55 490 l 1,17,-1
 55 710 l 1,18,-1
 611 710 l 1,19,-1
 611 600 l 1,20,-1
 179 26 l 1,21,-1
 149 81 l 1,22,-1
 406 81 l 2,23,24
 446 81 446 81 471 84.5 c 128,-1,25
 496 88 496 88 508 97 c 128,-1,26
 520 106 520 106 522 124 c 2,27,-1
 535 245 l 1,28,-1
 625 245 l 1,29,-1
 625 0 l 1,30,-1
 37 0 l 1,31,-1
 37 114 l 1,32,-1
 457 671 l 1,33,-1
 484 629 l 1,34,-1
 257 629 l 2,10,11
EndSplineSet
EndChar

StartChar: AE
Encoding: 198 198 221
Width: 1042
GlyphClass: 2
Flags: W
AnchorPoint: "Anchor-0" 643 741 basechar 0
LayerCount: 2
Fore
SplineSet
241 299 m 1,0,-1
 500 299 l 1,1,-1
 506 224 l 1,2,-1
 215 224 l 1,3,-1
 241 299 l 1,0,-1
643 399 m 1,4,5
 683 402 683 402 723 404 c 128,-1,6
 763 406 763 406 803.5 409 c 128,-1,7
 844 412 844 412 884 415 c 1,8,-1
 884 313 l 1,9,10
 845 316 845 316 805 318 c 128,-1,11
 765 320 765 320 724.5 323 c 128,-1,12
 684 326 684 326 643 328 c 1,13,-1
 643 399 l 1,4,5
408 0 m 1,14,-1
 408 75 l 1,15,-1
 417 75 l 2,16,17
 435 75 435 75 449 78 c 128,-1,18
 463 81 463 81 471.5 87 c 128,-1,19
 480 93 480 93 480 104 c 2,20,-1
 480 625 l 1,21,-1
 467 625 l 1,22,-1
 165 96 l 2,23,24
 165 90 165 90 173 85 c 128,-1,25
 181 80 181 80 195.5 77.5 c 128,-1,26
 210 75 210 75 230 75 c 2,27,-1
 240 75 l 1,28,-1
 240 0 l 1,29,-1
 8 0 l 1,30,-1
 8 75 l 1,31,-1
 13 75 l 2,32,33
 29 75 29 75 41 80 c 128,-1,34
 53 85 53 85 63.5 97 c 128,-1,35
 74 109 74 109 86 129 c 2,36,-1
 359 601 l 1,37,38
 359 614 359 614 348.5 621 c 128,-1,39
 338 628 338 628 320 631.5 c 128,-1,40
 302 635 302 635 279 635 c 2,41,-1
 266 635 l 1,42,-1
 266 710 l 1,43,-1
 970 710 l 1,44,-1
 970 509 l 1,45,-1
 883 509 l 1,46,-1
 874 586 l 2,47,48
 872 604 872 604 859.5 613.5 c 128,-1,49
 847 623 847 623 824.5 626.5 c 128,-1,50
 802 630 802 630 769 630 c 2,51,-1
 665 630 l 1,52,-1
 665 80 l 1,53,-1
 774 80 l 2,54,55
 804 80 804 80 825.5 82 c 128,-1,56
 847 84 847 84 860.5 89 c 128,-1,57
 874 94 874 94 881 102.5 c 128,-1,58
 888 111 888 111 890 124 c 2,59,-1
 903 226 l 1,60,-1
 993 226 l 1,61,-1
 993 0 l 1,62,-1
 408 0 l 1,14,-1
EndSplineSet
EndChar

StartChar: Eth
Encoding: 208 208 223
Width: 820
GlyphClass: 1
Flags: W
LayerCount: 2
Fore
SplineSet
36 400 m 1,0,-1
 444 400 l 1,1,-1
 444 318 l 1,2,-1
 36 318 l 1,3,-1
 36 400 l 1,0,-1
38 635 m 1,4,-1
 38 710 l 1,5,-1
 397 710 l 2,6,7
 482 710 482 710 551.5 688 c 128,-1,8
 621 666 621 666 671.5 621.5 c 128,-1,9
 722 577 722 577 749.5 511 c 128,-1,10
 777 445 777 445 777 358 c 256,11,12
 777 271 777 271 749.5 204.5 c 128,-1,13
 722 138 722 138 671.5 92.5 c 128,-1,14
 621 47 621 47 551.5 23.5 c 128,-1,15
 482 0 482 0 397 0 c 2,16,-1
 38 0 l 1,17,-1
 38 75 l 1,18,-1
 50 75 l 2,19,20
 76 75 76 75 93.5 82 c 128,-1,21
 111 89 111 89 111 111 c 2,22,-1
 111 599 l 2,23,24
 111 620 111 620 93.5 627.5 c 128,-1,25
 76 635 76 635 50 635 c 2,26,-1
 38 635 l 1,4,-1
383 629 m 2,27,-1
 296 629 l 1,28,-1
 296 81 l 1,29,-1
 383 81 l 2,30,31
 431 81 431 81 468 98 c 128,-1,32
 505 115 505 115 530.5 150 c 128,-1,33
 556 185 556 185 569.5 237 c 128,-1,34
 583 289 583 289 583 358 c 256,35,36
 583 427 583 427 569.5 478 c 128,-1,37
 556 529 556 529 530.5 562.5 c 128,-1,38
 505 596 505 596 468 612.5 c 128,-1,39
 431 629 431 629 383 629 c 2,27,-1
EndSplineSet
EndChar

StartChar: Oslash
Encoding: 216 216 224
Width: 821
GlyphClass: 2
Flags: W
AnchorPoint: "Anchor-0" 410 731 basechar 0
LayerCount: 2
Fore
SplineSet
412 642 m 0,0,1
 368 642 368 642 334 625 c 128,-1,2
 300 608 300 608 277 572.5 c 128,-1,3
 254 537 254 537 242 483 c 128,-1,4
 230 429 230 429 230 355 c 0,5,6
 230 276 230 276 240 221.5 c 128,-1,7
 250 167 250 167 272 133 c 128,-1,8
 294 99 294 99 328 83.5 c 128,-1,9
 362 68 362 68 409 68 c 0,10,11
 453 68 453 68 487 85 c 128,-1,12
 521 102 521 102 544.5 137.5 c 128,-1,13
 568 173 568 173 580 227 c 128,-1,14
 592 281 592 281 592 355 c 0,15,16
 592 434 592 434 582 488.5 c 128,-1,17
 572 543 572 543 550 577 c 128,-1,18
 528 611 528 611 494 626.5 c 128,-1,19
 460 642 460 642 412 642 c 0,0,1
411 -17 m 0,20,21
 334 -17 334 -17 267 9 c 128,-1,22
 200 35 200 35 149.5 84 c 128,-1,23
 99 133 99 133 71 201.5 c 128,-1,24
 43 270 43 270 43 355 c 0,25,26
 43 443 43 443 69.5 512.5 c 128,-1,27
 96 582 96 582 145 630 c 128,-1,28
 194 678 194 678 261.5 703 c 128,-1,29
 329 728 329 728 411 728 c 0,30,31
 489 728 489 728 555.5 701.5 c 128,-1,32
 622 675 622 675 672.5 626 c 128,-1,33
 723 577 723 577 751 508.5 c 128,-1,34
 779 440 779 440 779 355 c 0,35,36
 779 267 779 267 752.5 197.5 c 128,-1,37
 726 128 726 128 677 80 c 128,-1,38
 628 32 628 32 560.5 7.5 c 128,-1,39
 493 -17 493 -17 411 -17 c 0,20,21
-11 -20 m 1,40,-1
 713 730 l 1,41,-1
 823 730 l 1,42,-1
 99 -20 l 1,43,-1
 -11 -20 l 1,40,-1
EndSplineSet
EndChar

StartChar: Thorn
Encoding: 222 222 226
Width: 729
GlyphClass: 1
Flags: W
LayerCount: 2
Fore
SplineSet
382 710 m 1,0,-1
 38 710 l 1,1,-1
 38 638 l 1,2,-1
 49 638 l 2,3,4
 76 638 76 638 93 631 c 128,-1,5
 110 624 110 624 110 602 c 2,6,-1
 110 108 l 2,7,8
 110 86 110 86 93 79 c 128,-1,9
 76 72 76 72 49 72 c 2,10,-1
 38 72 l 1,11,-1
 38 0 l 1,12,-1
 382 0 l 1,13,-1
 382 75 l 1,14,-1
 358 75 l 2,15,16
 347 75 347 75 336 75.5 c 128,-1,17
 325 76 325 76 316 77.5 c 128,-1,18
 307 79 307 79 301.5 80.5 c 128,-1,19
 296 82 296 82 296 85 c 2,20,-1
 296 625 l 2,21,22
 296 628 296 628 301.5 629.5 c 128,-1,23
 307 631 307 631 316 632.5 c 128,-1,24
 325 634 325 634 336 634.5 c 128,-1,25
 347 635 347 635 358 635 c 2,26,-1
 382 635 l 1,27,-1
 382 710 l 1,0,-1
693 365 m 0,28,29
 693 429 693 429 661.5 473 c 128,-1,30
 630 517 630 517 572 539.5 c 128,-1,31
 514 562 514 562 431 562 c 2,32,-1
 219 562 l 1,33,-1
 219 481 l 1,34,-1
 394 481 l 2,35,36
 431 481 431 481 456 468.5 c 128,-1,37
 481 456 481 456 494.5 429.5 c 128,-1,38
 508 403 508 403 508 362 c 256,39,40
 508 321 508 321 494.5 294 c 128,-1,41
 481 267 481 267 455 253 c 128,-1,42
 429 239 429 239 391 239 c 2,43,-1
 228 239 l 1,44,-1
 228 159 l 1,45,-1
 427 159 l 2,46,47
 508 159 508 159 568 183.5 c 128,-1,48
 628 208 628 208 660.5 254 c 128,-1,49
 693 300 693 300 693 365 c 0,28,29
EndSplineSet
EndChar

StartChar: Hbar
Encoding: 294 294 228
Width: 843
GlyphClass: 1
Flags: W
LayerCount: 2
Fore
SplineSet
197 376 m 1,0,-1
 620 376 l 1,1,-1
 620 305 l 1,2,-1
 197 305 l 1,3,-1
 197 376 l 1,0,-1
38 0 m 1,4,-1
 38 75 l 1,5,-1
 49 75 l 2,6,7
 76 75 76 75 93.5 82 c 128,-1,8
 111 89 111 89 111 111 c 2,9,-1
 111 599 l 2,10,11
 111 621 111 621 93.5 628 c 128,-1,12
 76 635 76 635 49 635 c 2,13,-1
 38 635 l 1,14,-1
 38 710 l 1,15,-1
 366 710 l 1,16,-1
 366 635 l 1,17,-1
 358 635 l 2,18,19
 348 635 348 635 337 634.5 c 128,-1,20
 326 634 326 634 317 632.5 c 128,-1,21
 308 631 308 631 302 629.5 c 128,-1,22
 296 628 296 628 296 625 c 2,23,-1
 296 85 l 2,24,25
 296 82 296 82 302 80.5 c 128,-1,26
 308 79 308 79 317 77.5 c 128,-1,27
 326 76 326 76 337 75.5 c 128,-1,28
 348 75 348 75 358 75 c 2,29,-1
 366 75 l 1,30,-1
 366 0 l 1,31,-1
 38 0 l 1,4,-1
479 0 m 1,32,-1
 479 75 l 1,33,-1
 487 75 l 2,34,35
 497 75 497 75 508 75.5 c 128,-1,36
 519 76 519 76 528 77.5 c 128,-1,37
 537 79 537 79 542.5 80.5 c 128,-1,38
 548 82 548 82 548 85 c 2,39,-1
 548 625 l 2,40,41
 548 628 548 628 542.5 629.5 c 128,-1,42
 537 631 537 631 528 632.5 c 128,-1,43
 519 634 519 634 508 634.5 c 128,-1,44
 497 635 497 635 487 635 c 2,45,-1
 479 635 l 1,46,-1
 479 710 l 1,47,-1
 806 710 l 1,48,-1
 806 635 l 1,49,-1
 796 635 l 2,50,51
 769 635 769 635 751.5 628 c 128,-1,52
 734 621 734 621 734 599 c 2,53,-1
 734 111 l 2,54,55
 734 89 734 89 751.5 82 c 128,-1,56
 769 75 769 75 796 75 c 2,57,-1
 806 75 l 1,58,-1
 806 0 l 1,59,-1
 479 0 l 1,32,-1
30 469 m 1,60,-1
 30 539 l 1,61,-1
 814 539 l 1,62,-1
 814 469 l 1,63,-1
 30 469 l 1,60,-1
EndSplineSet
EndChar

StartChar: Ldot
Encoding: 319 319 230
Width: 686
GlyphClass: 1
Flags: W
LayerCount: 2
Fore
SplineSet
380 710 m 1,0,-1
 38 710 l 1,1,-1
 38 635 l 1,2,-1
 49 635 l 2,3,4
 76 635 76 635 93.5 628 c 128,-1,5
 111 621 111 621 111 599 c 2,6,-1
 111 111 l 2,7,8
 111 89 111 89 93.5 82 c 128,-1,9
 76 75 76 75 49 75 c 2,10,-1
 38 75 l 1,11,-1
 38 0 l 1,12,-1
 630 0 l 1,13,-1
 630 232 l 1,14,-1
 539 232 l 1,15,-1
 526 124 l 2,16,17
 524 106 524 106 511.5 96.5 c 128,-1,18
 499 87 499 87 474.5 83.5 c 128,-1,19
 450 80 450 80 410 80 c 2,20,-1
 296 80 l 1,21,-1
 296 599 l 2,22,23
 296 621 296 621 315 628 c 128,-1,24
 334 635 334 635 364 635 c 2,25,-1
 380 635 l 1,26,-1
 380 710 l 1,0,-1
551 330 m 0,27,28
 501 330 501 330 471.5 357 c 128,-1,29
 442 384 442 384 442 431 c 256,30,31
 442 478 442 478 471.5 504.5 c 128,-1,32
 501 531 501 531 551 531 c 0,33,34
 602 531 602 531 631.5 504.5 c 128,-1,35
 661 478 661 478 661 431 c 256,36,37
 661 384 661 384 631.5 357 c 128,-1,38
 602 330 602 330 551 330 c 0,27,28
EndSplineSet
Ligature2: "Ligature Substitution lookup 5 subtable" L periodcentered
EndChar

StartChar: Lslash
Encoding: 321 321 231
Width: 672
GlyphClass: 1
Flags: W
LayerCount: 2
Fore
SplineSet
23 179 m 1,0,-1
 500 452 l 1,1,-1
 500 542 l 1,2,-1
 23 269 l 1,3,-1
 23 179 l 1,0,-1
385 710 m 1,4,-1
 43 710 l 1,5,-1
 43 635 l 1,6,-1
 54 635 l 2,7,8
 80 635 80 635 97.5 628 c 128,-1,9
 115 621 115 621 115 599 c 2,10,-1
 115 111 l 2,11,12
 115 89 115 89 97.5 82 c 128,-1,13
 80 75 80 75 54 75 c 2,14,-1
 43 75 l 1,15,-1
 43 0 l 1,16,-1
 635 0 l 1,17,-1
 635 250 l 1,18,-1
 544 250 l 1,19,-1
 531 124 l 2,20,21
 529 106 529 106 517 96.5 c 128,-1,22
 505 87 505 87 480 83.5 c 128,-1,23
 455 80 455 80 414 80 c 2,24,-1
 301 80 l 1,25,-1
 301 599 l 2,26,27
 301 621 301 621 319.5 628 c 128,-1,28
 338 635 338 635 368 635 c 2,29,-1
 385 635 l 1,30,-1
 385 710 l 1,4,-1
EndSplineSet
EndChar

StartChar: Eng
Encoding: 330 330 232
Width: 802
GlyphClass: 1
Flags: W
LayerCount: 2
Fore
SplineSet
695 -12 m 2,0,1
 695 -67 695 -67 681 -108.5 c 128,-1,2
 667 -150 667 -150 640 -177 c 128,-1,3
 613 -204 613 -204 575.5 -217.5 c 128,-1,4
 538 -231 538 -231 492 -231 c 0,5,6
 457 -231 457 -231 426 -226 c 128,-1,7
 395 -221 395 -221 373 -213 c 1,8,-1
 373 -122 l 1,9,10
 385 -126 385 -126 402 -130.5 c 128,-1,11
 419 -135 419 -135 441 -138.5 c 128,-1,12
 463 -142 463 -142 487 -142 c 0,13,14
 524 -142 524 -142 550 -129.5 c 128,-1,15
 576 -117 576 -117 589.5 -88.5 c 128,-1,16
 603 -60 603 -60 603 -13 c 2,17,-1
 603 72 l 1,18,-1
 636 -91 l 1,19,-1
 173 668 l 1,20,-1
 198 666 l 1,21,-1
 198 88 l 2,22,23
 198 85 198 85 208 82 c 128,-1,24
 218 79 218 79 233 77 c 128,-1,25
 248 75 248 75 262 75 c 2,26,-1
 275 75 l 1,27,-1
 275 0 l 1,28,-1
 39 0 l 1,29,-1
 39 75 l 1,30,-1
 50 75 l 2,31,32
 68 75 68 75 81.5 78.5 c 128,-1,33
 95 82 95 82 103 91 c 128,-1,34
 111 100 111 100 111 114 c 2,35,-1
 111 599 l 2,36,37
 111 614 111 614 103 621.5 c 128,-1,38
 95 629 95 629 81.5 632 c 128,-1,39
 68 635 68 635 50 635 c 2,40,-1
 39 635 l 1,41,-1
 39 710 l 1,42,-1
 350 710 l 1,43,-1
 667 200 l 1,44,-1
 609 139 l 1,45,-1
 609 622 l 2,46,47
 609 626 609 626 599 628.5 c 128,-1,48
 589 631 589 631 574 633 c 128,-1,49
 559 635 559 635 545 635 c 2,50,-1
 532 635 l 1,51,-1
 532 710 l 1,52,-1
 767 710 l 1,53,-1
 767 635 l 1,54,-1
 757 635 l 2,55,56
 740 635 740 635 725.5 632 c 128,-1,57
 711 629 711 629 703 621.5 c 128,-1,58
 695 614 695 614 695 599 c 2,59,-1
 695 -12 l 2,0,1
EndSplineSet
Substitution2: "'ss07' Style Set 7 lookup 67 subtable" Eng.afr
EndChar

StartChar: OE
Encoding: 338 338 233
Width: 1080
GlyphClass: 1
Flags: W
LayerCount: 2
Fore
SplineSet
683 400 m 1,0,1
 723 403 723 403 763 405.5 c 128,-1,2
 803 408 803 408 843 410.5 c 128,-1,3
 883 413 883 413 922 416 c 1,4,-1
 922 313 l 1,5,6
 883 316 883 316 843 318.5 c 128,-1,7
 803 321 803 321 763 323.5 c 128,-1,8
 723 326 723 326 683 329 c 1,9,-1
 683 400 l 1,0,1
437 80 m 2,10,-1
 519 80 l 1,11,-1
 519 630 l 1,12,-1
 437 630 l 2,13,14
 389 630 389 630 351.5 612.5 c 128,-1,15
 314 595 314 595 288.5 560 c 128,-1,16
 263 525 263 525 250 473 c 128,-1,17
 237 421 237 421 237 352 c 256,18,19
 237 283 237 283 250 232 c 128,-1,20
 263 181 263 181 288.5 147 c 128,-1,21
 314 113 314 113 351.5 96.5 c 128,-1,22
 389 80 389 80 437 80 c 2,10,-1
423 0 m 2,23,24
 338 0 338 0 268 22 c 128,-1,25
 198 44 198 44 147.5 88.5 c 128,-1,26
 97 133 97 133 70 199 c 128,-1,27
 43 265 43 265 43 352 c 256,28,29
 43 439 43 439 70 505.5 c 128,-1,30
 97 572 97 572 147.5 617.5 c 128,-1,31
 198 663 198 663 268 686.5 c 128,-1,32
 338 710 338 710 423 710 c 2,33,-1
 1009 710 l 1,34,-1
 1009 509 l 1,35,-1
 926 509 l 1,36,-1
 917 586 l 2,37,38
 915 604 915 604 902.5 613.5 c 128,-1,39
 890 623 890 623 868 626.5 c 128,-1,40
 846 630 846 630 812 630 c 2,41,-1
 705 630 l 1,42,-1
 705 80 l 1,43,-1
 817 80 l 2,44,45
 848 80 848 80 869 82 c 128,-1,46
 890 84 890 84 903.5 89 c 128,-1,47
 917 94 917 94 924.5 102.5 c 128,-1,48
 932 111 932 111 933 124 c 2,49,-1
 947 226 l 1,50,-1
 1031 226 l 1,51,-1
 1031 0 l 1,52,-1
 423 0 l 2,23,24
EndSplineSet
EndChar

StartChar: Tbar
Encoding: 358 358 234
Width: 746
GlyphClass: 1
Flags: W
LayerCount: 2
Fore
SplineSet
130 346 m 1,0,-1
 615 346 l 1,1,-1
 615 262 l 1,2,-1
 130 262 l 1,3,-1
 130 346 l 1,0,-1
280 111 m 2,4,-1
 280 629 l 1,5,-1
 250 629 l 2,6,7
 210 629 210 629 185.5 624.5 c 128,-1,8
 161 620 161 620 150 609.5 c 128,-1,9
 139 599 139 599 138 581 c 2,10,-1
 127 455 l 1,11,-1
 37 455 l 1,12,-1
 37 710 l 1,13,-1
 709 710 l 1,14,-1
 709 455 l 1,15,-1
 618 455 l 1,16,-1
 608 581 l 2,17,18
 607 599 607 599 595.5 609.5 c 128,-1,19
 584 620 584 620 560 624.5 c 128,-1,20
 536 629 536 629 496 629 c 2,21,-1
 466 629 l 1,22,-1
 466 111 l 2,23,24
 466 89 466 89 484 82 c 128,-1,25
 502 75 502 75 529 75 c 2,26,-1
 546 75 l 1,27,-1
 546 0 l 1,28,-1
 199 0 l 1,29,-1
 199 75 l 1,30,-1
 216 75 l 2,31,32
 243 75 243 75 261.5 82 c 128,-1,33
 280 89 280 89 280 111 c 2,4,-1
EndSplineSet
EndChar

StartChar: Bhook
Encoding: 385 385 235
Width: 848
GlyphClass: 2
Flags: W
AnchorPoint: "Anchor-1" 459 0 basechar 0
AnchorPoint: "Anchor-0" 425 740 basechar 0
LayerCount: 2
Fore
SplineSet
359 408 m 1,0,-1
 486 408 l 2,1,2
 523 408 523 408 545.5 420.5 c 128,-1,3
 568 433 568 433 579 459.5 c 128,-1,4
 590 486 590 486 590 527 c 0,5,6
 590 560 590 560 578.5 583.5 c 128,-1,7
 567 607 567 607 545 619.5 c 128,-1,8
 523 632 523 632 489 632 c 2,9,-1
 401 632 l 1,10,-1
 401 78 l 1,11,-1
 495 78 l 2,12,13
 534 78 534 78 560.5 92.5 c 128,-1,14
 587 107 587 107 600.5 135.5 c 128,-1,15
 614 164 614 164 614 207 c 0,16,17
 614 248 614 248 600.5 276.5 c 128,-1,18
 587 305 587 305 559 319.5 c 128,-1,19
 531 334 531 334 487 334 c 2,20,-1
 359 334 l 1,21,-1
 359 408 l 1,0,-1
198 710 m 2,22,-1
 528 710 l 2,23,24
 588 710 588 710 634.5 699.5 c 128,-1,25
 681 689 681 689 712.5 667.5 c 128,-1,26
 744 646 744 646 760 613.5 c 128,-1,27
 776 581 776 581 776 538 c 0,28,29
 776 485 776 485 750 449 c 128,-1,30
 724 413 724 413 675.5 395 c 128,-1,31
 627 377 627 377 560 373 c 1,32,-1
 585 398 l 1,33,-1
 585 347 l 1,34,-1
 564 376 l 1,35,36
 638 372 638 372 692 351.5 c 128,-1,37
 746 331 746 331 775 293.5 c 128,-1,38
 804 256 804 256 804 198 c 0,39,40
 804 149 804 149 786.5 112 c 128,-1,41
 769 75 769 75 734.5 50 c 128,-1,42
 700 25 700 25 650.5 12.5 c 128,-1,43
 601 0 601 0 536 0 c 2,44,-1
 143 0 l 1,45,-1
 143 75 l 1,46,-1
 153 75 l 2,47,48
 180 75 180 75 197.5 82 c 128,-1,49
 215 89 215 89 215 111 c 2,50,-1
 215 632 l 1,51,-1
 196 632 l 2,52,53
 171 632 171 632 153.5 623.5 c 128,-1,54
 136 615 136 615 127.5 594 c 128,-1,55
 119 573 119 573 119 535 c 0,56,57
 119 509 119 509 123 486 c 128,-1,58
 127 463 127 463 134 444 c 1,59,-1
 10 444 l 1,60,61
 7 459 7 459 3.5 481 c 128,-1,62
 0 503 0 503 0 524 c 0,63,64
 0 583 0 583 21 624.5 c 128,-1,65
 42 666 42 666 85.5 688 c 128,-1,66
 129 710 129 710 198 710 c 2,22,-1
EndSplineSet
EndChar

StartChar: Dhook
Encoding: 394 394 236
Width: 924
GlyphClass: 2
Flags: W
AnchorPoint: "Anchor-1" 463 0 basechar 0
AnchorPoint: "Anchor-0" 436 741 basechar 0
LayerCount: 2
Fore
SplineSet
198 710 m 2,0,-1
 501 710 l 2,1,2
 586 710 586 710 656 688 c 128,-1,3
 726 666 726 666 776.5 621.5 c 128,-1,4
 827 577 827 577 854 511 c 128,-1,5
 881 445 881 445 881 358 c 256,6,7
 881 271 881 271 854 204.5 c 128,-1,8
 827 138 827 138 776.5 92.5 c 128,-1,9
 726 47 726 47 656 23.5 c 128,-1,10
 586 0 586 0 501 0 c 2,11,-1
 143 0 l 1,12,-1
 143 75 l 1,13,-1
 154 75 l 2,14,15
 180 75 180 75 197.5 82 c 128,-1,16
 215 89 215 89 215 111 c 2,17,-1
 215 632 l 1,18,-1
 196 632 l 2,19,20
 171 632 171 632 153.5 623.5 c 128,-1,21
 136 615 136 615 127.5 595 c 128,-1,22
 119 575 119 575 119 538 c 0,23,24
 119 513 119 513 123 490.5 c 128,-1,25
 127 468 127 468 134 450 c 1,26,-1
 10 450 l 1,27,28
 7 464 7 464 3.5 485.5 c 128,-1,29
 0 507 0 507 0 527 c 0,30,31
 0 585 0 585 21 626 c 128,-1,32
 42 667 42 667 85.5 688.5 c 128,-1,33
 129 710 129 710 198 710 c 2,0,-1
487 629 m 2,34,-1
 401 629 l 1,35,-1
 401 81 l 1,36,-1
 487 81 l 2,37,38
 535 81 535 81 572.5 98 c 128,-1,39
 610 115 610 115 635.5 150 c 128,-1,40
 661 185 661 185 674 237 c 128,-1,41
 687 289 687 289 687 358 c 256,42,43
 687 427 687 427 674 478 c 128,-1,44
 661 529 661 529 635.5 562.5 c 128,-1,45
 610 596 610 596 572.5 612.5 c 128,-1,46
 535 629 535 629 487 629 c 2,34,-1
EndSplineSet
EndChar

StartChar: Schwa
Encoding: 399 399 237
Width: 769
GlyphClass: 1
Flags: W
LayerCount: 2
Fore
SplineSet
370 731 m 0,0,1
 480 731 480 731 560 688 c 128,-1,2
 640 645 640 645 683.5 563 c 128,-1,3
 727 481 727 481 727 361 c 0,4,5
 727 276 727 276 701.5 206.5 c 128,-1,6
 676 137 676 137 630 87 c 128,-1,7
 584 37 584 37 520.5 10 c 128,-1,8
 457 -17 457 -17 380 -17 c 0,9,10
 268 -17 268 -17 194.5 28.5 c 128,-1,11
 121 74 121 74 85 165.5 c 128,-1,12
 49 257 49 257 47 394 c 1,13,-1
 629 394 l 1,14,-1
 630 314 l 1,15,-1
 216 314 l 1,16,-1
 240 338 l 1,17,18
 241 259 241 259 249.5 206.5 c 128,-1,19
 258 154 258 154 274.5 124 c 128,-1,20
 291 94 291 94 317 81.5 c 128,-1,21
 343 69 343 69 379 69 c 256,22,23
 415 69 415 69 443.5 84 c 128,-1,24
 472 99 472 99 492 133 c 128,-1,25
 512 167 512 167 522.5 223.5 c 128,-1,26
 533 280 533 280 533 363 c 0,27,28
 533 440 533 440 521.5 494 c 128,-1,29
 510 548 510 548 487 581.5 c 128,-1,30
 464 615 464 615 430 630 c 128,-1,31
 396 645 396 645 350 645 c 0,32,33
 298 645 298 645 259 627 c 128,-1,34
 220 609 220 609 190 578 c 128,-1,35
 160 547 160 547 136 508 c 1,36,-1
 59 560 l 1,37,38
 90 611 90 611 133 649.5 c 128,-1,39
 176 688 176 688 234.5 709.5 c 128,-1,40
 293 731 293 731 370 731 c 0,0,1
EndSplineSet
EndChar

StartChar: Khook
Encoding: 408 408 238
Width: 851
GlyphClass: 2
Flags: W
AnchorPoint: "Anchor-1" 434 0 basechar 0
AnchorPoint: "Anchor-0" 485 741 basechar 0
LayerCount: 2
Fore
SplineSet
38 0 m 1,0,-1
 38 75 l 1,1,-1
 49 75 l 2,2,3
 76 75 76 75 93.5 82 c 128,-1,4
 111 89 111 89 111 111 c 2,5,-1
 111 599 l 2,6,7
 111 621 111 621 93.5 628 c 128,-1,8
 76 635 76 635 49 635 c 2,9,-1
 38 635 l 1,10,-1
 38 710 l 1,11,-1
 375 710 l 1,12,-1
 375 635 l 1,13,-1
 364 635 l 2,14,15
 352 635 352 635 339.5 634.5 c 128,-1,16
 327 634 327 634 317.5 632.5 c 128,-1,17
 308 631 308 631 302 629.5 c 128,-1,18
 296 628 296 628 296 625 c 2,19,-1
 296 85 l 2,20,21
 296 82 296 82 301.5 80.5 c 128,-1,22
 307 79 307 79 315 77.5 c 128,-1,23
 323 76 323 76 333 75.5 c 128,-1,24
 343 75 343 75 352 75 c 2,25,-1
 360 75 l 1,26,-1
 360 0 l 1,27,-1
 38 0 l 1,0,-1
730 719 m 0,28,29
 772 719 772 719 798 701 c 128,-1,30
 824 683 824 683 835.5 652 c 128,-1,31
 847 621 847 621 847 580 c 0,32,33
 847 544 847 544 841 509 c 128,-1,34
 835 474 835 474 828 455 c 1,35,-1
 703 455 l 1,36,37
 710 469 710 469 715.5 488 c 128,-1,38
 721 507 721 507 724.5 529 c 128,-1,39
 728 551 728 551 728 571 c 0,40,41
 728 598 728 598 721.5 612 c 128,-1,42
 715 626 715 626 699 626 c 0,43,44
 688 626 688 626 677.5 620 c 128,-1,45
 667 614 667 614 652.5 600 c 128,-1,46
 638 586 638 586 613 561 c 2,47,-1
 420 353 l 1,48,-1
 467 450 l 1,49,-1
 724 102 l 2,50,51
 732 92 732 92 740.5 86 c 128,-1,52
 749 80 749 80 759.5 77.5 c 128,-1,53
 770 75 770 75 783 75 c 2,54,-1
 795 75 l 1,55,-1
 795 0 l 1,56,-1
 449 0 l 1,57,-1
 449 75 l 1,58,-1
 457 75 l 2,59,60
 472 75 472 75 485.5 76 c 128,-1,61
 499 77 499 77 508 79.5 c 128,-1,62
 517 82 517 82 517 85 c 2,63,-1
 327 342 l 1,64,-1
 327 368 l 1,65,-1
 545 600 l 2,66,67
 574 632 574 632 597 654 c 128,-1,68
 620 676 620 676 640.5 690.5 c 128,-1,69
 661 705 661 705 682.5 712 c 128,-1,70
 704 719 704 719 730 719 c 0,28,29
EndSplineSet
EndChar

StartChar: Yhook
Encoding: 435 435 239
Width: 817
GlyphClass: 2
Flags: W
AnchorPoint: "Anchor-1" 385 0 basechar 0
AnchorPoint: "Anchor-0" 417 741 basechar 0
LayerCount: 2
Fore
SplineSet
537 597 m 2,0,1
 560 638 560 638 583 665 c 128,-1,2
 606 692 606 692 634 705.5 c 128,-1,3
 662 719 662 719 698 719 c 0,4,5
 743 719 743 719 770.5 700.5 c 128,-1,6
 798 682 798 682 810 650 c 128,-1,7
 822 618 822 618 822 578 c 0,8,9
 822 544 822 544 816 509 c 128,-1,10
 810 474 810 474 803 455 c 1,11,-1
 679 455 l 1,12,13
 685 469 685 469 690.5 488 c 128,-1,14
 696 507 696 507 699.5 528.5 c 128,-1,15
 703 550 703 550 703 568 c 0,16,17
 703 597 703 597 696 611 c 128,-1,18
 689 625 689 625 671 625 c 0,19,20
 661 625 661 625 651.5 619 c 128,-1,21
 642 613 642 613 632 599 c 128,-1,22
 622 585 622 585 609 563 c 2,23,-1
 439 259 l 1,24,-1
 453 308 l 1,25,-1
 453 111 l 2,26,27
 453 89 453 89 471.5 82 c 128,-1,28
 490 75 490 75 516 75 c 2,29,-1
 534 75 l 1,30,-1
 534 0 l 1,31,-1
 187 0 l 1,32,-1
 187 75 l 1,33,-1
 204 75 l 2,34,35
 231 75 231 75 249.5 82 c 128,-1,36
 268 89 268 89 268 111 c 2,37,-1
 268 308 l 1,38,-1
 280 263 l 1,39,-1
 88 596 l 2,40,41
 79 611 79 611 70 620 c 128,-1,42
 61 629 61 629 50 632 c 128,-1,43
 39 635 39 635 25 635 c 2,44,-1
 18 635 l 1,45,-1
 18 710 l 1,46,-1
 340 710 l 1,47,-1
 340 635 l 1,48,-1
 326 635 l 2,49,50
 309 635 309 635 295.5 633.5 c 128,-1,51
 282 632 282 632 273.5 630 c 128,-1,52
 265 628 265 628 265 624 c 2,53,-1
 431 323 l 1,54,-1
 384 313 l 1,55,-1
 537 597 l 2,0,1
EndSplineSet
EndChar

StartChar: Germandbls
Encoding: 7838 7838 240
Width: 894
GlyphClass: 1
Flags: W
LayerCount: 2
Fore
SplineSet
595 71 m 0,0,1
 625 71 625 71 642.5 83 c 128,-1,2
 660 95 660 95 667.5 118.5 c 128,-1,3
 675 142 675 142 675 178 c 0,4,5
 675 218 675 218 662.5 246 c 128,-1,6
 650 274 650 274 625.5 294 c 128,-1,7
 601 314 601 314 565.5 328.5 c 128,-1,8
 530 343 530 343 483 355 c 1,9,-1
 483 436 l 1,10,-1
 643 660 l 1,11,-1
 693 630 l 1,12,-1
 432 630 l 2,13,14
 387 630 387 630 360 620 c 128,-1,15
 333 610 333 610 318.5 591 c 128,-1,16
 304 572 304 572 298.5 543.5 c 128,-1,17
 293 515 293 515 293 476 c 2,18,-1
 293 0 l 1,19,-1
 35 0 l 1,20,-1
 35 75 l 1,21,-1
 46 75 l 2,22,23
 73 75 73 75 90.5 82 c 128,-1,24
 108 89 108 89 108 111 c 2,25,-1
 108 468 l 2,26,27
 108 529 108 529 123 574 c 128,-1,28
 138 619 138 619 170.5 649 c 128,-1,29
 203 679 203 679 255 694.5 c 128,-1,30
 307 710 307 710 381 710 c 2,31,-1
 779 710 l 1,32,-1
 779 612 l 1,33,-1
 602 369 l 1,34,-1
 566 419 l 1,35,36
 632 406 632 406 685.5 387.5 c 128,-1,37
 739 369 739 369 777 342 c 128,-1,38
 815 315 815 315 835.5 276.5 c 128,-1,39
 856 238 856 238 856 186 c 0,40,41
 856 124 856 124 831.5 80 c 128,-1,42
 807 36 807 36 759.5 12 c 128,-1,43
 712 -12 712 -12 643 -12 c 0,44,45
 576 -12 576 -12 534.5 8.5 c 128,-1,46
 493 29 493 29 470.5 72 c 128,-1,47
 448 115 448 115 438 182 c 1,48,-1
 473 151 l 1,49,-1
 456 0 l 1,50,-1
 380 0 l 1,51,-1
 380 222 l 1,52,-1
 469 222 l 1,53,54
 475 189 475 189 484.5 161.5 c 128,-1,55
 494 134 494 134 509 114 c 128,-1,56
 524 94 524 94 545 82.5 c 128,-1,57
 566 71 566 71 595 71 c 0,0,1
EndSplineSet
EndChar

StartChar: Delta
Encoding: 916 916 241
Width: 771
GlyphClass: 1
Flags: W
LayerCount: 2
Fore
SplineSet
40 0 m 1,0,-1
 40 124 l 1,1,-1
 310 710 l 1,2,-1
 461 710 l 1,3,-1
 731 124 l 1,4,-1
 731 0 l 1,5,-1
 40 0 l 1,0,-1
571 79 m 1,6,-1
 316 655 l 1,7,-1
 381 690 l 1,8,-1
 107 88 l 1,9,-1
 77 132 l 1,10,-1
 658 132 l 1,11,-1
 571 79 l 1,6,-1
EndSplineSet
EndChar

StartChar: Omega
Encoding: 937 937 242
Width: 878
GlyphClass: 1
Flags: W
LayerCount: 2
Fore
SplineSet
439 728 m 0,0,1
 352 728 352 728 285.5 708.5 c 128,-1,2
 219 689 219 689 175 654 c 128,-1,3
 131 619 131 619 109 571 c 128,-1,4
 87 523 87 523 87 464 c 0,5,6
 87 419 87 419 101.5 379.5 c 128,-1,7
 116 340 116 340 142.5 304 c 128,-1,8
 169 268 169 268 203.5 232.5 c 128,-1,9
 238 197 238 197 278 161 c 128,-1,10
 318 125 318 125 359 85 c 1,11,-1
 358 118 l 1,12,-1
 249 118 l 2,13,14
 210 118 210 118 186 121.5 c 128,-1,15
 162 125 162 125 149.5 134.5 c 128,-1,16
 137 144 137 144 134 162 c 2,17,-1
 124 225 l 1,18,-1
 47 225 l 1,19,-1
 47 0 l 1,20,-1
 392 0 l 1,21,-1
 392 146 l 1,22,23
 365 185 365 185 341.5 219 c 128,-1,24
 318 253 318 253 300 287.5 c 128,-1,25
 282 322 282 322 272 363.5 c 128,-1,26
 262 405 262 405 262 457 c 0,27,28
 262 521 262 521 281.5 562 c 128,-1,29
 301 603 301 603 340.5 623 c 128,-1,30
 380 643 380 643 439 643 c 0,31,32
 499 643 499 643 538.5 623 c 128,-1,33
 578 603 578 603 597 562 c 128,-1,34
 616 521 616 521 616 457 c 0,35,36
 616 405 616 405 606 363.5 c 128,-1,37
 596 322 596 322 578 287.5 c 128,-1,38
 560 253 560 253 536.5 219 c 128,-1,39
 513 185 513 185 486 146 c 1,40,-1
 486 0 l 1,41,-1
 831 0 l 1,42,-1
 831 225 l 1,43,-1
 754 225 l 1,44,-1
 744 162 l 2,45,46
 741 144 741 144 729 134.5 c 128,-1,47
 717 125 717 125 692.5 121.5 c 128,-1,48
 668 118 668 118 629 118 c 2,49,-1
 521 118 l 1,50,-1
 519 85 l 1,51,52
 560 125 560 125 600 161 c 128,-1,53
 640 197 640 197 675 232.5 c 128,-1,54
 710 268 710 268 736 304 c 128,-1,55
 762 340 762 340 776.5 379.5 c 128,-1,56
 791 419 791 419 791 464 c 0,57,58
 791 523 791 523 769 571 c 128,-1,59
 747 619 747 619 703 654 c 128,-1,60
 659 689 659 689 593 708.5 c 128,-1,61
 527 728 527 728 439 728 c 0,0,1
EndSplineSet
EndChar

StartChar: Djecyr
Encoding: 1026 1026 244
Width: 912
GlyphClass: 2
Flags: W
AnchorPoint: "Anchor-0" 356 741 basechar 0
LayerCount: 2
Fore
SplineSet
879 198 m 0,0,1
 879 141 879 141 860 99.5 c 128,-1,2
 841 58 841 58 804.5 31 c 128,-1,3
 768 4 768 4 714.5 -9 c 128,-1,4
 661 -22 661 -22 593 -22 c 1,5,-1
 593 58 l 1,6,7
 625 58 625 58 648 72.5 c 128,-1,8
 671 87 671 87 683.5 118 c 128,-1,9
 696 149 696 149 696 198 c 0,10,11
 696 262 696 262 662.5 297 c 128,-1,12
 629 332 629 332 566 332 c 0,13,14
 527 332 527 332 494 325 c 128,-1,15
 461 318 461 318 426 300 c 1,16,-1
 426 376 l 1,17,18
 463 393 463 393 514 403.5 c 128,-1,19
 565 414 565 414 627 414 c 0,20,21
 707 414 707 414 763.5 389.5 c 128,-1,22
 820 365 820 365 849.5 317 c 128,-1,23
 879 269 879 269 879 198 c 0,0,1
188 0 m 1,24,-1
 188 75 l 1,25,-1
 205 75 l 2,26,27
 232 75 232 75 250.5 82 c 128,-1,28
 269 89 269 89 269 111 c 2,29,-1
 269 629 l 1,30,-1
 250 629 l 2,31,32
 210 629 210 629 185.5 625 c 128,-1,33
 161 621 161 621 150 610 c 128,-1,34
 139 599 139 599 138 581 c 2,35,-1
 127 455 l 1,36,-1
 37 455 l 1,37,-1
 37 710 l 1,38,-1
 718 710 l 1,39,-1
 718 485 l 1,40,-1
 627 485 l 1,41,-1
 617 581 l 2,42,43
 615 599 615 599 604 610 c 128,-1,44
 593 621 593 621 569 625 c 128,-1,45
 545 629 545 629 505 629 c 2,46,-1
 455 629 l 1,47,-1
 455 85 l 2,48,49
 455 82 455 82 463.5 79.5 c 128,-1,50
 472 77 472 77 484.5 76 c 128,-1,51
 497 75 497 75 510 75 c 2,52,-1
 521 75 l 1,53,-1
 521 0 l 1,54,-1
 188 0 l 1,24,-1
EndSplineSet
EndChar

StartChar: Eukrcyr
Encoding: 1028 1028 245
Width: 740
GlyphClass: 2
Flags: W
AnchorPoint: "Anchor-1" 386 0 basechar 0
AnchorPoint: "Anchor-0" 386 741 basechar 0
LayerCount: 2
Fore
SplineSet
214 400 m 1,0,1
 238 401 238 401 262 402.5 c 128,-1,2
 286 404 286 404 310 405.5 c 128,-1,3
 334 407 334 407 358 408 c 128,-1,4
 382 409 382 409 406 410.5 c 128,-1,5
 430 412 430 412 454 413 c 128,-1,6
 478 414 478 414 502 416 c 1,7,-1
 502 313 l 1,8,9
 478 314 478 314 454 315.5 c 128,-1,10
 430 317 430 317 406 318.5 c 128,-1,11
 382 320 382 320 358 321 c 128,-1,12
 334 322 334 322 310 323 c 128,-1,13
 286 324 286 324 262 325.5 c 128,-1,14
 238 327 238 327 214 329 c 1,15,-1
 214 400 l 1,0,1
412 642 m 0,16,17
 369 642 369 642 336 624 c 128,-1,18
 303 606 303 606 281 570.5 c 128,-1,19
 259 535 259 535 248 481 c 128,-1,20
 237 427 237 427 237 355 c 0,21,22
 237 281 237 281 248.5 227 c 128,-1,23
 260 173 260 173 283 138 c 128,-1,24
 306 103 306 103 341 85.5 c 128,-1,25
 376 68 376 68 423 68 c 0,26,27
 481 68 481 68 520.5 92 c 128,-1,28
 560 116 560 116 585 158.5 c 128,-1,29
 610 201 610 201 624 257 c 1,30,-1
 700 224 l 1,31,32
 681 150 681 150 643 95.5 c 128,-1,33
 605 41 605 41 545.5 12 c 128,-1,34
 486 -17 486 -17 401 -17 c 0,35,36
 321 -17 321 -17 255.5 7.5 c 128,-1,37
 190 32 190 32 142 80 c 128,-1,38
 94 128 94 128 68.5 197 c 128,-1,39
 43 266 43 266 43 355 c 0,40,41
 43 445 43 445 69.5 514.5 c 128,-1,42
 96 584 96 584 143.5 631 c 128,-1,43
 191 678 191 678 254 703 c 128,-1,44
 317 728 317 728 389 728 c 0,45,46
 462 728 462 728 510.5 701 c 128,-1,47
 559 674 559 674 588 625 c 128,-1,48
 617 576 617 576 630 509 c 1,49,-1
 587 539 l 1,50,-1
 606 715 l 1,51,-1
 689 715 l 1,52,-1
 689 473 l 1,53,-1
 591 473 l 1,54,55
 577 524 577 524 553 562 c 128,-1,56
 529 600 529 600 494.5 621 c 128,-1,57
 460 642 460 642 412 642 c 0,16,17
EndSplineSet
Substitution2: "'ss01' Style Set 1 lookup 61 subtable" Ieukran.alt1
EndChar

StartChar: Yukrcyr
Encoding: 1031 1031 248
Width: 416
GlyphClass: 2
Flags: W
AnchorPoint: "Anchor-1" 208 0 basechar 0
AnchorPoint: "Anchor-0" 208 939 basechar 0
LayerCount: 2
Fore
SplineSet
187 866 m 256,0,1
 187 825 187 825 165 803 c 128,-1,2
 143 781 143 781 104 781 c 0,3,4
 67 781 67 781 45 803 c 128,-1,5
 23 825 23 825 23 866 c 256,6,7
 23 907 23 907 45 929 c 128,-1,8
 67 951 67 951 104 951 c 0,9,10
 143 951 143 951 165 929 c 128,-1,11
 187 907 187 907 187 866 c 256,0,1
393 866 m 256,12,13
 393 825 393 825 371 803 c 128,-1,14
 349 781 349 781 311 781 c 256,15,16
 273 781 273 781 251 803 c 128,-1,17
 229 825 229 825 229 866 c 256,18,19
 229 907 229 907 251 929 c 128,-1,20
 273 951 273 951 311 951 c 256,21,22
 349 951 349 951 371 929 c 128,-1,23
 393 907 393 907 393 866 c 256,12,13
115 111 m 2,24,-1
 115 599 l 2,25,26
 115 621 115 621 97.5 628 c 128,-1,27
 80 635 80 635 54 635 c 2,28,-1
 38 635 l 1,29,-1
 38 710 l 1,30,-1
 378 710 l 1,31,-1
 378 635 l 1,32,-1
 363 635 l 2,33,34
 336 635 336 635 318.5 628 c 128,-1,35
 301 621 301 621 301 599 c 2,36,-1
 301 111 l 2,37,38
 301 89 301 89 318.5 82 c 128,-1,39
 336 75 336 75 363 75 c 2,40,-1
 378 75 l 1,41,-1
 378 0 l 1,42,-1
 38 0 l 1,43,-1
 38 75 l 1,44,-1
 54 75 l 2,45,46
 80 75 80 75 97.5 82 c 128,-1,47
 115 89 115 89 115 111 c 2,24,-1
EndSplineSet
EndChar

StartChar: Ljecyr
Encoding: 1033 1033 250
Width: 1069
GlyphClass: 2
Flags: W
AnchorPoint: "Anchor-0" 429 741 basechar 0
LayerCount: 2
Fore
SplineSet
251 710 m 1,0,-1
 556 710 l 1,1,-1
 556 629 l 1,2,-1
 251 629 l 1,3,-1
 251 710 l 1,0,-1
178 321 m 2,4,-1
 192 599 l 2,5,6
 194 621 194 621 176 628 c 128,-1,7
 158 635 158 635 131 635 c 2,8,-1
 117 635 l 1,9,-1
 117 710 l 1,10,-1
 292 710 l 1,11,-1
 272 318 l 2,12,13
 267 203 267 203 246 129.5 c 128,-1,14
 225 56 225 56 184.5 21 c 128,-1,15
 144 -14 144 -14 79 -14 c 0,16,17
 55 -14 55 -14 39 -9 c 128,-1,18
 23 -4 23 -4 14 1 c 1,19,-1
 14 166 l 1,20,21
 20 163 20 163 36 157 c 128,-1,22
 52 151 52 151 77 151 c 0,23,24
 111 151 111 151 132 169 c 128,-1,25
 153 187 153 187 164 224.5 c 128,-1,26
 175 262 175 262 178 321 c 2,4,-1
773 0 m 2,27,-1
 399 0 l 1,28,-1
 399 75 l 1,29,-1
 407 75 l 2,30,31
 422 75 422 75 436 76.5 c 128,-1,32
 450 78 450 78 459 80 c 128,-1,33
 468 82 468 82 468 85 c 2,34,-1
 468 710 l 1,35,-1
 730 710 l 1,36,-1
 730 635 l 1,37,-1
 714 635 l 2,38,39
 689 635 689 635 671.5 628 c 128,-1,40
 654 621 654 621 654 599 c 2,41,-1
 654 81 l 1,42,-1
 739 81 l 2,43,44
 777 81 777 81 803.5 96 c 128,-1,45
 830 111 830 111 843.5 142.5 c 128,-1,46
 857 174 857 174 857 220 c 0,47,48
 857 267 857 267 843.5 297 c 128,-1,49
 830 327 830 327 804 342 c 128,-1,50
 778 357 778 357 740 357 c 2,51,-1
 624 357 l 1,52,-1
 624 438 l 1,53,-1
 777 438 l 2,54,55
 861 438 861 438 919.5 413.5 c 128,-1,56
 978 389 978 389 1009.5 341 c 128,-1,57
 1041 293 1041 293 1041 222 c 0,58,59
 1041 153 1041 153 1008 103.5 c 128,-1,60
 975 54 975 54 915 27 c 128,-1,61
 855 0 855 0 773 0 c 2,27,-1
EndSplineSet
EndChar

StartChar: Njecyr
Encoding: 1034 1034 251
Width: 1126
GlyphClass: 2
Flags: W
AnchorPoint: "Anchor-0" 417 741 basechar 0
LayerCount: 2
Fore
SplineSet
197 429 m 1,0,-1
 600 429 l 1,1,-1
 600 348 l 1,2,-1
 197 348 l 1,3,-1
 197 429 l 1,0,-1
38 0 m 1,4,-1
 38 75 l 1,5,-1
 49 75 l 2,6,7
 76 75 76 75 93.5 82 c 128,-1,8
 111 89 111 89 111 111 c 2,9,-1
 111 599 l 2,10,11
 111 621 111 621 93.5 628 c 128,-1,12
 76 635 76 635 49 635 c 2,13,-1
 38 635 l 1,14,-1
 38 710 l 1,15,-1
 366 710 l 1,16,-1
 366 635 l 1,17,-1
 358 635 l 2,18,19
 345 635 345 635 330.5 634 c 128,-1,20
 316 633 316 633 306 631 c 128,-1,21
 296 629 296 629 296 625 c 2,22,-1
 296 85 l 2,23,24
 296 82 296 82 306 79.5 c 128,-1,25
 316 77 316 77 330.5 76 c 128,-1,26
 345 75 345 75 358 75 c 2,27,-1
 366 75 l 1,28,-1
 366 0 l 1,29,-1
 38 0 l 1,4,-1
455 0 m 1,30,-1
 455 75 l 1,31,-1
 464 75 l 2,32,33
 477 75 477 75 491 76 c 128,-1,34
 505 77 505 77 515 79.5 c 128,-1,35
 525 82 525 82 525 85 c 2,36,-1
 525 625 l 2,37,38
 525 629 525 629 515 631 c 128,-1,39
 505 633 505 633 491 634 c 128,-1,40
 477 635 477 635 464 635 c 2,41,-1
 455 635 l 1,42,-1
 455 710 l 1,43,-1
 787 710 l 1,44,-1
 787 635 l 1,45,-1
 772 635 l 2,46,47
 755 635 755 635 740.5 632 c 128,-1,48
 726 629 726 629 718 621.5 c 128,-1,49
 710 614 710 614 710 599 c 2,50,-1
 710 81 l 1,51,-1
 796 81 l 2,52,53
 834 81 834 81 860 95.5 c 128,-1,54
 886 110 886 110 899.5 140 c 128,-1,55
 913 170 913 170 913 216 c 0,56,57
 913 261 913 261 899.5 290 c 128,-1,58
 886 319 886 319 860 333.5 c 128,-1,59
 834 348 834 348 796 348 c 2,60,-1
 652 348 l 1,61,-1
 652 429 l 1,62,-1
 834 429 l 2,63,64
 917 429 917 429 976 405 c 128,-1,65
 1035 381 1035 381 1066 334 c 128,-1,66
 1097 287 1097 287 1097 217 c 0,67,68
 1097 150 1097 150 1064.5 101 c 128,-1,69
 1032 52 1032 52 972 26 c 128,-1,70
 912 0 912 0 830 0 c 2,71,-1
 455 0 l 1,30,-1
EndSplineSet
EndChar

StartChar: Tshecyr
Encoding: 1035 1035 252
Width: 959
GlyphClass: 2
Flags: W
AnchorPoint: "Anchor-0" 346 741 basechar 0
LayerCount: 2
Fore
SplineSet
626 414 m 0,0,1
 705 414 705 414 756.5 393 c 128,-1,2
 808 372 808 372 834 326.5 c 128,-1,3
 860 281 860 281 860 205 c 2,4,-1
 860 111 l 2,5,6
 860 89 860 89 877.5 82 c 128,-1,7
 895 75 895 75 922 75 c 2,8,-1
 933 75 l 1,9,-1
 933 0 l 1,10,-1
 675 0 l 1,11,-1
 675 194 l 2,12,13
 675 246 675 246 664.5 276 c 128,-1,14
 654 306 654 306 629.5 319 c 128,-1,15
 605 332 605 332 563 332 c 0,16,17
 529 332 529 332 494.5 325 c 128,-1,18
 460 318 460 318 427 299 c 1,19,-1
 427 375 l 1,20,21
 464 394 464 394 516.5 404 c 128,-1,22
 569 414 569 414 626 414 c 0,0,1
188 0 m 1,23,-1
 188 75 l 1,24,-1
 205 75 l 2,25,26
 232 75 232 75 250.5 82 c 128,-1,27
 269 89 269 89 269 111 c 2,28,-1
 269 629 l 1,29,-1
 250 629 l 2,30,31
 210 629 210 629 185.5 624.5 c 128,-1,32
 161 620 161 620 150 609.5 c 128,-1,33
 139 599 139 599 138 581 c 2,34,-1
 127 455 l 1,35,-1
 37 455 l 1,36,-1
 37 710 l 1,37,-1
 718 710 l 1,38,-1
 718 485 l 1,39,-1
 627 485 l 1,40,-1
 617 581 l 2,41,42
 615 599 615 599 604 609.5 c 128,-1,43
 593 620 593 620 569 624.5 c 128,-1,44
 545 629 545 629 505 629 c 2,45,-1
 455 629 l 1,46,-1
 455 85 l 2,47,48
 455 82 455 82 465 79.5 c 128,-1,49
 475 77 475 77 489.5 76 c 128,-1,50
 504 75 504 75 518 75 c 2,51,-1
 535 75 l 1,52,-1
 535 0 l 1,53,-1
 188 0 l 1,23,-1
EndSplineSet
EndChar

StartChar: Dzhecyr
Encoding: 1039 1039 253
Width: 836
GlyphClass: 2
Flags: W
AnchorPoint: "Anchor-0" 419 741 basechar 0
LayerCount: 2
Fore
SplineSet
38 710 m 1,0,-1
 366 710 l 1,1,-1
 366 635 l 1,2,-1
 358 635 l 2,3,4
 345 635 345 635 330.5 634 c 128,-1,5
 316 633 316 633 306 631 c 128,-1,6
 296 629 296 629 296 625 c 2,7,-1
 296 0 l 1,8,-1
 38 0 l 1,9,-1
 38 75 l 1,10,-1
 49 75 l 2,11,12
 76 75 76 75 93.5 82 c 128,-1,13
 111 89 111 89 111 111 c 2,14,-1
 111 599 l 2,15,16
 111 621 111 621 93.5 628 c 128,-1,17
 76 635 76 635 49 635 c 2,18,-1
 38 635 l 1,19,-1
 38 710 l 1,0,-1
470 710 m 1,20,-1
 797 710 l 1,21,-1
 797 635 l 1,22,-1
 787 635 l 2,23,24
 760 635 760 635 742.5 628 c 128,-1,25
 725 621 725 621 725 599 c 2,26,-1
 725 111 l 2,27,28
 725 89 725 89 742.5 82 c 128,-1,29
 760 75 760 75 787 75 c 2,30,-1
 797 75 l 1,31,-1
 797 0 l 1,32,-1
 539 0 l 1,33,-1
 539 625 l 2,34,35
 539 629 539 629 529.5 631 c 128,-1,36
 520 633 520 633 506 634 c 128,-1,37
 492 635 492 635 478 635 c 2,38,-1
 470 635 l 1,39,-1
 470 710 l 1,20,-1
187 0 m 1,40,-1
 187 81 l 1,41,-1
 645 81 l 1,42,-1
 645 0 l 1,43,-1
 579 0 l 2,44,45
 540 0 540 0 517.5 -4.5 c 128,-1,46
 495 -9 495 -9 484.5 -19.5 c 128,-1,47
 474 -30 474 -30 473 -48 c 2,48,-1
 463 -173 l 1,49,-1
 373 -173 l 1,50,-1
 363 -48 l 2,51,52
 362 -30 362 -30 351.5 -19.5 c 128,-1,53
 341 -9 341 -9 318.5 -4.5 c 128,-1,54
 296 0 296 0 257 0 c 2,55,-1
 187 0 l 1,40,-1
EndSplineSet
EndChar

StartChar: Becyr
Encoding: 1041 1041 257
Width: 719
GlyphClass: 2
Flags: W
AnchorPoint: "Anchor-0" 368 741 basechar 0
LayerCount: 2
Fore
SplineSet
38 710 m 1,0,-1
 628 710 l 1,1,-1
 628 505 l 1,2,-1
 540 505 l 1,3,-1
 531 586 l 2,4,5
 529 604 529 604 516.5 613.5 c 128,-1,6
 504 623 504 623 481.5 626 c 128,-1,7
 459 629 459 629 427 629 c 2,8,-1
 296 629 l 1,9,-1
 296 81 l 1,10,-1
 381 81 l 2,11,12
 419 81 419 81 445 95.5 c 128,-1,13
 471 110 471 110 485 139 c 128,-1,14
 499 168 499 168 499 212 c 256,15,16
 499 256 499 256 485.5 284.5 c 128,-1,17
 472 313 472 313 446 327 c 128,-1,18
 420 341 420 341 382 341 c 2,19,-1
 266 341 l 1,20,-1
 266 422 l 1,21,-1
 420 422 l 2,22,23
 504 422 504 422 563.5 398.5 c 128,-1,24
 623 375 623 375 654.5 328.5 c 128,-1,25
 686 282 686 282 686 214 c 0,26,27
 686 148 686 148 653 100 c 128,-1,28
 620 52 620 52 559.5 26 c 128,-1,29
 499 0 499 0 416 0 c 2,30,-1
 38 0 l 1,31,-1
 38 72 l 1,32,-1
 49 72 l 2,33,34
 76 72 76 72 93 79 c 128,-1,35
 110 86 110 86 110 108 c 2,36,-1
 110 601 l 2,37,38
 110 623 110 623 93 630.5 c 128,-1,39
 76 638 76 638 49 638 c 2,40,-1
 38 638 l 1,41,-1
 38 710 l 1,0,-1
EndSplineSet
EndChar

StartChar: Gecyr
Encoding: 1043 1043 259
Width: 646
GlyphClass: 2
Flags: W
AnchorPoint: "Anchor-0" 329 741 basechar 0
LayerCount: 2
Fore
SplineSet
296 629 m 1,0,-1
 296 111 l 2,1,2
 296 96 296 96 306 88 c 128,-1,3
 316 80 316 80 331.5 77.5 c 128,-1,4
 347 75 347 75 364 75 c 2,5,-1
 388 75 l 1,6,-1
 388 0 l 1,7,-1
 38 0 l 1,8,-1
 38 75 l 1,9,-1
 49 75 l 2,10,11
 76 75 76 75 93.5 82 c 128,-1,12
 111 89 111 89 111 111 c 2,13,-1
 111 599 l 2,14,15
 111 621 111 621 93.5 628 c 128,-1,16
 76 635 76 635 49 635 c 2,17,-1
 38 635 l 1,18,-1
 38 710 l 1,19,-1
 609 710 l 1,20,-1
 609 455 l 1,21,-1
 518 455 l 1,22,-1
 508 581 l 2,23,24
 507 599 507 599 495.5 610 c 128,-1,25
 484 621 484 621 462.5 625 c 128,-1,26
 441 629 441 629 407 629 c 2,27,-1
 296 629 l 1,0,-1
EndSplineSet
EndChar

StartChar: Decyr
Encoding: 1044 1044 261
Width: 809
GlyphClass: 2
Flags: W
AnchorPoint: "Anchor-0" 438 741 basechar 0
LayerCount: 2
Fore
SplineSet
244 710 m 1,0,-1
 576 710 l 1,1,-1
 576 629 l 1,2,-1
 244 629 l 1,3,-1
 244 710 l 1,0,-1
686 33 m 1,4,-1
 501 33 l 1,5,-1
 501 710 l 1,6,-1
 759 710 l 1,7,-1
 759 635 l 1,8,-1
 748 635 l 2,9,10
 721 635 721 635 703.5 628 c 128,-1,11
 686 621 686 621 686 599 c 2,12,-1
 686 33 l 1,4,-1
682 -49 m 2,13,14
 680 -31 680 -31 669.5 -20 c 128,-1,15
 659 -9 659 -9 636.5 -4.5 c 128,-1,16
 614 0 614 0 575 0 c 2,17,-1
 224 0 l 2,18,19
 186 0 186 0 163 -4.5 c 128,-1,20
 140 -9 140 -9 130 -20 c 128,-1,21
 120 -31 120 -31 118 -50 c 2,22,-1
 107 -173 l 1,23,-1
 16 -173 l 1,24,-1
 16 81 l 1,25,-1
 783 81 l 1,26,-1
 783 -173 l 1,27,-1
 692 -173 l 1,28,-1
 682 -49 l 2,13,14
183 49 m 1,29,-1
 71 49 l 1,30,31
 93 79 93 79 110 110 c 128,-1,32
 127 141 127 141 139.5 180 c 128,-1,33
 152 219 152 219 160 271 c 128,-1,34
 168 323 168 323 171 393 c 2,35,-1
 181 599 l 2,36,37
 182 621 182 621 164.5 628 c 128,-1,38
 147 635 147 635 120 635 c 2,39,-1
 106 635 l 1,40,-1
 106 710 l 1,41,-1
 280 710 l 1,42,-1
 264 390 l 2,43,44
 260 295 260 295 249 231.5 c 128,-1,45
 238 168 238 168 221.5 125.5 c 128,-1,46
 205 83 205 83 183 49 c 1,29,-1
EndSplineSet
Substitution2: "'locl' Localized Forms in Cyrillic lookup 12 subtable" De.bgr
EndChar

StartChar: Zhecyr
Encoding: 1046 1046 266
Width: 1182
GlyphClass: 2
Flags: W
AnchorPoint: "Anchor-1" 581 0 basechar 0
AnchorPoint: "Anchor-0" 581 741 basechar 0
LayerCount: 2
Fore
SplineSet
821 0 m 1,0,-1
 821 75 l 1,1,-1
 829 75 l 2,2,3
 844 75 844 75 857.5 76 c 128,-1,4
 871 77 871 77 880 79.5 c 128,-1,5
 889 82 889 82 889 85 c 2,6,-1
 712 342 l 1,7,-1
 712 368 l 1,8,-1
 945 625 l 2,9,10
 945 629 945 629 933.5 630.5 c 128,-1,11
 922 632 922 632 904 633.5 c 128,-1,12
 886 635 886 635 869 635 c 2,13,-1
 857 635 l 1,14,-1
 857 710 l 1,15,-1
 1131 710 l 1,16,-1
 1131 635 l 1,17,-1
 1109 635 l 2,18,19
 1092 635 1092 635 1079.5 632 c 128,-1,20
 1067 629 1067 629 1055 622.5 c 128,-1,21
 1043 616 1043 616 1032 603 c 2,22,-1
 805 355 l 1,23,-1
 852 450 l 1,24,-1
 1090 102 l 2,25,26
 1098 92 1098 92 1106.5 86 c 128,-1,27
 1115 80 1115 80 1125.5 77.5 c 128,-1,28
 1136 75 1136 75 1149 75 c 2,29,-1
 1161 75 l 1,30,-1
 1161 0 l 1,31,-1
 821 0 l 1,0,-1
354 0 m 1,32,-1
 21 0 l 1,33,-1
 21 75 l 1,34,-1
 33 75 l 2,35,36
 47 75 47 75 57 77.5 c 128,-1,37
 67 80 67 80 75.5 86 c 128,-1,38
 84 92 84 92 92 102 c 2,39,-1
 334 450 l 1,40,-1
 365 355 l 1,41,-1
 139 603 l 2,42,43
 128 616 128 616 116 622.5 c 128,-1,44
 104 629 104 629 91 632 c 128,-1,45
 78 635 78 635 61 635 c 2,46,-1
 39 635 l 1,47,-1
 39 710 l 1,48,-1
 318 710 l 1,49,-1
 318 635 l 1,50,-1
 306 635 l 2,51,52
 289 635 289 635 271.5 633.5 c 128,-1,53
 254 632 254 632 242 630.5 c 128,-1,54
 230 629 230 629 230 625 c 2,55,-1
 464 368 l 1,56,-1
 464 342 l 1,57,-1
 286 85 l 2,58,59
 286 82 286 82 295 79.5 c 128,-1,60
 304 77 304 77 318 76 c 128,-1,61
 332 75 332 75 346 75 c 2,62,-1
 354 75 l 1,63,-1
 354 0 l 1,32,-1
425 0 m 1,64,-1
 425 75 l 1,65,-1
 434 75 l 2,66,67
 444 75 444 75 454.5 75.5 c 128,-1,68
 465 76 465 76 474.5 77.5 c 128,-1,69
 484 79 484 79 489.5 80.5 c 128,-1,70
 495 82 495 82 495 85 c 2,71,-1
 495 625 l 2,72,73
 495 628 495 628 489.5 629.5 c 128,-1,74
 484 631 484 631 474.5 632.5 c 128,-1,75
 465 634 465 634 454.5 634.5 c 128,-1,76
 444 635 444 635 434 635 c 2,77,-1
 425 635 l 1,78,-1
 425 710 l 1,79,-1
 750 710 l 1,80,-1
 750 635 l 1,81,-1
 742 635 l 2,82,83
 732 635 732 635 721 634.5 c 128,-1,84
 710 634 710 634 701 632.5 c 128,-1,85
 692 631 692 631 686 629.5 c 128,-1,86
 680 628 680 628 680 625 c 2,87,-1
 680 85 l 2,88,89
 680 82 680 82 686 80.5 c 128,-1,90
 692 79 692 79 701 77.5 c 128,-1,91
 710 76 710 76 721 75.5 c 128,-1,92
 732 75 732 75 742 75 c 2,93,-1
 750 75 l 1,94,-1
 750 0 l 1,95,-1
 425 0 l 1,64,-1
EndSplineSet
EndChar

StartChar: Zecyr
Encoding: 1047 1047 269
Width: 702
GlyphClass: 2
Flags: W
AnchorPoint: "Anchor-1" 380 0 basechar 0
AnchorPoint: "Anchor-0" 380 741 basechar 0
LayerCount: 2
Fore
SplineSet
390 -17 m 0,0,1
 315 -17 315 -17 260 5.5 c 128,-1,2
 205 28 205 28 171.5 74 c 128,-1,3
 138 120 138 120 124 192 c 1,4,-1
 166 166 l 1,5,-1
 147 -5 l 1,6,-1
 63 -5 l 1,7,-1
 63 232 l 1,8,-1
 161 232 l 1,9,10
 176 181 176 181 201.5 144.5 c 128,-1,11
 227 108 227 108 263 88 c 128,-1,12
 299 68 299 68 345 68 c 0,13,14
 385 68 385 68 412.5 82 c 128,-1,15
 440 96 440 96 454 125 c 128,-1,16
 468 154 468 154 468 198 c 0,17,18
 468 238 468 238 455 265.5 c 128,-1,19
 442 293 442 293 413 306.5 c 128,-1,20
 384 320 384 320 336 317 c 0,21,22
 324 316 324 316 311 315.5 c 128,-1,23
 298 315 298 315 285 314 c 128,-1,24
 272 313 272 313 260 312 c 1,25,-1
 260 415 l 1,26,27
 272 415 272 415 284 414.5 c 128,-1,28
 296 414 296 414 308.5 413 c 128,-1,29
 321 412 321 412 333 411 c 0,30,31
 377 408 377 408 402 422.5 c 128,-1,32
 427 437 427 437 438.5 464.5 c 128,-1,33
 450 492 450 492 450 530 c 0,34,35
 450 565 450 565 439 590.5 c 128,-1,36
 428 616 428 616 405 629 c 128,-1,37
 382 642 382 642 346 642 c 0,38,39
 300 642 300 642 266 623 c 128,-1,40
 232 604 232 604 208 567.5 c 128,-1,41
 184 531 184 531 170 478 c 1,42,-1
 72 478 l 1,43,-1
 72 715 l 1,44,-1
 155 715 l 1,45,-1
 174 544 l 1,46,-1
 132 514 l 1,47,48
 142 568 142 568 163 608.5 c 128,-1,49
 184 649 184 649 216.5 675 c 128,-1,50
 249 701 249 701 292.5 714.5 c 128,-1,51
 336 728 336 728 391 728 c 0,52,53
 471 728 471 728 525.5 705.5 c 128,-1,54
 580 683 580 683 608.5 642 c 128,-1,55
 637 601 637 601 637 545 c 256,56,57
 637 489 637 489 607.5 450 c 128,-1,58
 578 411 578 411 523 390 c 128,-1,59
 468 369 468 369 392 369 c 1,60,-1
 433 400 l 1,61,-1
 433 341 l 1,62,-1
 403 375 l 1,63,64
 485 375 485 375 542 354 c 128,-1,65
 599 333 599 333 628.5 291.5 c 128,-1,66
 658 250 658 250 658 192 c 0,67,68
 658 141 658 141 638 102 c 128,-1,69
 618 63 618 63 582 36.5 c 128,-1,70
 546 10 546 10 497.5 -3.5 c 128,-1,71
 449 -17 449 -17 390 -17 c 0,0,1
EndSplineSet
EndChar

StartChar: Icyr
Encoding: 1048 1048 270
Width: 858
GlyphClass: 2
Flags: W
AnchorPoint: "Anchor-0" 430 741 basechar 0
LayerCount: 2
Fore
SplineSet
227 177 m 1,0,-1
 574 594 l 1,1,-1
 631 543 l 1,2,-1
 285 126 l 1,3,-1
 227 177 l 1,0,-1
38 0 m 1,4,-1
 38 75 l 1,5,-1
 49 75 l 2,6,7
 76 75 76 75 93.5 82 c 128,-1,8
 111 89 111 89 111 111 c 2,9,-1
 111 599 l 2,10,11
 111 621 111 621 93.5 628 c 128,-1,12
 76 635 76 635 49 635 c 2,13,-1
 38 635 l 1,14,-1
 38 710 l 1,15,-1
 366 710 l 1,16,-1
 366 635 l 1,17,-1
 358 635 l 2,18,19
 345 635 345 635 330.5 634 c 128,-1,20
 316 633 316 633 306 631 c 128,-1,21
 296 629 296 629 296 625 c 2,22,-1
 296 85 l 2,23,24
 296 82 296 82 306 79.5 c 128,-1,25
 316 77 316 77 330.5 76 c 128,-1,26
 345 75 345 75 358 75 c 2,27,-1
 366 75 l 1,28,-1
 366 0 l 1,29,-1
 38 0 l 1,4,-1
492 0 m 1,30,-1
 492 75 l 1,31,-1
 500 75 l 2,32,33
 514 75 514 75 528 76 c 128,-1,34
 542 77 542 77 552 79.5 c 128,-1,35
 562 82 562 82 562 85 c 2,36,-1
 562 625 l 2,37,38
 562 629 562 629 552 631 c 128,-1,39
 542 633 542 633 528 634 c 128,-1,40
 514 635 514 635 500 635 c 2,41,-1
 492 635 l 1,42,-1
 492 710 l 1,43,-1
 820 710 l 1,44,-1
 820 635 l 1,45,-1
 809 635 l 2,46,47
 782 635 782 635 764.5 628 c 128,-1,48
 747 621 747 621 747 599 c 2,49,-1
 747 111 l 2,50,51
 747 89 747 89 764.5 82 c 128,-1,52
 782 75 782 75 809 75 c 2,53,-1
 820 75 l 1,54,-1
 820 0 l 1,55,-1
 492 0 l 1,30,-1
EndSplineSet
EndChar

StartChar: Elcyr
Encoding: 1051 1051 276
Width: 786
GlyphClass: 2
Flags: W
AnchorPoint: "Anchor-0" 433 741 basechar 0
LayerCount: 2
Fore
SplineSet
245 710 m 1,0,-1
 577 710 l 1,1,-1
 577 629 l 1,2,-1
 245 629 l 1,3,-1
 245 710 l 1,0,-1
420 0 m 1,4,-1
 420 75 l 1,5,-1
 428 75 l 2,6,7
 441 75 441 75 455.5 76 c 128,-1,8
 470 77 470 77 479.5 79.5 c 128,-1,9
 489 82 489 82 489 85 c 2,10,-1
 489 710 l 1,11,-1
 747 710 l 1,12,-1
 747 635 l 1,13,-1
 737 635 l 2,14,15
 710 635 710 635 692.5 628 c 128,-1,16
 675 621 675 621 675 599 c 2,17,-1
 675 111 l 2,18,19
 675 89 675 89 692.5 82 c 128,-1,20
 710 75 710 75 737 75 c 2,21,-1
 747 75 l 1,22,-1
 747 0 l 1,23,-1
 420 0 l 1,4,-1
178 321 m 2,24,-1
 192 599 l 2,25,26
 194 621 194 621 176 628 c 128,-1,27
 158 635 158 635 131 635 c 2,28,-1
 117 635 l 1,29,-1
 117 710 l 1,30,-1
 292 710 l 1,31,-1
 272 318 l 2,32,33
 267 203 267 203 246 129.5 c 128,-1,34
 225 56 225 56 184.5 21 c 128,-1,35
 144 -14 144 -14 79 -14 c 0,36,37
 55 -14 55 -14 39 -9 c 128,-1,38
 23 -4 23 -4 14 1 c 1,39,-1
 14 166 l 1,40,41
 20 163 20 163 36 157 c 128,-1,42
 52 151 52 151 78 151 c 0,43,44
 111 151 111 151 132 169 c 128,-1,45
 153 187 153 187 164 224.5 c 128,-1,46
 175 262 175 262 178 321 c 2,24,-1
EndSplineSet
Substitution2: "'locl' Localized Forms in Cyrillic lookup 12 subtable" El.bgr
EndChar

StartChar: Pecyr
Encoding: 1055 1055 281
Width: 836
GlyphClass: 2
Flags: W
AnchorPoint: "Anchor-0" 419 741 basechar 0
LayerCount: 2
Fore
SplineSet
192 710 m 1,0,-1
 620 710 l 1,1,-1
 620 629 l 1,2,-1
 192 629 l 1,3,-1
 192 710 l 1,0,-1
38 0 m 1,4,-1
 38 75 l 1,5,-1
 49 75 l 2,6,7
 76 75 76 75 93.5 82 c 128,-1,8
 111 89 111 89 111 111 c 2,9,-1
 111 599 l 2,10,11
 111 621 111 621 93.5 628 c 128,-1,12
 76 635 76 635 49 635 c 2,13,-1
 38 635 l 1,14,-1
 38 710 l 1,15,-1
 296 710 l 1,16,-1
 296 85 l 2,17,18
 296 82 296 82 306 79.5 c 128,-1,19
 316 77 316 77 330.5 76 c 128,-1,20
 345 75 345 75 358 75 c 2,21,-1
 366 75 l 1,22,-1
 366 0 l 1,23,-1
 38 0 l 1,4,-1
470 0 m 1,24,-1
 470 75 l 1,25,-1
 478 75 l 2,26,27
 492 75 492 75 506 76 c 128,-1,28
 520 77 520 77 529.5 79.5 c 128,-1,29
 539 82 539 82 539 85 c 2,30,-1
 539 710 l 1,31,-1
 797 710 l 1,32,-1
 797 635 l 1,33,-1
 787 635 l 2,34,35
 760 635 760 635 742.5 628 c 128,-1,36
 725 621 725 621 725 599 c 2,37,-1
 725 111 l 2,38,39
 725 89 725 89 742.5 82 c 128,-1,40
 760 75 760 75 787 75 c 2,41,-1
 797 75 l 1,42,-1
 797 0 l 1,43,-1
 470 0 l 1,24,-1
EndSplineSet
EndChar

StartChar: Ucyr
Encoding: 1059 1059 285
Width: 716
GlyphClass: 2
Flags: W
AnchorPoint: "Anchor-1" 237 0 basechar 0
AnchorPoint: "Anchor-0" 365 741 basechar 0
LayerCount: 2
Fore
SplineSet
425 196 m 2,0,1
 396 140 396 140 372 100 c 128,-1,2
 348 60 348 60 324.5 34.5 c 128,-1,3
 301 9 301 9 273 -2.5 c 128,-1,4
 245 -14 245 -14 208 -14 c 0,5,6
 183 -14 183 -14 163.5 -9 c 128,-1,7
 144 -4 144 -4 133 2 c 1,8,-1
 133 149 l 1,9,10
 146 143 146 143 171 136 c 128,-1,11
 196 129 196 129 225 129 c 0,12,13
 265 129 265 129 289 139 c 128,-1,14
 313 149 313 149 331.5 174.5 c 128,-1,15
 350 200 350 200 372 246 c 2,16,-1
 549 614 l 2,17,18
 549 621 549 621 540.5 625.5 c 128,-1,19
 532 630 532 630 518 632.5 c 128,-1,20
 504 635 504 635 487 635 c 2,21,-1
 476 635 l 1,22,-1
 476 710 l 1,23,-1
 698 710 l 1,24,-1
 698 635 l 1,25,-1
 691 635 l 2,26,27
 677 635 677 635 665.5 630.5 c 128,-1,28
 654 626 654 626 644 615.5 c 128,-1,29
 634 605 634 605 624 585 c 2,30,-1
 425 196 l 2,0,1
435 286 m 1,31,-1
 331 144 l 1,32,-1
 88 596 l 2,33,34
 79 611 79 611 70 619.5 c 128,-1,35
 61 628 61 628 50 631.5 c 128,-1,36
 39 635 39 635 25 635 c 2,37,-1
 18 635 l 1,38,-1
 18 710 l 1,39,-1
 338 710 l 1,40,-1
 338 635 l 1,41,-1
 324 635 l 2,42,43
 308 635 308 635 294 633.5 c 128,-1,44
 280 632 280 632 272 630 c 128,-1,45
 264 628 264 628 264 624 c 2,46,-1
 435 286 l 1,31,-1
EndSplineSet
EndChar

StartChar: Efcyr
Encoding: 1060 1060 290
Width: 992
GlyphClass: 2
Flags: W
AnchorPoint: "Anchor-1" 496 0 basechar 0
AnchorPoint: "Anchor-0" 496 741 basechar 0
LayerCount: 2
Fore
SplineSet
403 84 m 2,0,-1
 403 625 l 2,1,2
 403 648 403 648 385.5 655 c 128,-1,3
 368 662 368 662 341 662 c 2,4,-1
 326 662 l 1,5,-1
 326 733 l 1,6,-1
 666 733 l 1,7,-1
 666 662 l 1,8,-1
 650 662 l 2,9,10
 624 662 624 662 606.5 655 c 128,-1,11
 589 648 589 648 589 626 c 2,12,-1
 589 85 l 2,13,14
 589 62 589 62 606.5 55 c 128,-1,15
 624 48 624 48 650 48 c 2,16,-1
 666 48 l 1,17,-1
 666 -22 l 1,18,-1
 326 -22 l 1,19,-1
 326 48 l 1,20,-1
 341 48 l 2,21,22
 368 48 368 48 385.5 55 c 128,-1,23
 403 62 403 62 403 84 c 2,0,-1
411 597 m 1,24,-1
 411 511 l 1,25,26
 342 511 342 511 300.5 493.5 c 128,-1,27
 259 476 259 476 240 442 c 128,-1,28
 221 408 221 408 221 357 c 0,29,30
 221 307 221 307 240 272.5 c 128,-1,31
 259 238 259 238 300.5 220.5 c 128,-1,32
 342 203 342 203 411 203 c 1,33,-1
 411 117 l 1,34,35
 284 117 284 117 200 145.5 c 128,-1,36
 116 174 116 174 74 228 c 128,-1,37
 32 282 32 282 32 357 c 256,38,39
 32 432 32 432 74 486 c 128,-1,40
 116 540 116 540 200 568.5 c 128,-1,41
 284 597 284 597 411 597 c 1,24,-1
581 117 m 1,42,-1
 581 203 l 1,43,44
 650 203 650 203 691.5 220.5 c 128,-1,45
 733 238 733 238 751.5 272.5 c 128,-1,46
 770 307 770 307 770 357 c 0,47,48
 770 408 770 408 751.5 442 c 128,-1,49
 733 476 733 476 691.5 493.5 c 128,-1,50
 650 511 650 511 581 511 c 1,51,-1
 581 597 l 1,52,53
 708 597 708 597 792 568.5 c 128,-1,54
 876 540 876 540 918 486 c 128,-1,55
 960 432 960 432 960 357 c 256,56,57
 960 282 960 282 918.5 228 c 128,-1,58
 877 174 877 174 792.5 145.5 c 128,-1,59
 708 117 708 117 581 117 c 1,42,-1
EndSplineSet
EndChar

StartChar: Tsecyr
Encoding: 1062 1062 292
Width: 848
GlyphClass: 2
Flags: W
AnchorPoint: "Anchor-0" 424 741 basechar 0
LayerCount: 2
Fore
SplineSet
217 0 m 1,0,-1
 217 81 l 1,1,-1
 648 81 l 1,2,-1
 648 0 l 1,3,-1
 217 0 l 1,0,-1
38 710 m 1,4,-1
 366 710 l 1,5,-1
 366 635 l 1,6,-1
 358 635 l 2,7,8
 345 635 345 635 330.5 634 c 128,-1,9
 316 633 316 633 306 631 c 128,-1,10
 296 629 296 629 296 625 c 2,11,-1
 296 0 l 1,12,-1
 38 0 l 1,13,-1
 38 75 l 1,14,-1
 49 75 l 2,15,16
 76 75 76 75 93.5 82 c 128,-1,17
 111 89 111 89 111 111 c 2,18,-1
 111 599 l 2,19,20
 111 621 111 621 93.5 628 c 128,-1,21
 76 635 76 635 49 635 c 2,22,-1
 38 635 l 1,23,-1
 38 710 l 1,4,-1
470 710 m 1,24,-1
 797 710 l 1,25,-1
 797 635 l 1,26,-1
 787 635 l 2,27,28
 760 635 760 635 742.5 628 c 128,-1,29
 725 621 725 621 725 599 c 2,30,-1
 725 7 l 1,31,-1
 539 7 l 1,32,-1
 539 625 l 2,33,34
 539 629 539 629 529.5 631 c 128,-1,35
 520 633 520 633 506 634 c 128,-1,36
 492 635 492 635 478 635 c 2,37,-1
 470 635 l 1,38,-1
 470 710 l 1,24,-1
563 0 m 1,39,-1
 563 81 l 1,40,-1
 822 81 l 1,41,-1
 822 -173 l 1,42,-1
 732 -173 l 1,43,-1
 720 -49 l 2,44,45
 719 -31 719 -31 708.5 -20 c 128,-1,46
 698 -9 698 -9 675.5 -4.5 c 128,-1,47
 653 0 653 0 615 0 c 2,48,-1
 563 0 l 1,39,-1
EndSplineSet
EndChar

StartChar: Checyr
Encoding: 1063 1063 293
Width: 812
GlyphClass: 2
Flags: W
AnchorPoint: "Anchor-0" 398 741 basechar 0
LayerCount: 2
Fore
SplineSet
446 0 m 1,0,-1
 446 75 l 1,1,-1
 454 75 l 2,2,3
 468 75 468 75 482 76 c 128,-1,4
 496 77 496 77 505.5 79.5 c 128,-1,5
 515 82 515 82 515 85 c 2,6,-1
 515 625 l 2,7,8
 515 629 515 629 505.5 631 c 128,-1,9
 496 633 496 633 482 634 c 128,-1,10
 468 635 468 635 454 635 c 2,11,-1
 446 635 l 1,12,-1
 446 710 l 1,13,-1
 773 710 l 1,14,-1
 773 635 l 1,15,-1
 763 635 l 2,16,17
 736 635 736 635 718.5 628 c 128,-1,18
 701 621 701 621 701 599 c 2,19,-1
 701 111 l 2,20,21
 701 89 701 89 718.5 82 c 128,-1,22
 736 75 736 75 763 75 c 2,23,-1
 773 75 l 1,24,-1
 773 0 l 1,25,-1
 446 0 l 1,0,-1
337 271 m 0,26,27
 257 271 257 271 204.5 291.5 c 128,-1,28
 152 312 152 312 125.5 358.5 c 128,-1,29
 99 405 99 405 99 480 c 2,30,-1
 99 599 l 2,31,32
 99 621 99 621 81.5 628 c 128,-1,33
 64 635 64 635 37 635 c 2,34,-1
 26 635 l 1,35,-1
 26 710 l 1,36,-1
 354 710 l 1,37,-1
 354 635 l 1,38,-1
 346 635 l 2,39,40
 333 635 333 635 318.5 634 c 128,-1,41
 304 633 304 633 294 631 c 128,-1,42
 284 629 284 629 284 625 c 2,43,-1
 284 491 l 2,44,45
 284 439 284 439 295 408.5 c 128,-1,46
 306 378 306 378 331.5 365.5 c 128,-1,47
 357 353 357 353 400 353 c 0,48,49
 438 353 438 353 474.5 360 c 128,-1,50
 511 367 511 367 545 385 c 1,51,-1
 545 309 l 1,52,53
 507 292 507 292 452.5 281.5 c 128,-1,54
 398 271 398 271 337 271 c 0,26,27
EndSplineSet
EndChar

StartChar: Shacyr
Encoding: 1064 1064 294
Width: 1192
GlyphClass: 2
Flags: W
AnchorPoint: "Anchor-0" 586 741 basechar 0
LayerCount: 2
Fore
SplineSet
976 0 m 1,0,-1
 216 0 l 1,1,-1
 216 81 l 1,2,-1
 976 81 l 1,3,-1
 976 0 l 1,0,-1
1153 710 m 1,4,-1
 1153 635 l 1,5,-1
 1143 635 l 2,6,7
 1116 635 1116 635 1098.5 628 c 128,-1,8
 1081 621 1081 621 1081 599 c 2,9,-1
 1081 111 l 2,10,11
 1081 89 1081 89 1098.5 82 c 128,-1,12
 1116 75 1116 75 1143 75 c 2,13,-1
 1153 75 l 1,14,-1
 1153 0 l 1,15,-1
 895 0 l 1,16,-1
 895 625 l 2,17,18
 895 629 895 629 885.5 631 c 128,-1,19
 876 633 876 633 861.5 634 c 128,-1,20
 847 635 847 635 834 635 c 2,21,-1
 826 635 l 1,22,-1
 826 710 l 1,23,-1
 1153 710 l 1,4,-1
366 710 m 1,24,-1
 366 635 l 1,25,-1
 358 635 l 2,26,27
 345 635 345 635 330.5 634 c 128,-1,28
 316 633 316 633 306 631 c 128,-1,29
 296 629 296 629 296 625 c 2,30,-1
 296 0 l 1,31,-1
 38 0 l 1,32,-1
 38 75 l 1,33,-1
 49 75 l 2,34,35
 76 75 76 75 93.5 82 c 128,-1,36
 111 89 111 89 111 111 c 2,37,-1
 111 599 l 2,38,39
 111 621 111 621 93.5 628 c 128,-1,40
 76 635 76 635 49 635 c 2,41,-1
 38 635 l 1,42,-1
 38 710 l 1,43,-1
 366 710 l 1,24,-1
433 710 m 1,44,-1
 759 710 l 1,45,-1
 759 635 l 1,46,-1
 750 635 l 2,47,48
 737 635 737 635 723 634 c 128,-1,49
 709 633 709 633 699 631 c 128,-1,50
 689 629 689 629 689 625 c 2,51,-1
 689 0 l 1,52,-1
 503 0 l 1,53,-1
 503 625 l 2,54,55
 503 629 503 629 493 631 c 128,-1,56
 483 633 483 633 469 634 c 128,-1,57
 455 635 455 635 442 635 c 2,58,-1
 433 635 l 1,59,-1
 433 710 l 1,44,-1
EndSplineSet
EndChar

StartChar: Shchacyr
Encoding: 1065 1065 295
Width: 1204
GlyphClass: 2
Flags: W
AnchorPoint: "Anchor-0" 592 741 basechar 0
LayerCount: 2
Fore
SplineSet
971 0 m 1,0,-1
 216 0 l 1,1,-1
 216 81 l 1,2,-1
 971 81 l 1,3,-1
 971 0 l 1,0,-1
366 710 m 1,4,-1
 366 635 l 1,5,-1
 358 635 l 2,6,7
 345 635 345 635 330.5 634 c 128,-1,8
 316 633 316 633 306 631 c 128,-1,9
 296 629 296 629 296 625 c 2,10,-1
 296 0 l 1,11,-1
 38 0 l 1,12,-1
 38 75 l 1,13,-1
 49 75 l 2,14,15
 76 75 76 75 93.5 82 c 128,-1,16
 111 89 111 89 111 111 c 2,17,-1
 111 599 l 2,18,19
 111 621 111 621 93.5 628 c 128,-1,20
 76 635 76 635 49 635 c 2,21,-1
 38 635 l 1,22,-1
 38 710 l 1,23,-1
 366 710 l 1,4,-1
826 710 m 1,24,-1
 1153 710 l 1,25,-1
 1153 635 l 1,26,-1
 1143 635 l 2,27,28
 1116 635 1116 635 1098.5 628 c 128,-1,29
 1081 621 1081 621 1081 599 c 2,30,-1
 1081 7 l 1,31,-1
 895 7 l 1,32,-1
 895 625 l 2,33,34
 895 629 895 629 885.5 631 c 128,-1,35
 876 633 876 633 861.5 634 c 128,-1,36
 847 635 847 635 834 635 c 2,37,-1
 826 635 l 1,38,-1
 826 710 l 1,24,-1
970 0 m 2,39,-1
 924 0 l 1,40,-1
 924 81 l 1,41,-1
 1178 81 l 1,42,-1
 1178 -173 l 1,43,-1
 1087 -173 l 1,44,-1
 1076 -49 l 2,45,46
 1075 -31 1075 -31 1064.5 -20 c 128,-1,47
 1054 -9 1054 -9 1031.5 -4.5 c 128,-1,48
 1009 0 1009 0 970 0 c 2,39,-1
433 710 m 1,49,-1
 759 710 l 1,50,-1
 759 635 l 1,51,-1
 750 635 l 2,52,53
 737 635 737 635 723 634 c 128,-1,54
 709 633 709 633 699 631 c 128,-1,55
 689 629 689 629 689 625 c 2,56,-1
 689 4 l 1,57,-1
 503 4 l 1,58,-1
 503 625 l 2,59,60
 503 629 503 629 493 631 c 128,-1,61
 483 633 483 633 469 634 c 128,-1,62
 455 635 455 635 442 635 c 2,63,-1
 433 635 l 1,64,-1
 433 710 l 1,49,-1
EndSplineSet
EndChar

StartChar: Hardcyr
Encoding: 1066 1066 296
Width: 861
GlyphClass: 2
Flags: W
AnchorPoint: "Anchor-0" 302 741 basechar 0
LayerCount: 2
Fore
SplineSet
564 0 m 2,0,-1
 187 0 l 1,1,-1
 187 72 l 1,2,-1
 198 72 l 2,3,4
 225 72 225 72 242 79 c 128,-1,5
 259 86 259 86 259 108 c 2,6,-1
 259 629 l 1,7,-1
 250 629 l 2,8,9
 210 629 210 629 185.5 624.5 c 128,-1,10
 161 620 161 620 150 609.5 c 128,-1,11
 139 599 139 599 138 581 c 2,12,-1
 127 455 l 1,13,-1
 37 455 l 1,14,-1
 37 710 l 1,15,-1
 530 710 l 1,16,-1
 530 635 l 1,17,-1
 508 635 l 2,18,19
 492 635 492 635 477.5 634 c 128,-1,20
 463 633 463 633 454 631 c 128,-1,21
 445 629 445 629 445 625 c 2,22,-1
 445 81 l 1,23,-1
 530 81 l 2,24,25
 568 81 568 81 594.5 96 c 128,-1,26
 621 111 621 111 634.5 142.5 c 128,-1,27
 648 174 648 174 648 221 c 0,28,29
 648 267 648 267 634.5 297 c 128,-1,30
 621 327 621 327 595 342 c 128,-1,31
 569 357 569 357 531 357 c 2,32,-1
 413 357 l 1,33,-1
 413 438 l 1,34,-1
 568 438 l 2,35,36
 652 438 652 438 710.5 413.5 c 128,-1,37
 769 389 769 389 800.5 341 c 128,-1,38
 832 293 832 293 832 222 c 0,39,40
 832 153 832 153 799 103.5 c 128,-1,41
 766 54 766 54 706.5 27 c 128,-1,42
 647 0 647 0 564 0 c 2,0,-1
EndSplineSet
EndChar

StartChar: Ylongcyr
Encoding: 1067 1067 297
Width: 1066
GlyphClass: 2
Flags: W
AnchorPoint: "Anchor-1" 524 0 basechar 0
AnchorPoint: "Anchor-0" 524 741 basechar 0
LayerCount: 2
Fore
SplineSet
770 85 m 2,0,-1
 770 625 l 2,1,2
 770 629 770 629 760 631 c 128,-1,3
 750 633 750 633 736 634 c 128,-1,4
 722 635 722 635 709 635 c 2,5,-1
 700 635 l 1,6,-1
 700 710 l 1,7,-1
 1027 710 l 1,8,-1
 1027 635 l 1,9,-1
 1017 635 l 2,10,11
 990 635 990 635 972.5 628 c 128,-1,12
 955 621 955 621 955 599 c 2,13,-1
 955 111 l 2,14,15
 955 89 955 89 972.5 82 c 128,-1,16
 990 75 990 75 1017 75 c 2,17,-1
 1027 75 l 1,18,-1
 1027 0 l 1,19,-1
 700 0 l 1,20,-1
 700 75 l 1,21,-1
 709 75 l 2,22,23
 722 75 722 75 736 76 c 128,-1,24
 750 77 750 77 760 79.5 c 128,-1,25
 770 82 770 82 770 85 c 2,0,-1
416 0 m 2,26,-1
 38 0 l 1,27,-1
 38 72 l 1,28,-1
 49 72 l 2,29,30
 76 72 76 72 93 79 c 128,-1,31
 110 86 110 86 110 108 c 2,32,-1
 110 602 l 2,33,34
 110 624 110 624 93 631 c 128,-1,35
 76 638 76 638 49 638 c 2,36,-1
 38 638 l 1,37,-1
 38 710 l 1,38,-1
 382 710 l 1,39,-1
 382 635 l 1,40,-1
 359 635 l 2,41,42
 344 635 344 635 329.5 634 c 128,-1,43
 315 633 315 633 305.5 631 c 128,-1,44
 296 629 296 629 296 625 c 2,45,-1
 296 81 l 1,46,-1
 381 81 l 2,47,48
 419 81 419 81 445.5 96 c 128,-1,49
 472 111 472 111 485.5 142.5 c 128,-1,50
 499 174 499 174 499 220 c 0,51,52
 499 267 499 267 485.5 297 c 128,-1,53
 472 327 472 327 446 342 c 128,-1,54
 420 357 420 357 382 357 c 2,55,-1
 266 357 l 1,56,-1
 266 438 l 1,57,-1
 420 438 l 2,58,59
 503 438 503 438 562 413.5 c 128,-1,60
 621 389 621 389 652 341 c 128,-1,61
 683 293 683 293 683 222 c 0,62,63
 683 153 683 153 650.5 103.5 c 128,-1,64
 618 54 618 54 558 27 c 128,-1,65
 498 0 498 0 416 0 c 2,26,-1
EndSplineSet
EndChar

StartChar: Softcyr
Encoding: 1068 1068 298
Width: 712
GlyphClass: 2
Flags: W
AnchorPoint: "Anchor-0" 208 741 basechar 0
LayerCount: 2
Fore
SplineSet
416 0 m 2,0,-1
 38 0 l 1,1,-1
 38 72 l 1,2,-1
 49 72 l 2,3,4
 76 72 76 72 93 79 c 128,-1,5
 110 86 110 86 110 108 c 2,6,-1
 110 602 l 2,7,8
 110 624 110 624 93 631 c 128,-1,9
 76 638 76 638 49 638 c 2,10,-1
 38 638 l 1,11,-1
 38 710 l 1,12,-1
 382 710 l 1,13,-1
 382 635 l 1,14,-1
 359 635 l 2,15,16
 343 635 343 635 329 634 c 128,-1,17
 315 633 315 633 305.5 631 c 128,-1,18
 296 629 296 629 296 625 c 2,19,-1
 296 81 l 1,20,-1
 381 81 l 2,21,22
 419 81 419 81 445.5 96 c 128,-1,23
 472 111 472 111 485.5 142.5 c 128,-1,24
 499 174 499 174 499 220 c 0,25,26
 499 267 499 267 485.5 297 c 128,-1,27
 472 327 472 327 446 342 c 128,-1,28
 420 357 420 357 382 357 c 2,29,-1
 266 357 l 1,30,-1
 266 438 l 1,31,-1
 420 438 l 2,32,33
 503 438 503 438 562 413.5 c 128,-1,34
 621 389 621 389 652 341 c 128,-1,35
 683 293 683 293 683 222 c 0,36,37
 683 153 683 153 650.5 103.5 c 128,-1,38
 618 54 618 54 558 27 c 128,-1,39
 498 0 498 0 416 0 c 2,0,-1
EndSplineSet
EndChar

StartChar: Ereversedcyr
Encoding: 1069 1069 299
Width: 752
GlyphClass: 2
Flags: W
AnchorPoint: "Anchor-1" 363 0 basechar 0
AnchorPoint: "Anchor-0" 363 741 basechar 0
LayerCount: 2
Fore
SplineSet
539 400 m 1,0,-1
 539 329 l 1,1,2
 503 326 503 326 466.5 324 c 128,-1,3
 430 322 430 322 394 320.5 c 128,-1,4
 358 319 358 319 322 317 c 128,-1,5
 286 315 286 315 251 313 c 1,6,-1
 251 416 l 1,7,8
 286 413 286 413 322 411.5 c 128,-1,9
 358 410 358 410 394 408 c 128,-1,10
 430 406 430 406 466.5 404 c 128,-1,11
 503 402 503 402 539 400 c 1,0,-1
365 -17 m 0,12,13
 291 -17 291 -17 242 8 c 128,-1,14
 193 33 193 33 164.5 80 c 128,-1,15
 136 127 136 127 124 193 c 1,16,-1
 166 166 l 1,17,-1
 147 -5 l 1,18,-1
 63 -5 l 1,19,-1
 63 232 l 1,20,-1
 161 232 l 1,21,22
 177 182 177 182 201 145 c 128,-1,23
 225 108 225 108 260 88 c 128,-1,24
 295 68 295 68 343 68 c 0,25,26
 385 68 385 68 417 85.5 c 128,-1,27
 449 103 449 103 471 138.5 c 128,-1,28
 493 174 493 174 504 228 c 128,-1,29
 515 282 515 282 515 355 c 0,30,31
 515 427 515 427 505 481 c 128,-1,32
 495 535 495 535 473.5 570.5 c 128,-1,33
 452 606 452 606 419 624 c 128,-1,34
 386 642 386 642 341 642 c 0,35,36
 293 642 293 642 258.5 622 c 128,-1,37
 224 602 224 602 200 565.5 c 128,-1,38
 176 529 176 529 161 478 c 1,39,-1
 63 478 l 1,40,-1
 63 715 l 1,41,-1
 147 715 l 1,42,-1
 166 544 l 1,43,-1
 123 514 l 1,44,45
 136 580 136 580 164.5 628 c 128,-1,46
 193 676 193 676 242.5 702 c 128,-1,47
 292 728 292 728 365 728 c 0,48,49
 441 728 441 728 504 704 c 128,-1,50
 567 680 567 680 613 633 c 128,-1,51
 659 586 659 586 684.5 516.5 c 128,-1,52
 710 447 710 447 710 355 c 0,53,54
 710 268 710 268 683.5 199 c 128,-1,55
 657 130 657 130 610.5 81.5 c 128,-1,56
 564 33 564 33 501 8 c 128,-1,57
 438 -17 438 -17 365 -17 c 0,12,13
EndSplineSet
Substitution2: "'ss01' Style Set 1 lookup 61 subtable" Ecyr.alt1
EndChar

StartChar: Yucyr
Encoding: 1070 1070 300
Width: 1157
GlyphClass: 2
Flags: W
AnchorPoint: "Anchor-1" 602 0 basechar 0
AnchorPoint: "Anchor-0" 602 741 basechar 0
LayerCount: 2
Fore
SplineSet
195 406 m 1,0,-1
 529 406 l 1,1,-1
 529 325 l 1,2,-1
 195 325 l 1,3,-1
 195 406 l 1,0,-1
38 0 m 1,4,-1
 38 75 l 1,5,-1
 49 75 l 2,6,7
 76 75 76 75 93.5 82 c 128,-1,8
 111 89 111 89 111 111 c 2,9,-1
 111 599 l 2,10,11
 111 621 111 621 93.5 628 c 128,-1,12
 76 635 76 635 49 635 c 2,13,-1
 38 635 l 1,14,-1
 38 710 l 1,15,-1
 366 710 l 1,16,-1
 366 635 l 1,17,-1
 358 635 l 2,18,19
 348 635 348 635 337 634.5 c 128,-1,20
 326 634 326 634 317 632.5 c 128,-1,21
 308 631 308 631 302 629.5 c 128,-1,22
 296 628 296 628 296 625 c 2,23,-1
 296 85 l 2,24,25
 296 82 296 82 302 80.5 c 128,-1,26
 308 79 308 79 317 77.5 c 128,-1,27
 326 76 326 76 337 75.5 c 128,-1,28
 348 75 348 75 358 75 c 2,29,-1
 366 75 l 1,30,-1
 366 0 l 1,31,-1
 38 0 l 1,4,-1
755 -17 m 256,32,33
 675 -17 675 -17 609 7.5 c 128,-1,34
 543 32 543 32 495 80 c 128,-1,35
 447 128 447 128 421 197.5 c 128,-1,36
 395 267 395 267 395 355 c 256,37,38
 395 443 395 443 421 512.5 c 128,-1,39
 447 582 447 582 495 629.5 c 128,-1,40
 543 677 543 677 609 702.5 c 128,-1,41
 675 728 675 728 755 728 c 256,42,43
 835 728 835 728 900.5 702.5 c 128,-1,44
 966 677 966 677 1014 629.5 c 128,-1,45
 1062 582 1062 582 1088 512.5 c 128,-1,46
 1114 443 1114 443 1114 355 c 256,47,48
 1114 267 1114 267 1088 197.5 c 128,-1,49
 1062 128 1062 128 1014 80 c 128,-1,50
 966 32 966 32 900.5 7.5 c 128,-1,51
 835 -17 835 -17 755 -17 c 256,32,33
755 68 m 0,52,53
 794 68 794 68 825 85 c 128,-1,54
 856 102 856 102 877 137.5 c 128,-1,55
 898 173 898 173 909 227 c 128,-1,56
 920 281 920 281 920 355 c 256,57,58
 920 429 920 429 909 483 c 128,-1,59
 898 537 898 537 877 572.5 c 128,-1,60
 856 608 856 608 825 625 c 128,-1,61
 794 642 794 642 755 642 c 0,62,63
 715 642 715 642 684.5 625 c 128,-1,64
 654 608 654 608 632.5 572.5 c 128,-1,65
 611 537 611 537 600 483 c 128,-1,66
 589 429 589 429 589 355 c 256,67,68
 589 281 589 281 600 227 c 128,-1,69
 611 173 611 173 632.5 137.5 c 128,-1,70
 654 102 654 102 684.5 85 c 128,-1,71
 715 68 715 68 755 68 c 0,52,53
EndSplineSet
EndChar

StartChar: Yacyr
Encoding: 1071 1071 301
Width: 775
GlyphClass: 2
Flags: W
AnchorPoint: "Anchor-1" 388 0 basechar 0
AnchorPoint: "Anchor-0" 427 741 basechar 0
LayerCount: 2
Fore
SplineSet
399 316 m 1,0,-1
 243 0 l 1,1,-1
 28 0 l 1,2,-1
 28 75 l 1,3,-1
 37 75 l 2,4,5
 52 75 52 75 64 79 c 128,-1,6
 76 83 76 83 86.5 92.5 c 128,-1,7
 97 102 97 102 107 120 c 2,8,-1
 234 351 l 1,9,-1
 399 316 l 1,0,-1
479 85 m 2,10,-1
 479 632 l 1,11,-1
 385 632 l 2,12,13
 350 632 350 632 326 616.5 c 128,-1,14
 302 601 302 601 289.5 571.5 c 128,-1,15
 277 542 277 542 277 499 c 0,16,17
 277 457 277 457 289 426.5 c 128,-1,18
 301 396 301 396 326 379.5 c 128,-1,19
 351 363 351 363 388 363 c 2,20,-1
 502 363 l 1,21,-1
 502 286 l 1,22,-1
 335 286 l 1,23,-1
 313 299 l 1,24,25
 240 305 240 305 189.5 332 c 128,-1,26
 139 359 139 359 112.5 403 c 128,-1,27
 86 447 86 447 86 504 c 0,28,29
 86 569 86 569 117 615.5 c 128,-1,30
 148 662 148 662 207.5 686 c 128,-1,31
 267 710 267 710 353 710 c 2,32,-1
 736 710 l 1,33,-1
 736 635 l 1,34,-1
 726 635 l 2,35,36
 699 635 699 635 681.5 628 c 128,-1,37
 664 621 664 621 664 599 c 2,38,-1
 664 111 l 2,39,40
 664 89 664 89 681.5 82 c 128,-1,41
 699 75 699 75 726 75 c 2,42,-1
 736 75 l 1,43,-1
 736 0 l 1,44,-1
 404 0 l 1,45,-1
 404 75 l 1,46,-1
 418 75 l 2,47,48
 429 75 429 75 440 75.5 c 128,-1,49
 451 76 451 76 459.5 77.5 c 128,-1,50
 468 79 468 79 473.5 80.5 c 128,-1,51
 479 82 479 82 479 85 c 2,10,-1
EndSplineSet
EndChar

StartChar: Geupcyr
Encoding: 1168 1168 302
Width: 643
GlyphClass: 2
Flags: W
AnchorPoint: "Anchor-0" 303 741 basechar 0
LayerCount: 2
Fore
SplineSet
296 629 m 1,0,-1
 296 111 l 2,1,2
 296 96 296 96 306 88 c 128,-1,3
 316 80 316 80 331.5 77.5 c 128,-1,4
 347 75 347 75 364 75 c 2,5,-1
 388 75 l 1,6,-1
 388 0 l 1,7,-1
 38 0 l 1,8,-1
 38 75 l 1,9,-1
 49 75 l 2,10,11
 76 75 76 75 93.5 82 c 128,-1,12
 111 89 111 89 111 111 c 2,13,-1
 111 599 l 2,14,15
 111 621 111 621 93.5 628 c 128,-1,16
 76 635 76 635 49 635 c 2,17,-1
 38 635 l 1,18,-1
 38 710 l 1,19,-1
 410 710 l 2,20,21
 442 710 442 710 462.5 714.5 c 128,-1,22
 483 719 483 719 494 729.5 c 128,-1,23
 505 740 505 740 507 758 c 2,24,-1
 517 883 l 1,25,-1
 609 883 l 1,26,-1
 609 629 l 1,27,-1
 296 629 l 1,0,-1
EndSplineSet
EndChar

StartChar: Gestrokecyr
Encoding: 1170 1170 303
Width: 646
GlyphClass: 2
Flags: W
AnchorPoint: "Anchor-0" 329 741 basechar 0
LayerCount: 2
Fore
SplineSet
38 400 m 1,0,-1
 430 400 l 1,1,-1
 430 318 l 1,2,-1
 38 318 l 1,3,-1
 38 400 l 1,0,-1
296 629 m 1,4,-1
 296 111 l 2,5,6
 296 96 296 96 306 88 c 128,-1,7
 316 80 316 80 331.5 77.5 c 128,-1,8
 347 75 347 75 364 75 c 2,9,-1
 388 75 l 1,10,-1
 388 0 l 1,11,-1
 38 0 l 1,12,-1
 38 75 l 1,13,-1
 49 75 l 2,14,15
 76 75 76 75 93.5 82 c 128,-1,16
 111 89 111 89 111 111 c 2,17,-1
 111 599 l 2,18,19
 111 621 111 621 93.5 628 c 128,-1,20
 76 635 76 635 49 635 c 2,21,-1
 38 635 l 1,22,-1
 38 710 l 1,23,-1
 609 710 l 1,24,-1
 609 468 l 1,25,-1
 518 468 l 1,26,-1
 508 583 l 2,27,28
 506 601 506 601 495 611 c 128,-1,29
 484 621 484 621 462.5 625 c 128,-1,30
 441 629 441 629 407 629 c 2,31,-1
 296 629 l 1,4,-1
EndSplineSet
EndChar

StartChar: Zhetailcyr
Encoding: 1174 1174 304
Width: 1188
GlyphClass: 2
Flags: W
AnchorPoint: "Anchor-0" 584 741 basechar 0
LayerCount: 2
Fore
SplineSet
821 0 m 1,0,-1
 821 75 l 1,1,-1
 829 75 l 2,2,3
 844 75 844 75 857.5 76 c 128,-1,4
 871 77 871 77 880 79.5 c 128,-1,5
 889 82 889 82 889 85 c 2,6,-1
 712 342 l 1,7,-1
 712 368 l 1,8,-1
 945 625 l 2,9,10
 945 629 945 629 933.5 630.5 c 128,-1,11
 922 632 922 632 904 633.5 c 128,-1,12
 886 635 886 635 869 635 c 2,13,-1
 857 635 l 1,14,-1
 857 710 l 1,15,-1
 1131 710 l 1,16,-1
 1131 635 l 1,17,-1
 1109 635 l 2,18,19
 1092 635 1092 635 1079.5 632 c 128,-1,20
 1067 629 1067 629 1055 622.5 c 128,-1,21
 1043 616 1043 616 1032 603 c 2,22,-1
 805 355 l 1,23,-1
 852 450 l 1,24,-1
 1107 79 l 1,25,-1
 1107 0 l 1,26,-1
 821 0 l 1,0,-1
354 0 m 1,27,-1
 21 0 l 1,28,-1
 21 75 l 1,29,-1
 33 75 l 2,30,31
 47 75 47 75 57 77.5 c 128,-1,32
 67 80 67 80 75.5 86 c 128,-1,33
 84 92 84 92 92 102 c 2,34,-1
 334 450 l 1,35,-1
 365 355 l 1,36,-1
 139 603 l 2,37,38
 128 616 128 616 116 622.5 c 128,-1,39
 104 629 104 629 91 632 c 128,-1,40
 78 635 78 635 61 635 c 2,41,-1
 39 635 l 1,42,-1
 39 710 l 1,43,-1
 318 710 l 1,44,-1
 318 635 l 1,45,-1
 306 635 l 2,46,47
 289 635 289 635 271.5 633.5 c 128,-1,48
 254 632 254 632 242 630.5 c 128,-1,49
 230 629 230 629 230 625 c 2,50,-1
 464 368 l 1,51,-1
 464 342 l 1,52,-1
 286 85 l 2,53,54
 286 82 286 82 295 79.5 c 128,-1,55
 304 77 304 77 318 76 c 128,-1,56
 332 75 332 75 346 75 c 2,57,-1
 354 75 l 1,58,-1
 354 0 l 1,27,-1
971 0 m 2,59,-1
 927 0 l 1,60,-1
 927 81 l 1,61,-1
 1179 81 l 1,62,-1
 1179 -173 l 1,63,-1
 1088 -173 l 1,64,-1
 1077 -49 l 2,65,66
 1076 -31 1076 -31 1065.5 -20 c 128,-1,67
 1055 -9 1055 -9 1032 -4.5 c 128,-1,68
 1009 0 1009 0 971 0 c 2,59,-1
425 0 m 1,69,-1
 425 75 l 1,70,-1
 434 75 l 2,71,72
 444 75 444 75 454.5 75.5 c 128,-1,73
 465 76 465 76 474.5 77.5 c 128,-1,74
 484 79 484 79 489.5 80.5 c 128,-1,75
 495 82 495 82 495 85 c 2,76,-1
 495 625 l 2,77,78
 495 628 495 628 489.5 629.5 c 128,-1,79
 484 631 484 631 474.5 632.5 c 128,-1,80
 465 634 465 634 454.5 634.5 c 128,-1,81
 444 635 444 635 434 635 c 2,82,-1
 425 635 l 1,83,-1
 425 710 l 1,84,-1
 750 710 l 1,85,-1
 750 635 l 1,86,-1
 742 635 l 2,87,88
 732 635 732 635 721 634.5 c 128,-1,89
 710 634 710 634 701 632.5 c 128,-1,90
 692 631 692 631 686 629.5 c 128,-1,91
 680 628 680 628 680 625 c 2,92,-1
 680 85 l 2,93,94
 680 82 680 82 686 80.5 c 128,-1,95
 692 79 692 79 701 77.5 c 128,-1,96
 710 76 710 76 721 75.5 c 128,-1,97
 732 75 732 75 742 75 c 2,98,-1
 750 75 l 1,99,-1
 750 0 l 1,100,-1
 425 0 l 1,69,-1
EndSplineSet
EndChar

StartChar: Katailcyr
Encoding: 1178 1178 306
Width: 823
GlyphClass: 2
Flags: W
AnchorPoint: "Anchor-0" 420 741 basechar 0
LayerCount: 2
Fore
SplineSet
38 0 m 1,0,-1
 38 75 l 1,1,-1
 49 75 l 2,2,3
 76 75 76 75 93.5 82 c 128,-1,4
 111 89 111 89 111 111 c 2,5,-1
 111 599 l 2,6,7
 111 621 111 621 93.5 628 c 128,-1,8
 76 635 76 635 49 635 c 2,9,-1
 38 635 l 1,10,-1
 38 710 l 1,11,-1
 375 710 l 1,12,-1
 375 635 l 1,13,-1
 364 635 l 2,14,15
 352 635 352 635 339.5 634.5 c 128,-1,16
 327 634 327 634 317.5 632.5 c 128,-1,17
 308 631 308 631 302 629.5 c 128,-1,18
 296 628 296 628 296 625 c 2,19,-1
 296 85 l 2,20,21
 296 82 296 82 301.5 80.5 c 128,-1,22
 307 79 307 79 315 77.5 c 128,-1,23
 323 76 323 76 333 75.5 c 128,-1,24
 343 75 343 75 352 75 c 2,25,-1
 360 75 l 1,26,-1
 360 0 l 1,27,-1
 38 0 l 1,0,-1
449 0 m 1,28,-1
 449 75 l 1,29,-1
 457 75 l 2,30,31
 472 75 472 75 485.5 76 c 128,-1,32
 499 77 499 77 508 79.5 c 128,-1,33
 517 82 517 82 517 85 c 2,34,-1
 327 342 l 1,35,-1
 327 368 l 1,36,-1
 574 625 l 2,37,38
 574 629 574 629 562 630.5 c 128,-1,39
 550 632 550 632 532.5 633.5 c 128,-1,40
 515 635 515 635 498 635 c 2,41,-1
 485 635 l 1,42,-1
 485 710 l 1,43,-1
 760 710 l 1,44,-1
 760 635 l 1,45,-1
 738 635 l 2,46,47
 722 635 722 635 709 632 c 128,-1,48
 696 629 696 629 684.5 622.5 c 128,-1,49
 673 616 673 616 661 603 c 2,50,-1
 423 356 l 1,51,-1
 467 450 l 1,52,-1
 741 79 l 1,53,-1
 741 0 l 1,54,-1
 449 0 l 1,28,-1
605 0 m 2,55,-1
 561 0 l 1,56,-1
 561 81 l 1,57,-1
 814 81 l 1,58,-1
 814 -173 l 1,59,-1
 722 -173 l 1,60,-1
 712 -49 l 2,61,62
 710 -31 710 -31 699.5 -20 c 128,-1,63
 689 -9 689 -9 666.5 -4.5 c 128,-1,64
 644 0 644 0 605 0 c 2,55,-1
EndSplineSet
EndChar

StartChar: Kaverticalstrokecyr
Encoding: 1180 1180 307
Width: 904
GlyphClass: 2
Flags: W
AnchorPoint: "Anchor-0" 472 741 basechar 0
LayerCount: 2
Fore
SplineSet
366 167 m 1,0,-1
 366 540 l 1,1,-1
 448 540 l 1,2,-1
 448 167 l 1,3,-1
 366 167 l 1,0,-1
38 0 m 1,4,-1
 38 75 l 1,5,-1
 49 75 l 2,6,7
 76 75 76 75 93.5 82 c 128,-1,8
 111 89 111 89 111 111 c 2,9,-1
 111 599 l 2,10,11
 111 621 111 621 93.5 628 c 128,-1,12
 76 635 76 635 49 635 c 2,13,-1
 38 635 l 1,14,-1
 38 710 l 1,15,-1
 375 710 l 1,16,-1
 375 635 l 1,17,-1
 364 635 l 2,18,19
 352 635 352 635 339.5 634.5 c 128,-1,20
 327 634 327 634 317.5 632.5 c 128,-1,21
 308 631 308 631 302 629.5 c 128,-1,22
 296 628 296 628 296 625 c 2,23,-1
 296 85 l 2,24,25
 296 82 296 82 301.5 80.5 c 128,-1,26
 307 79 307 79 315 77.5 c 128,-1,27
 323 76 323 76 333 75.5 c 128,-1,28
 343 75 343 75 352 75 c 2,29,-1
 360 75 l 1,30,-1
 360 0 l 1,31,-1
 38 0 l 1,4,-1
551 0 m 1,32,-1
 551 75 l 1,33,-1
 559 75 l 2,34,35
 574 75 574 75 587.5 76 c 128,-1,36
 601 77 601 77 610 79.5 c 128,-1,37
 619 82 619 82 619 85 c 2,38,-1
 477 342 l 1,39,-1
 477 368 l 1,40,-1
 675 625 l 2,41,42
 675 629 675 629 663 630.5 c 128,-1,43
 651 632 651 632 633.5 633.5 c 128,-1,44
 616 635 616 635 599 635 c 2,45,-1
 587 635 l 1,46,-1
 587 710 l 1,47,-1
 857 710 l 1,48,-1
 857 635 l 1,49,-1
 835 635 l 2,50,51
 810 635 810 635 791.5 629 c 128,-1,52
 773 623 773 623 757 603 c 2,53,-1
 565 355 l 1,54,-1
 616 456 l 1,55,-1
 812 102 l 2,56,57
 819 91 819 91 827.5 85 c 128,-1,58
 836 79 836 79 847 77 c 128,-1,59
 858 75 858 75 871 75 c 2,60,-1
 883 75 l 1,61,-1
 883 0 l 1,62,-1
 551 0 l 1,32,-1
EndSplineSet
EndChar

StartChar: Kabashkcyr
Encoding: 1184 1184 308
Width: 977
GlyphClass: 2
Flags: W
AnchorPoint: "Anchor-0" 578 741 basechar 0
LayerCount: 2
Fore
SplineSet
611 0 m 1,0,-1
 611 75 l 1,1,-1
 618 75 l 2,2,3
 633 75 633 75 647 76 c 128,-1,4
 661 77 661 77 669.5 79.5 c 128,-1,5
 678 82 678 82 678 85 c 2,6,-1
 489 342 l 1,7,-1
 489 368 l 1,8,-1
 735 625 l 2,9,10
 735 629 735 629 723 630.5 c 128,-1,11
 711 632 711 632 693.5 633.5 c 128,-1,12
 676 635 676 635 659 635 c 2,13,-1
 646 635 l 1,14,-1
 646 710 l 1,15,-1
 922 710 l 1,16,-1
 922 635 l 1,17,-1
 900 635 l 2,18,19
 883 635 883 635 870 632 c 128,-1,20
 857 629 857 629 845.5 622.5 c 128,-1,21
 834 616 834 616 822 603 c 2,22,-1
 585 356 l 1,23,-1
 628 450 l 1,24,-1
 885 102 l 2,25,26
 894 92 894 92 902.5 86 c 128,-1,27
 911 80 911 80 921.5 77.5 c 128,-1,28
 932 75 932 75 944 75 c 2,29,-1
 957 75 l 1,30,-1
 957 0 l 1,31,-1
 611 0 l 1,0,-1
200 0 m 1,32,-1
 200 75 l 1,33,-1
 210 75 l 2,34,35
 237 75 237 75 254.5 82 c 128,-1,36
 272 89 272 89 272 111 c 2,37,-1
 272 629 l 1,38,-1
 250 629 l 2,39,40
 210 629 210 629 185.5 624.5 c 128,-1,41
 161 620 161 620 150 609.5 c 128,-1,42
 139 599 139 599 138 581 c 2,43,-1
 127 455 l 1,44,-1
 37 455 l 1,45,-1
 37 710 l 1,46,-1
 536 710 l 1,47,-1
 536 635 l 1,48,-1
 525 635 l 2,49,50
 509 635 509 635 493.5 634 c 128,-1,51
 478 633 478 633 468 631 c 128,-1,52
 458 629 458 629 458 625 c 2,53,-1
 458 85 l 2,54,55
 458 82 458 82 466.5 79.5 c 128,-1,56
 475 77 475 77 488.5 76 c 128,-1,57
 502 75 502 75 514 75 c 2,58,-1
 522 75 l 1,59,-1
 522 0 l 1,60,-1
 200 0 l 1,32,-1
EndSplineSet
EndChar

StartChar: Entailcyr
Encoding: 1186 1186 309
Width: 857
GlyphClass: 2
Flags: W
AnchorPoint: "Anchor-0" 428 741 basechar 0
LayerCount: 2
Fore
SplineSet
197 406 m 1,0,-1
 620 406 l 1,1,-1
 620 325 l 1,2,-1
 197 325 l 1,3,-1
 197 406 l 1,0,-1
38 0 m 1,4,-1
 38 75 l 1,5,-1
 49 75 l 2,6,7
 76 75 76 75 93.5 82 c 128,-1,8
 111 89 111 89 111 111 c 2,9,-1
 111 599 l 2,10,11
 111 621 111 621 93.5 628 c 128,-1,12
 76 635 76 635 49 635 c 2,13,-1
 38 635 l 1,14,-1
 38 710 l 1,15,-1
 366 710 l 1,16,-1
 366 635 l 1,17,-1
 358 635 l 2,18,19
 348 635 348 635 337 634.5 c 128,-1,20
 326 634 326 634 317 632.5 c 128,-1,21
 308 631 308 631 302 629.5 c 128,-1,22
 296 628 296 628 296 625 c 2,23,-1
 296 85 l 2,24,25
 296 82 296 82 302 80.5 c 128,-1,26
 308 79 308 79 317 77.5 c 128,-1,27
 326 76 326 76 337 75.5 c 128,-1,28
 348 75 348 75 358 75 c 2,29,-1
 366 75 l 1,30,-1
 366 0 l 1,31,-1
 38 0 l 1,4,-1
479 0 m 1,32,-1
 479 75 l 1,33,-1
 487 75 l 2,34,35
 497 75 497 75 508 75.5 c 128,-1,36
 519 76 519 76 528 77.5 c 128,-1,37
 537 79 537 79 542.5 80.5 c 128,-1,38
 548 82 548 82 548 85 c 2,39,-1
 548 625 l 2,40,41
 548 628 548 628 542.5 629.5 c 128,-1,42
 537 631 537 631 528 632.5 c 128,-1,43
 519 634 519 634 508 634.5 c 128,-1,44
 497 635 497 635 487 635 c 2,45,-1
 479 635 l 1,46,-1
 479 710 l 1,47,-1
 806 710 l 1,48,-1
 806 635 l 1,49,-1
 796 635 l 2,50,51
 769 635 769 635 751.5 628 c 128,-1,52
 734 621 734 621 734 599 c 2,53,-1
 734 0 l 1,54,-1
 479 0 l 1,32,-1
623 0 m 2,55,-1
 579 0 l 1,56,-1
 579 81 l 1,57,-1
 831 81 l 1,58,-1
 831 -173 l 1,59,-1
 740 -173 l 1,60,-1
 729 -49 l 2,61,62
 728 -31 728 -31 717.5 -20 c 128,-1,63
 707 -9 707 -9 684 -4.5 c 128,-1,64
 661 0 661 0 623 0 c 2,55,-1
EndSplineSet
EndChar

StartChar: Tetailcyr
Encoding: 1196 1196 311
Width: 746
GlyphClass: 2
Flags: W
AnchorPoint: "Anchor-0" 366 741 basechar 0
LayerCount: 2
Fore
SplineSet
280 111 m 2,0,-1
 280 629 l 1,1,-1
 250 629 l 2,2,3
 210 629 210 629 185.5 624.5 c 128,-1,4
 161 620 161 620 150 609.5 c 128,-1,5
 139 599 139 599 138 581 c 2,6,-1
 127 455 l 1,7,-1
 37 455 l 1,8,-1
 37 710 l 1,9,-1
 709 710 l 1,10,-1
 709 455 l 1,11,-1
 618 455 l 1,12,-1
 608 581 l 2,13,14
 607 599 607 599 595.5 609.5 c 128,-1,15
 584 620 584 620 560 624.5 c 128,-1,16
 536 629 536 629 496 629 c 2,17,-1
 466 629 l 1,18,-1
 466 0 l 1,19,-1
 199 0 l 1,20,-1
 199 75 l 1,21,-1
 216 75 l 2,22,23
 243 75 243 75 261.5 82 c 128,-1,24
 280 89 280 89 280 111 c 2,0,-1
362 0 m 2,25,-1
 310 0 l 1,26,-1
 310 81 l 1,27,-1
 570 81 l 1,28,-1
 570 -173 l 1,29,-1
 479 -173 l 1,30,-1
 468 -49 l 2,31,32
 467 -31 467 -31 456.5 -20 c 128,-1,33
 446 -9 446 -9 423 -4.5 c 128,-1,34
 400 0 400 0 362 0 c 2,25,-1
EndSplineSet
EndChar

StartChar: Ustraightstrokecyr
Encoding: 1200 1200 313
Width: 716
GlyphClass: 2
Flags: W
AnchorPoint: "Anchor-1" 358 0 basechar 0
AnchorPoint: "Anchor-0" 359 741 basechar 0
LayerCount: 2
Fore
SplineSet
140 283 m 1,0,-1
 582 283 l 1,1,-1
 582 204 l 1,2,-1
 140 204 l 1,3,-1
 140 283 l 1,0,-1
268 304 m 1,4,-1
 278 268 l 1,5,-1
 88 596 l 2,6,7
 79 611 79 611 70 620 c 128,-1,8
 61 629 61 629 50 632 c 128,-1,9
 39 635 39 635 25 635 c 2,10,-1
 18 635 l 1,11,-1
 18 710 l 1,12,-1
 340 710 l 1,13,-1
 340 635 l 1,14,-1
 326 635 l 2,15,16
 309 635 309 635 295.5 633.5 c 128,-1,17
 282 632 282 632 273.5 630 c 128,-1,18
 265 628 265 628 265 624 c 2,19,-1
 432 321 l 1,20,-1
 386 313 l 1,21,-1
 549 614 l 2,22,23
 549 621 549 621 540.5 625.5 c 128,-1,24
 532 630 532 630 518 632.5 c 128,-1,25
 504 635 504 635 487 635 c 2,26,-1
 476 635 l 1,27,-1
 476 710 l 1,28,-1
 698 710 l 1,29,-1
 698 635 l 1,30,-1
 691 635 l 2,31,32
 677 635 677 635 665.5 630.5 c 128,-1,33
 654 626 654 626 644 615.5 c 128,-1,34
 634 605 634 605 624 585 c 2,35,-1
 443 265 l 1,36,-1
 454 308 l 1,37,-1
 454 111 l 2,38,39
 454 89 454 89 472 82 c 128,-1,40
 490 75 490 75 517 75 c 2,41,-1
 534 75 l 1,42,-1
 534 0 l 1,43,-1
 188 0 l 1,44,-1
 188 75 l 1,45,-1
 205 75 l 2,46,47
 232 75 232 75 250 82 c 128,-1,48
 268 89 268 89 268 111 c 2,49,-1
 268 304 l 1,4,-1
EndSplineSet
EndChar

StartChar: Xatailcyr
Encoding: 1202 1202 314
Width: 764
GlyphClass: 2
Flags: W
AnchorPoint: "Anchor-0" 390 741 basechar 0
LayerCount: 2
Fore
SplineSet
29 635 m 1,0,-1
 29 710 l 1,1,-1
 365 710 l 1,2,-1
 365 635 l 1,3,-1
 350 635 l 2,4,5
 337 635 337 635 323 634 c 128,-1,6
 309 633 309 633 300 631 c 128,-1,7
 291 629 291 629 291 625 c 2,8,-1
 446 401 l 1,9,-1
 456 396 l 1,10,-1
 681 79 l 1,11,-1
 681 0 l 1,12,-1
 392 0 l 1,13,-1
 392 75 l 1,14,-1
 407 75 l 2,15,16
 420 75 420 75 433.5 76 c 128,-1,17
 447 77 447 77 456.5 79.5 c 128,-1,18
 466 82 466 82 466 85 c 2,19,-1
 294 331 l 1,20,-1
 284 336 l 1,21,-1
 98 601 l 2,22,23
 83 623 83 623 70 629 c 128,-1,24
 57 635 57 635 35 635 c 2,25,-1
 29 635 l 1,0,-1
22 0 m 1,26,-1
 22 75 l 1,27,-1
 33 75 l 2,28,29
 55 75 55 75 69.5 85 c 128,-1,30
 84 95 84 95 102 121 c 2,31,-1
 291 392 l 1,32,-1
 351 348 l 1,33,-1
 174 93 l 2,34,35
 174 88 174 88 183.5 84 c 128,-1,36
 193 80 193 80 207 77.5 c 128,-1,37
 221 75 221 75 234 75 c 2,38,-1
 249 75 l 1,39,-1
 249 0 l 1,40,-1
 22 0 l 1,26,-1
464 347 m 1,41,-1
 412 400 l 1,42,-1
 558 617 l 2,43,44
 558 623 558 623 548.5 627 c 128,-1,45
 539 631 539 631 525.5 633 c 128,-1,46
 512 635 512 635 498 635 c 2,47,-1
 485 635 l 1,48,-1
 485 710 l 1,49,-1
 708 710 l 1,50,-1
 708 635 l 1,51,-1
 702 635 l 2,52,53
 680 635 680 635 664.5 625.5 c 128,-1,54
 649 616 649 616 631 590 c 2,55,-1
 464 347 l 1,41,-1
546 0 m 2,56,-1
 502 0 l 1,57,-1
 502 81 l 1,58,-1
 754 81 l 1,59,-1
 754 -173 l 1,60,-1
 663 -173 l 1,61,-1
 652 -49 l 2,62,63
 651 -31 651 -31 640.5 -20 c 128,-1,64
 630 -9 630 -9 607 -4.5 c 128,-1,65
 584 0 584 0 546 0 c 2,56,-1
EndSplineSet
EndChar

StartChar: Chetailcyr
Encoding: 1206 1206 315
Width: 824
GlyphClass: 2
Flags: W
AnchorPoint: "Anchor-0" 405 741 basechar 0
LayerCount: 2
Fore
SplineSet
337 271 m 0,0,1
 257 271 257 271 204.5 292 c 128,-1,2
 152 313 152 313 125.5 359 c 128,-1,3
 99 405 99 405 99 481 c 2,4,-1
 99 599 l 2,5,6
 99 621 99 621 81.5 628 c 128,-1,7
 64 635 64 635 37 635 c 2,8,-1
 26 635 l 1,9,-1
 26 710 l 1,10,-1
 354 710 l 1,11,-1
 354 635 l 1,12,-1
 346 635 l 2,13,14
 333 635 333 635 318.5 634 c 128,-1,15
 304 633 304 633 294 631 c 128,-1,16
 284 629 284 629 284 625 c 2,17,-1
 284 492 l 2,18,19
 284 440 284 440 295.5 409.5 c 128,-1,20
 307 379 307 379 332 366 c 128,-1,21
 357 353 357 353 400 353 c 0,22,23
 437 353 437 353 473 360.5 c 128,-1,24
 509 368 509 368 544 386 c 1,25,-1
 544 311 l 1,26,27
 505 293 505 293 451 282 c 128,-1,28
 397 271 397 271 337 271 c 0,0,1
446 0 m 1,29,-1
 446 75 l 1,30,-1
 454 75 l 2,31,32
 468 75 468 75 482 76 c 128,-1,33
 496 77 496 77 505.5 79.5 c 128,-1,34
 515 82 515 82 515 85 c 2,35,-1
 515 625 l 2,36,37
 515 629 515 629 505.5 631 c 128,-1,38
 496 633 496 633 482 634 c 128,-1,39
 468 635 468 635 454 635 c 2,40,-1
 446 635 l 1,41,-1
 446 710 l 1,42,-1
 773 710 l 1,43,-1
 773 635 l 1,44,-1
 763 635 l 2,45,46
 736 635 736 635 718.5 628 c 128,-1,47
 701 621 701 621 701 599 c 2,48,-1
 701 0 l 1,49,-1
 446 0 l 1,29,-1
590 0 m 2,50,-1
 546 0 l 1,51,-1
 554 81 l 1,52,-1
 798 81 l 1,53,-1
 798 -173 l 1,54,-1
 707 -173 l 1,55,-1
 696 -49 l 2,56,57
 695 -31 695 -31 684.5 -20 c 128,-1,58
 674 -9 674 -9 651.5 -4.5 c 128,-1,59
 629 0 629 0 590 0 c 2,50,-1
EndSplineSet
EndChar

StartChar: Chevertcyr
Encoding: 1208 1208 316
Width: 855
GlyphClass: 2
Flags: W
AnchorPoint: "Anchor-0" 420 741 basechar 0
LayerCount: 2
Fore
SplineSet
489 0 m 1,0,-1
 489 75 l 1,1,-1
 498 75 l 2,2,3
 511 75 511 75 525 76 c 128,-1,4
 539 77 539 77 549 79.5 c 128,-1,5
 559 82 559 82 559 85 c 2,6,-1
 559 625 l 2,7,8
 559 629 559 629 549 631 c 128,-1,9
 539 633 539 633 525 634 c 128,-1,10
 511 635 511 635 498 635 c 2,11,-1
 489 635 l 1,12,-1
 489 710 l 1,13,-1
 817 710 l 1,14,-1
 817 635 l 1,15,-1
 806 635 l 2,16,17
 780 635 780 635 762.5 628 c 128,-1,18
 745 621 745 621 745 599 c 2,19,-1
 745 111 l 2,20,21
 745 89 745 89 762.5 82 c 128,-1,22
 780 75 780 75 806 75 c 2,23,-1
 817 75 l 1,24,-1
 817 0 l 1,25,-1
 489 0 l 1,0,-1
353 271 m 0,26,27
 268 271 268 271 211.5 292 c 128,-1,28
 155 313 155 313 127 359 c 128,-1,29
 99 405 99 405 99 481 c 2,30,-1
 99 599 l 2,31,32
 99 621 99 621 81.5 628 c 128,-1,33
 64 635 64 635 37 635 c 2,34,-1
 26 635 l 1,35,-1
 26 710 l 1,36,-1
 354 710 l 1,37,-1
 354 635 l 1,38,-1
 346 635 l 2,39,40
 333 635 333 635 318.5 634 c 128,-1,41
 304 633 304 633 294 631 c 128,-1,42
 284 629 284 629 284 625 c 2,43,-1
 284 492 l 2,44,45
 284 440 284 440 297 409.5 c 128,-1,46
 310 379 310 379 339.5 366 c 128,-1,47
 369 353 369 353 419 353 c 0,48,49
 462 353 462 353 504 360 c 128,-1,50
 546 367 546 367 583 386 c 1,51,-1
 583 310 l 1,52,53
 542 291 542 291 482.5 281 c 128,-1,54
 423 271 423 271 353 271 c 0,26,27
383 158 m 1,55,-1
 383 531 l 1,56,-1
 465 531 l 1,57,-1
 465 158 l 1,58,-1
 383 158 l 1,55,-1
EndSplineSet
EndChar

StartChar: Shhacyr
Encoding: 1210 1210 317
Width: 811
GlyphClass: 1
Flags: W
LayerCount: 2
Fore
SplineSet
366 710 m 1,0,-1
 366 635 l 1,1,-1
 358 635 l 2,2,3
 345 635 345 635 330.5 634 c 128,-1,4
 316 633 316 633 306 631 c 128,-1,5
 296 629 296 629 296 625 c 2,6,-1
 296 85 l 2,7,8
 296 82 296 82 306 79.5 c 128,-1,9
 316 77 316 77 330.5 76 c 128,-1,10
 345 75 345 75 358 75 c 2,11,-1
 366 75 l 1,12,-1
 366 0 l 1,13,-1
 38 0 l 1,14,-1
 38 75 l 1,15,-1
 49 75 l 2,16,17
 76 75 76 75 93.5 82 c 128,-1,18
 111 89 111 89 111 111 c 2,19,-1
 111 599 l 2,20,21
 111 621 111 621 93.5 628 c 128,-1,22
 76 635 76 635 49 635 c 2,23,-1
 38 635 l 1,24,-1
 38 710 l 1,25,-1
 366 710 l 1,0,-1
475 439 m 0,26,27
 555 439 555 439 607.5 418.5 c 128,-1,28
 660 398 660 398 686.5 352 c 128,-1,29
 713 306 713 306 713 230 c 2,30,-1
 713 111 l 2,31,32
 713 89 713 89 730.5 82 c 128,-1,33
 748 75 748 75 775 75 c 2,34,-1
 785 75 l 1,35,-1
 785 0 l 1,36,-1
 458 0 l 1,37,-1
 458 75 l 1,38,-1
 466 75 l 2,39,40
 480 75 480 75 494 76 c 128,-1,41
 508 77 508 77 517.5 79.5 c 128,-1,42
 527 82 527 82 527 85 c 2,43,-1
 527 219 l 2,44,45
 527 271 527 271 516.5 301.5 c 128,-1,46
 506 332 506 332 481 344.5 c 128,-1,47
 456 357 456 357 412 357 c 0,48,49
 374 357 374 357 337.5 350 c 128,-1,50
 301 343 301 343 266 325 c 1,51,-1
 266 401 l 1,52,53
 305 418 305 418 359.5 428.5 c 128,-1,54
 414 439 414 439 475 439 c 0,26,27
EndSplineSet
EndChar

StartChar: Obarcyr
Encoding: 1256 1256 320
Width: 822
GlyphClass: 2
Flags: W
AnchorPoint: "Anchor-1" 404 0 basechar 0
AnchorPoint: "Anchor-0" 404 741 basechar 0
LayerCount: 2
Fore
SplineSet
155 406 m 1,0,-1
 654 406 l 1,1,-1
 654 325 l 1,2,-1
 155 325 l 1,3,-1
 155 406 l 1,0,-1
411 -17 m 256,4,5
 329 -17 329 -17 261.5 7.5 c 128,-1,6
 194 32 194 32 145 80 c 128,-1,7
 96 128 96 128 69.5 197.5 c 128,-1,8
 43 267 43 267 43 355 c 256,9,10
 43 443 43 443 69.5 512.5 c 128,-1,11
 96 582 96 582 145 629.5 c 128,-1,12
 194 677 194 677 261.5 702.5 c 128,-1,13
 329 728 329 728 411 728 c 256,14,15
 493 728 493 728 560.5 702.5 c 128,-1,16
 628 677 628 677 677 629.5 c 128,-1,17
 726 582 726 582 752.5 512.5 c 128,-1,18
 779 443 779 443 779 355 c 256,19,20
 779 267 779 267 752.5 197.5 c 128,-1,21
 726 128 726 128 677 80 c 128,-1,22
 628 32 628 32 560.5 7.5 c 128,-1,23
 493 -17 493 -17 411 -17 c 256,4,5
411 68 m 256,24,25
 453 68 453 68 485.5 85 c 128,-1,26
 518 102 518 102 540 137.5 c 128,-1,27
 562 173 562 173 573.5 227 c 128,-1,28
 585 281 585 281 585 355 c 256,29,30
 585 429 585 429 573.5 483 c 128,-1,31
 562 537 562 537 540 572.5 c 128,-1,32
 518 608 518 608 485.5 625 c 128,-1,33
 453 642 453 642 411 642 c 256,34,35
 369 642 369 642 336.5 625 c 128,-1,36
 304 608 304 608 282 572.5 c 128,-1,37
 260 537 260 537 248.5 483 c 128,-1,38
 237 429 237 429 237 355 c 256,39,40
 237 281 237 281 248.5 227 c 128,-1,41
 260 173 260 173 282 137.5 c 128,-1,42
 304 102 304 102 336.5 85 c 128,-1,43
 369 68 369 68 411 68 c 256,24,25
EndSplineSet
EndChar

StartChar: Hastrokecyr
Encoding: 1278 1278 321
Width: 755
GlyphClass: 2
Flags: W
AnchorPoint: "Anchor-1" 356 0 basechar 0
AnchorPoint: "Anchor-0" 385 741 basechar 0
LayerCount: 2
Fore
SplineSet
134 406 m 1,0,-1
 614 406 l 1,1,-1
 614 327 l 1,2,-1
 134 327 l 1,3,-1
 134 406 l 1,0,-1
29 635 m 1,4,-1
 29 710 l 1,5,-1
 365 710 l 1,6,-1
 365 635 l 1,7,-1
 350 635 l 2,8,9
 337 635 337 635 323 634 c 128,-1,10
 309 633 309 633 300 631 c 128,-1,11
 291 629 291 629 291 625 c 2,12,-1
 446 401 l 1,13,-1
 453 396 l 1,14,-1
 659 110 l 2,15,16
 674 88 674 88 687 81.5 c 128,-1,17
 700 75 700 75 722 75 c 2,18,-1
 734 75 l 1,19,-1
 734 0 l 1,20,-1
 392 0 l 1,21,-1
 392 75 l 1,22,-1
 407 75 l 2,23,24
 420 75 420 75 433.5 76 c 128,-1,25
 447 77 447 77 456.5 79.5 c 128,-1,26
 466 82 466 82 466 85 c 2,27,-1
 294 331 l 1,28,-1
 287 336 l 1,29,-1
 98 601 l 2,30,31
 83 623 83 623 70 629 c 128,-1,32
 57 635 57 635 35 635 c 2,33,-1
 29 635 l 1,4,-1
22 0 m 1,34,-1
 22 75 l 1,35,-1
 33 75 l 2,36,37
 55 75 55 75 69 85 c 128,-1,38
 83 95 83 95 102 121 c 2,39,-1
 294 392 l 1,40,-1
 351 348 l 1,41,-1
 174 93 l 2,42,43
 174 88 174 88 183.5 84 c 128,-1,44
 193 80 193 80 207 77.5 c 128,-1,45
 221 75 221 75 234 75 c 2,46,-1
 249 75 l 1,47,-1
 249 0 l 1,48,-1
 22 0 l 1,34,-1
461 347 m 1,49,-1
 412 400 l 1,50,-1
 558 617 l 2,51,52
 558 623 558 623 548.5 627 c 128,-1,53
 539 631 539 631 525.5 633 c 128,-1,54
 512 635 512 635 498 635 c 2,55,-1
 485 635 l 1,56,-1
 485 710 l 1,57,-1
 708 710 l 1,58,-1
 708 635 l 1,59,-1
 702 635 l 2,60,61
 680 635 680 635 664.5 625.5 c 128,-1,62
 649 616 649 616 631 590 c 2,63,-1
 461 347 l 1,49,-1
EndSplineSet
EndChar

StartChar: a
Encoding: 97 97 322
Width: 624
GlyphClass: 2
Flags: W
AnchorPoint: "Anchor-2" 468 -8 basechar 0
AnchorPoint: "Anchor-1" 321 0 basechar 0
AnchorPoint: "Anchor-0" 289 540 basechar 0
LayerCount: 2
Fore
SplineSet
388 327 m 1,0,-1
 388 262 l 1,1,2
 342 254 342 254 310 245 c 128,-1,3
 278 236 278 236 257.5 225 c 128,-1,4
 237 214 237 214 225.5 201 c 128,-1,5
 214 188 214 188 209 172.5 c 128,-1,6
 204 157 204 157 204 139 c 0,7,8
 204 114 204 114 212 98.5 c 128,-1,9
 220 83 220 83 235.5 76 c 128,-1,10
 251 69 251 69 272 69 c 0,11,12
 294 69 294 69 312.5 79 c 128,-1,13
 331 89 331 89 349.5 111 c 128,-1,14
 368 133 368 133 387 167 c 1,15,-1
 393 115 l 1,16,17
 373 72 373 72 347.5 44 c 128,-1,18
 322 16 322 16 289 2.5 c 128,-1,19
 256 -11 256 -11 211 -11 c 0,20,21
 156 -11 156 -11 118 4.5 c 128,-1,22
 80 20 80 20 60.5 51.5 c 128,-1,23
 41 83 41 83 41 131 c 0,24,25
 41 174 41 174 60 205 c 128,-1,26
 79 236 79 236 120.5 258.5 c 128,-1,27
 162 281 162 281 227.5 297.5 c 128,-1,28
 293 314 293 314 388 327 c 1,0,-1
392 0 m 1,29,-1
 380 110 l 1,30,-1
 373 109 l 1,31,-1
 373 400 l 2,32,33
 373 423 373 423 366 439 c 128,-1,34
 359 455 359 455 341.5 462.5 c 128,-1,35
 324 470 324 470 291 470 c 0,36,37
 245 470 245 470 214.5 457.5 c 128,-1,38
 184 445 184 445 172 429 c 1,39,40
 165 435 165 435 164.5 443 c 128,-1,41
 164 451 164 451 170 459 c 128,-1,42
 176 467 176 467 187 472.5 c 128,-1,43
 198 478 198 478 215 478 c 1,44,-1
 215 362 l 1,45,-1
 73 362 l 1,46,-1
 73 489 l 1,47,48
 89 499 89 499 120 513.5 c 128,-1,49
 151 528 151 528 198 539.5 c 128,-1,50
 245 551 245 551 308 551 c 0,51,52
 362 551 362 551 406 541 c 128,-1,53
 450 531 450 531 481 510.5 c 128,-1,54
 512 490 512 490 528.5 457.5 c 128,-1,55
 545 425 545 425 545 381 c 2,56,-1
 545 106 l 2,57,58
 545 95 545 95 551 89 c 128,-1,59
 557 83 557 83 568.5 80 c 128,-1,60
 580 77 580 77 598 74 c 2,61,-1
 604 72 l 1,62,-1
 604 0 l 1,63,-1
 392 0 l 1,29,-1
EndSplineSet
Substitution2: "'ss06' Style Set 6 lookup 66 subtable" a.alt
EndChar

StartChar: aogonek
Encoding: 261 261 331
Width: 624
GlyphClass: 1
Flags: W
LayerCount: 2
Fore
SplineSet
234 -148 m 0,0,1
 234 -120 234 -120 247.5 -97.5 c 128,-1,2
 261 -75 261 -75 289.5 -54.5 c 128,-1,3
 318 -34 318 -34 364 -11.5 c 128,-1,4
 410 11 410 11 474 40 c 1,5,-1
 506 9 l 1,6,7
 467 -14 467 -14 442.5 -32.5 c 128,-1,8
 418 -51 418 -51 404.5 -66.5 c 128,-1,9
 391 -82 391 -82 386 -96 c 128,-1,10
 381 -110 381 -110 381 -125 c 0,11,12
 381 -147 381 -147 393 -158.5 c 128,-1,13
 405 -170 405 -170 426 -170 c 0,14,15
 450 -170 450 -170 466.5 -157.5 c 128,-1,16
 483 -145 483 -145 494 -134 c 1,17,-1
 535 -179 l 1,18,19
 509 -210 509 -210 473.5 -228.5 c 128,-1,20
 438 -247 438 -247 377 -247 c 0,21,22
 313 -247 313 -247 273.5 -222.5 c 128,-1,23
 234 -198 234 -198 234 -148 c 0,0,1
604 0 m 1,24,-1
 392 0 l 1,25,-1
 380 110 l 1,26,-1
 373 109 l 1,27,-1
 373 400 l 2,28,29
 373 423 373 423 366 439 c 128,-1,30
 359 455 359 455 341.5 462.5 c 128,-1,31
 324 470 324 470 291 470 c 0,32,33
 245 470 245 470 214.5 457.5 c 128,-1,34
 184 445 184 445 172 429 c 1,35,36
 165 435 165 435 164.5 443 c 128,-1,37
 164 451 164 451 170 459 c 128,-1,38
 176 467 176 467 187 472.5 c 128,-1,39
 198 478 198 478 215 478 c 1,40,-1
 215 362 l 1,41,-1
 73 362 l 1,42,-1
 73 489 l 1,43,44
 89 499 89 499 120 513.5 c 128,-1,45
 151 528 151 528 198 539.5 c 128,-1,46
 245 551 245 551 308 551 c 0,47,48
 362 551 362 551 406 541 c 128,-1,49
 450 531 450 531 481 510.5 c 128,-1,50
 512 490 512 490 528.5 457.5 c 128,-1,51
 545 425 545 425 545 381 c 2,52,-1
 545 106 l 2,53,54
 545 95 545 95 551 89 c 128,-1,55
 557 83 557 83 568.5 80 c 128,-1,56
 580 77 580 77 598 74 c 2,57,-1
 604 72 l 1,58,-1
 604 0 l 1,24,-1
41 131 m 0,59,60
 41 174 41 174 60 205 c 128,-1,61
 79 236 79 236 120.5 258.5 c 128,-1,62
 162 281 162 281 227.5 297.5 c 128,-1,63
 293 314 293 314 388 327 c 1,64,-1
 388 262 l 1,65,66
 342 254 342 254 310 245 c 128,-1,67
 278 236 278 236 257.5 225 c 128,-1,68
 237 214 237 214 225.5 201 c 128,-1,69
 214 188 214 188 209 172.5 c 128,-1,70
 204 157 204 157 204 139 c 0,71,72
 204 114 204 114 212 98.5 c 128,-1,73
 220 83 220 83 235.5 76 c 128,-1,74
 251 69 251 69 272 69 c 0,75,76
 294 69 294 69 312.5 79 c 128,-1,77
 331 89 331 89 349.5 111 c 128,-1,78
 368 133 368 133 387 167 c 1,79,-1
 393 115 l 1,80,81
 373 72 373 72 347.5 44 c 128,-1,82
 322 16 322 16 289 2.5 c 128,-1,83
 256 -11 256 -11 211 -11 c 0,84,85
 156 -11 156 -11 118 4.5 c 128,-1,86
 80 20 80 20 60.5 51.5 c 128,-1,87
 41 83 41 83 41 131 c 0,59,60
EndSplineSet
Substitution2: "'ss06' Style Set 6 lookup 66 subtable" aogonek.alt
EndChar

StartChar: acaron
Encoding: 462 462 332
Width: 624
GlyphClass: 1
Flags: W
LayerCount: 2
Fore
SplineSet
247 604 m 1,0,-1
 372 604 l 1,1,-1
 501 774 l 1,2,-1
 501 803 l 1,3,-1
 438 803 l 1,4,-1
 271 684 l 1,5,-1
 357 685 l 1,6,-1
 189 803 l 1,7,-1
 118 803 l 1,8,-1
 118 774 l 1,9,-1
 247 604 l 1,0,-1
388 327 m 1,10,-1
 388 262 l 1,11,12
 342 254 342 254 310 245 c 128,-1,13
 278 236 278 236 257.5 225 c 128,-1,14
 237 214 237 214 225.5 201 c 128,-1,15
 214 188 214 188 209 172.5 c 128,-1,16
 204 157 204 157 204 139 c 0,17,18
 204 114 204 114 212 98.5 c 128,-1,19
 220 83 220 83 235.5 76 c 128,-1,20
 251 69 251 69 272 69 c 0,21,22
 294 69 294 69 312.5 79 c 128,-1,23
 331 89 331 89 349.5 111 c 128,-1,24
 368 133 368 133 387 167 c 1,25,-1
 393 115 l 1,26,27
 373 72 373 72 347.5 44 c 128,-1,28
 322 16 322 16 289 2.5 c 128,-1,29
 256 -11 256 -11 211 -11 c 0,30,31
 156 -11 156 -11 118 4.5 c 128,-1,32
 80 20 80 20 60.5 51.5 c 128,-1,33
 41 83 41 83 41 131 c 0,34,35
 41 174 41 174 60 205 c 128,-1,36
 79 236 79 236 120.5 258.5 c 128,-1,37
 162 281 162 281 227.5 297.5 c 128,-1,38
 293 314 293 314 388 327 c 1,10,-1
392 0 m 1,39,-1
 380 110 l 1,40,-1
 373 109 l 1,41,-1
 373 400 l 2,42,43
 373 423 373 423 366 439 c 128,-1,44
 359 455 359 455 341.5 462.5 c 128,-1,45
 324 470 324 470 291 470 c 0,46,47
 245 470 245 470 214.5 457.5 c 128,-1,48
 184 445 184 445 172 429 c 1,49,50
 165 435 165 435 164.5 443 c 128,-1,51
 164 451 164 451 170 459 c 128,-1,52
 176 467 176 467 187 472.5 c 128,-1,53
 198 478 198 478 215 478 c 1,54,-1
 215 362 l 1,55,-1
 73 362 l 1,56,-1
 73 489 l 1,57,58
 89 499 89 499 120 513.5 c 128,-1,59
 151 528 151 528 198 539.5 c 128,-1,60
 245 551 245 551 308 551 c 0,61,62
 362 551 362 551 406 541 c 128,-1,63
 450 531 450 531 481 510.5 c 128,-1,64
 512 490 512 490 528.5 457.5 c 128,-1,65
 545 425 545 425 545 381 c 2,66,-1
 545 106 l 2,67,68
 545 95 545 95 551 89 c 128,-1,69
 557 83 557 83 568.5 80 c 128,-1,70
 580 77 580 77 598 74 c 2,71,-1
 604 72 l 1,72,-1
 604 0 l 1,73,-1
 392 0 l 1,39,-1
EndSplineSet
Substitution2: "'ss06' Style Set 6 lookup 66 subtable" acaron.alt
EndChar

StartChar: adblgrave
Encoding: 513 513 334
Width: 624
GlyphClass: 1
Flags: W
LayerCount: 2
Fore
SplineSet
438 746 m 2,0,-1
 458 634 l 1,1,-1
 458 603 l 1,2,-1
 406 603 l 1,3,-1
 340 675 l 2,4,5
 313 704 313 704 299.5 726 c 128,-1,6
 286 748 286 748 286 773 c 0,7,8
 286 799 286 799 303.5 817 c 128,-1,9
 321 835 321 835 355 835 c 0,10,11
 393 835 393 835 412.5 811.5 c 128,-1,12
 432 788 432 788 438 746 c 2,0,-1
235 746 m 2,13,-1
 255 634 l 1,14,-1
 255 603 l 1,15,-1
 203 603 l 1,16,-1
 137 675 l 2,17,18
 110 704 110 704 96.5 726 c 128,-1,19
 83 748 83 748 83 773 c 0,20,21
 83 799 83 799 100.5 817 c 128,-1,22
 118 835 118 835 152 835 c 0,23,24
 190 835 190 835 209.5 811.5 c 128,-1,25
 229 788 229 788 235 746 c 2,13,-1
388 327 m 1,26,-1
 388 262 l 1,27,28
 342 254 342 254 310 245 c 128,-1,29
 278 236 278 236 257.5 225 c 128,-1,30
 237 214 237 214 225.5 201 c 128,-1,31
 214 188 214 188 209 172.5 c 128,-1,32
 204 157 204 157 204 139 c 0,33,34
 204 114 204 114 212 98.5 c 128,-1,35
 220 83 220 83 235.5 76 c 128,-1,36
 251 69 251 69 272 69 c 0,37,38
 294 69 294 69 312.5 79 c 128,-1,39
 331 89 331 89 349.5 111 c 128,-1,40
 368 133 368 133 387 167 c 1,41,-1
 393 115 l 1,42,43
 373 72 373 72 347.5 44 c 128,-1,44
 322 16 322 16 289 2.5 c 128,-1,45
 256 -11 256 -11 211 -11 c 0,46,47
 156 -11 156 -11 118 4.5 c 128,-1,48
 80 20 80 20 60.5 51.5 c 128,-1,49
 41 83 41 83 41 131 c 0,50,51
 41 174 41 174 60 205 c 128,-1,52
 79 236 79 236 120.5 258.5 c 128,-1,53
 162 281 162 281 227.5 297.5 c 128,-1,54
 293 314 293 314 388 327 c 1,26,-1
392 0 m 1,55,-1
 380 110 l 1,56,-1
 373 109 l 1,57,-1
 373 400 l 2,58,59
 373 423 373 423 366 439 c 128,-1,60
 359 455 359 455 341.5 462.5 c 128,-1,61
 324 470 324 470 291 470 c 0,62,63
 245 470 245 470 214.5 457.5 c 128,-1,64
 184 445 184 445 172 429 c 1,65,66
 165 435 165 435 164.5 443 c 128,-1,67
 164 451 164 451 170 459 c 128,-1,68
 176 467 176 467 187 472.5 c 128,-1,69
 198 478 198 478 215 478 c 1,70,-1
 215 362 l 1,71,-1
 73 362 l 1,72,-1
 73 489 l 1,73,74
 89 499 89 499 120 513.5 c 128,-1,75
 151 528 151 528 198 539.5 c 128,-1,76
 245 551 245 551 308 551 c 0,77,78
 362 551 362 551 406 541 c 128,-1,79
 450 531 450 531 481 510.5 c 128,-1,80
 512 490 512 490 528.5 457.5 c 128,-1,81
 545 425 545 425 545 381 c 2,82,-1
 545 106 l 2,83,84
 545 95 545 95 551 89 c 128,-1,85
 557 83 557 83 568.5 80 c 128,-1,86
 580 77 580 77 598 74 c 2,87,-1
 604 72 l 1,88,-1
 604 0 l 1,89,-1
 392 0 l 1,55,-1
EndSplineSet
Substitution2: "'ss06' Style Set 6 lookup 66 subtable" adblgrave.alt
EndChar

StartChar: ainvertedbreve
Encoding: 515 515 335
Width: 624
GlyphClass: 1
Flags: W
LayerCount: 2
Fore
SplineSet
307 792 m 256,0,1
 252 792 252 792 213 772 c 128,-1,2
 174 752 174 752 154 710 c 128,-1,3
 134 668 134 668 133 603 c 1,4,-1
 218 603 l 1,5,6
 221 635 221 635 229.5 651 c 128,-1,7
 238 667 238 667 255.5 673.5 c 128,-1,8
 273 680 273 680 304 680 c 256,9,10
 335 680 335 680 353 673.5 c 128,-1,11
 371 667 371 667 380 651 c 128,-1,12
 389 635 389 635 390 603 c 1,13,-1
 480 603 l 1,14,15
 481 668 481 668 460.5 710 c 128,-1,16
 440 752 440 752 401 772 c 128,-1,17
 362 792 362 792 307 792 c 256,0,1
388 327 m 1,18,-1
 388 262 l 1,19,20
 342 254 342 254 310 245 c 128,-1,21
 278 236 278 236 257.5 225 c 128,-1,22
 237 214 237 214 225.5 201 c 128,-1,23
 214 188 214 188 209 172.5 c 128,-1,24
 204 157 204 157 204 139 c 0,25,26
 204 114 204 114 212 98.5 c 128,-1,27
 220 83 220 83 235.5 76 c 128,-1,28
 251 69 251 69 272 69 c 0,29,30
 294 69 294 69 312.5 79 c 128,-1,31
 331 89 331 89 349.5 111 c 128,-1,32
 368 133 368 133 387 167 c 1,33,-1
 393 115 l 1,34,35
 373 72 373 72 347.5 44 c 128,-1,36
 322 16 322 16 289 2.5 c 128,-1,37
 256 -11 256 -11 211 -11 c 0,38,39
 156 -11 156 -11 118 4.5 c 128,-1,40
 80 20 80 20 60.5 51.5 c 128,-1,41
 41 83 41 83 41 131 c 0,42,43
 41 174 41 174 60 205 c 128,-1,44
 79 236 79 236 120.5 258.5 c 128,-1,45
 162 281 162 281 227.5 297.5 c 128,-1,46
 293 314 293 314 388 327 c 1,18,-1
392 0 m 1,47,-1
 380 110 l 1,48,-1
 373 109 l 1,49,-1
 373 400 l 2,50,51
 373 423 373 423 366 439 c 128,-1,52
 359 455 359 455 341.5 462.5 c 128,-1,53
 324 470 324 470 291 470 c 0,54,55
 245 470 245 470 214.5 457.5 c 128,-1,56
 184 445 184 445 172 429 c 1,57,58
 165 435 165 435 164.5 443 c 128,-1,59
 164 451 164 451 170 459 c 128,-1,60
 176 467 176 467 187 472.5 c 128,-1,61
 198 478 198 478 215 478 c 1,62,-1
 215 362 l 1,63,-1
 73 362 l 1,64,-1
 73 489 l 1,65,66
 89 499 89 499 120 513.5 c 128,-1,67
 151 528 151 528 198 539.5 c 128,-1,68
 245 551 245 551 308 551 c 0,69,70
 362 551 362 551 406 541 c 128,-1,71
 450 531 450 531 481 510.5 c 128,-1,72
 512 490 512 490 528.5 457.5 c 128,-1,73
 545 425 545 425 545 381 c 2,74,-1
 545 106 l 2,75,76
 545 95 545 95 551 89 c 128,-1,77
 557 83 557 83 568.5 80 c 128,-1,78
 580 77 580 77 598 74 c 2,79,-1
 604 72 l 1,80,-1
 604 0 l 1,81,-1
 392 0 l 1,47,-1
EndSplineSet
Substitution2: "'ss06' Style Set 6 lookup 66 subtable" ainvertedbreve.alt
EndChar

StartChar: b
Encoding: 98 98 348
Width: 700
GlyphClass: 2
Flags: W
AnchorPoint: "Anchor-1" 349 0 basechar 0
AnchorPoint: "Anchor-0" 329 755 basechar 0
LayerCount: 2
Fore
SplineSet
418 -11 m 0,0,1
 367 -11 367 -11 329.5 5.5 c 128,-1,2
 292 22 292 22 265 53 c 128,-1,3
 238 84 238 84 217 129 c 1,4,-1
 221 214 l 1,5,6
 247 173 247 173 269 144.5 c 128,-1,7
 291 116 291 116 315 100.5 c 128,-1,8
 339 85 339 85 371 85 c 0,9,10
 400 85 400 85 421 97 c 128,-1,11
 442 109 442 109 455.5 133.5 c 128,-1,12
 469 158 469 158 475.5 193 c 128,-1,13
 482 228 482 228 482 275 c 0,14,15
 482 320 482 320 476.5 353.5 c 128,-1,16
 471 387 471 387 458.5 409.5 c 128,-1,17
 446 432 446 432 426.5 443 c 128,-1,18
 407 454 407 454 379 454 c 0,19,20
 348 454 348 454 323.5 440 c 128,-1,21
 299 426 299 426 274.5 395.5 c 128,-1,22
 250 365 250 365 220 316 c 1,23,-1
 220 389 l 1,24,25
 247 442 247 442 276 478 c 128,-1,26
 305 514 305 514 342 532 c 128,-1,27
 379 550 379 550 429 550 c 0,28,29
 504 550 504 550 556 515.5 c 128,-1,30
 608 481 608 481 635 419 c 128,-1,31
 662 357 662 357 662 275 c 256,32,33
 662 193 662 193 632.5 128 c 128,-1,34
 603 63 603 63 548.5 26 c 128,-1,35
 494 -11 494 -11 418 -11 c 0,0,1
81 650 m 2,36,37
 81 660 81 660 75.5 666 c 128,-1,38
 70 672 70 672 59 676 c 128,-1,39
 48 680 48 680 30 683 c 2,40,-1
 21 685 l 1,41,-1
 21 758 l 1,42,-1
 257 758 l 1,43,-1
 257 123 l 1,44,-1
 244 118 l 1,45,-1
 187 -10 l 1,46,-1
 81 -10 l 1,47,-1
 81 650 l 2,36,37
EndSplineSet
EndChar

StartChar: c
Encoding: 99 99 349
Width: 597
GlyphClass: 2
Flags: W
AnchorPoint: "Anchor-1" 330 0 basechar 0
AnchorPoint: "Anchor-0" 319 540 basechar 0
LayerCount: 2
Fore
SplineSet
362 74 m 0,0,1
 397 74 397 74 423.5 88 c 128,-1,2
 450 102 450 102 470 125 c 128,-1,3
 490 148 490 148 504 172 c 1,4,-1
 568 129 l 1,5,6
 549 87 549 87 516.5 55 c 128,-1,7
 484 23 484 23 439 6 c 128,-1,8
 394 -11 394 -11 336 -11 c 0,9,10
 247 -11 247 -11 179.5 21.5 c 128,-1,11
 112 54 112 54 74.5 117 c 128,-1,12
 37 180 37 180 37 270 c 256,13,14
 37 360 37 360 73.5 422.5 c 128,-1,15
 110 485 110 485 178 517.5 c 128,-1,16
 246 550 246 550 341 550 c 0,17,18
 398 550 398 550 440.5 542 c 128,-1,19
 483 534 483 534 511 523.5 c 128,-1,20
 539 513 539 513 552 505 c 1,21,-1
 552 339 l 1,22,-1
 415 339 l 1,23,-1
 415 486 l 1,24,25
 428 486 428 486 436 479.5 c 128,-1,26
 444 473 444 473 447.5 463.5 c 128,-1,27
 451 454 451 454 450.5 445 c 128,-1,28
 450 436 450 436 448 431 c 1,29,30
 431 447 431 447 406.5 457 c 128,-1,31
 382 467 382 467 349 467 c 0,32,33
 303 467 303 467 274 445.5 c 128,-1,34
 245 424 245 424 231.5 380 c 128,-1,35
 218 336 218 336 218 270 c 0,36,37
 218 219 218 219 226.5 182 c 128,-1,38
 235 145 235 145 252.5 121 c 128,-1,39
 270 97 270 97 297.5 85.5 c 128,-1,40
 325 74 325 74 362 74 c 0,0,1
EndSplineSet
EndChar

StartChar: ccaron
Encoding: 269 269 354
Width: 597
GlyphClass: 1
Flags: W
LayerCount: 2
Fore
SplineSet
259 605 m 1,0,-1
 384 605 l 1,1,-1
 513 774 l 1,2,-1
 513 804 l 1,3,-1
 450 804 l 1,4,-1
 283 684 l 1,5,-1
 369 685 l 1,6,-1
 201 804 l 1,7,-1
 130 804 l 1,8,-1
 130 774 l 1,9,-1
 259 605 l 1,0,-1
362 74 m 0,10,11
 397 74 397 74 423.5 88 c 128,-1,12
 450 102 450 102 470 125 c 128,-1,13
 490 148 490 148 504 172 c 1,14,-1
 568 129 l 1,15,16
 549 87 549 87 516.5 55 c 128,-1,17
 484 23 484 23 439 6 c 128,-1,18
 394 -11 394 -11 336 -11 c 0,19,20
 247 -11 247 -11 179.5 21.5 c 128,-1,21
 112 54 112 54 74.5 117 c 128,-1,22
 37 180 37 180 37 270 c 256,23,24
 37 360 37 360 73.5 422.5 c 128,-1,25
 110 485 110 485 178 517.5 c 128,-1,26
 246 550 246 550 341 550 c 0,27,28
 398 550 398 550 440.5 542 c 128,-1,29
 483 534 483 534 511 523.5 c 128,-1,30
 539 513 539 513 552 505 c 1,31,-1
 552 339 l 1,32,-1
 415 339 l 1,33,-1
 415 486 l 1,34,35
 428 486 428 486 436 479.5 c 128,-1,36
 444 473 444 473 447.5 463.5 c 128,-1,37
 451 454 451 454 450.5 445 c 128,-1,38
 450 436 450 436 448 431 c 1,39,40
 431 447 431 447 406.5 457 c 128,-1,41
 382 467 382 467 349 467 c 0,42,43
 303 467 303 467 274 445.5 c 128,-1,44
 245 424 245 424 231.5 380 c 128,-1,45
 218 336 218 336 218 270 c 0,46,47
 218 219 218 219 226.5 182 c 128,-1,48
 235 145 235 145 252.5 121 c 128,-1,49
 270 97 270 97 297.5 85.5 c 128,-1,50
 325 74 325 74 362 74 c 0,10,11
EndSplineSet
EndChar

StartChar: d
Encoding: 100 100 356
Width: 701
GlyphClass: 2
Flags: W
AnchorPoint: "Anchor-2" 664 735 basechar 0
AnchorPoint: "Anchor-1" 327 0 basechar 0
LayerCount: 2
Fore
SplineSet
619 106 m 2,0,1
 619 90 619 90 632.5 84 c 128,-1,2
 646 78 646 78 672 74 c 2,3,-1
 679 72 l 1,4,-1
 679 0 l 1,5,-1
 464 0 l 1,6,-1
 450 122 l 1,7,-1
 443 113 l 1,8,-1
 443 650 l 2,9,10
 443 660 443 660 437 666 c 128,-1,11
 431 672 431 672 419 675.5 c 128,-1,12
 407 679 407 679 390 683 c 2,13,-1
 381 685 l 1,14,-1
 381 758 l 1,15,-1
 619 758 l 1,16,-1
 619 106 l 2,0,1
281 550 m 0,17,18
 330 550 330 550 367 532.5 c 128,-1,19
 404 515 404 515 432 481 c 128,-1,20
 460 447 460 447 480 399 c 1,21,-1
 479 327 l 1,22,23
 452 370 452 370 430 398 c 128,-1,24
 408 426 408 426 384.5 440 c 128,-1,25
 361 454 361 454 329 454 c 0,26,27
 300 454 300 454 279 442 c 128,-1,28
 258 430 258 430 244.5 406 c 128,-1,29
 231 382 231 382 224.5 346.5 c 128,-1,30
 218 311 218 311 218 264 c 0,31,32
 218 219 218 219 223.5 185.5 c 128,-1,33
 229 152 229 152 241.5 129.5 c 128,-1,34
 254 107 254 107 273.5 96 c 128,-1,35
 293 85 293 85 321 85 c 0,36,37
 352 85 352 85 376.5 99 c 128,-1,38
 401 113 401 113 425.5 144 c 128,-1,39
 450 175 450 175 479 225 c 1,40,-1
 480 151 l 1,41,42
 456 100 456 100 427 63.5 c 128,-1,43
 398 27 398 27 360.5 8 c 128,-1,44
 323 -11 323 -11 272 -11 c 0,45,46
 197 -11 197 -11 144.5 23.5 c 128,-1,47
 92 58 92 58 64.5 120 c 128,-1,48
 37 182 37 182 37 264 c 0,49,50
 37 347 37 347 66.5 411.5 c 128,-1,51
 96 476 96 476 151 513 c 128,-1,52
 206 550 206 550 281 550 c 0,17,18
EndSplineSet
EndChar

StartChar: e
Encoding: 101 101 360
Width: 617
GlyphClass: 2
Flags: W
AnchorPoint: "Anchor-2" 488 1 basechar 0
AnchorPoint: "Anchor-1" 338 0 basechar 0
AnchorPoint: "Anchor-0" 315 540 basechar 0
LayerCount: 2
Fore
SplineSet
211 267 m 0,0,1
 211 214 211 214 220.5 177 c 128,-1,2
 230 140 230 140 248.5 117 c 128,-1,3
 267 94 267 94 295 83.5 c 128,-1,4
 323 73 323 73 360 73 c 0,5,6
 398 73 398 73 425.5 85 c 128,-1,7
 453 97 453 97 473.5 117.5 c 128,-1,8
 494 138 494 138 509 163 c 1,9,-1
 576 116 l 1,10,11
 555 76 555 76 522 47 c 128,-1,12
 489 18 489 18 444 3 c 128,-1,13
 399 -12 399 -12 338 -12 c 0,14,15
 246 -12 246 -12 178.5 20 c 128,-1,16
 111 52 111 52 74 114.5 c 128,-1,17
 37 177 37 177 37 266 c 0,18,19
 37 352 37 352 72.5 416 c 128,-1,20
 108 480 108 480 172 515.5 c 128,-1,21
 236 551 236 551 319 551 c 0,22,23
 386 551 386 551 435 531 c 128,-1,24
 484 511 484 511 516.5 472 c 128,-1,25
 549 433 549 433 565.5 374.5 c 128,-1,26
 582 316 582 316 583 238 c 1,27,-1
 169 238 l 1,28,-1
 169 309 l 1,29,-1
 441 309 l 1,30,-1
 420 281 l 1,31,32
 419 338 419 338 413 375 c 128,-1,33
 407 412 407 412 396 433 c 128,-1,34
 385 454 385 454 366.5 462.5 c 128,-1,35
 348 471 348 471 322 471 c 256,36,37
 296 471 296 471 275.5 460.5 c 128,-1,38
 255 450 255 450 240.5 426.5 c 128,-1,39
 226 403 226 403 218.5 363.5 c 128,-1,40
 211 324 211 324 211 267 c 0,0,1
EndSplineSet
EndChar

StartChar: eogonek
Encoding: 281 281 368
Width: 617
GlyphClass: 1
Flags: W
LayerCount: 2
Fore
SplineSet
461 37 m 1,0,-1
 453 7 l 1,1,2
 428 -2 428 -2 399.5 -7 c 128,-1,3
 371 -12 371 -12 338 -12 c 0,4,5
 246 -12 246 -12 178.5 20 c 128,-1,6
 111 52 111 52 74 114.5 c 128,-1,7
 37 177 37 177 37 266 c 0,8,9
 37 352 37 352 72.5 416 c 128,-1,10
 108 480 108 480 172 515.5 c 128,-1,11
 236 551 236 551 319 551 c 0,12,13
 386 551 386 551 435 531 c 128,-1,14
 484 511 484 511 516.5 472 c 128,-1,15
 549 433 549 433 565.5 374.5 c 128,-1,16
 582 316 582 316 583 238 c 1,17,-1
 134 238 l 1,18,-1
 134 309 l 1,19,-1
 441 309 l 1,20,-1
 420 281 l 1,21,22
 419 338 419 338 413 375 c 128,-1,23
 407 412 407 412 396 433 c 128,-1,24
 385 454 385 454 366.5 462.5 c 128,-1,25
 348 471 348 471 322 471 c 256,26,27
 296 471 296 471 275.5 460.5 c 128,-1,28
 255 450 255 450 240.5 426.5 c 128,-1,29
 226 403 226 403 218.5 363.5 c 128,-1,30
 211 324 211 324 211 267 c 0,31,32
 211 214 211 214 220.5 177 c 128,-1,33
 230 140 230 140 248.5 117 c 128,-1,34
 267 94 267 94 295 83.5 c 128,-1,35
 323 73 323 73 360 73 c 0,36,37
 398 73 398 73 425.5 85 c 128,-1,38
 453 97 453 97 473.5 117.5 c 128,-1,39
 494 138 494 138 509 163 c 1,40,-1
 576 116 l 1,41,42
 564 93 564 93 548.5 74 c 128,-1,43
 533 55 533 55 509 37 c 0,44,45
 479 13 479 13 452.5 -7.5 c 128,-1,46
 426 -28 426 -28 405 -47 c 128,-1,47
 384 -66 384 -66 372.5 -85 c 128,-1,48
 361 -104 361 -104 361 -125 c 0,49,50
 361 -147 361 -147 373 -158.5 c 128,-1,51
 385 -170 385 -170 407 -170 c 0,52,53
 430 -170 430 -170 447 -157.5 c 128,-1,54
 464 -145 464 -145 474 -134 c 1,55,-1
 516 -179 l 1,56,57
 489 -210 489 -210 454 -228.5 c 128,-1,58
 419 -247 419 -247 360 -247 c 0,59,60
 316 -247 316 -247 283 -236 c 128,-1,61
 250 -225 250 -225 232 -203 c 128,-1,62
 214 -181 214 -181 214 -148 c 0,63,64
 214 -119 214 -119 227.5 -97 c 128,-1,65
 241 -75 241 -75 270.5 -55 c 128,-1,66
 300 -35 300 -35 347 -12.5 c 128,-1,67
 394 10 394 10 461 37 c 1,0,-1
EndSplineSet
EndChar

